<?xml version="1.0" encoding="UTF-8"?>
<svg id="Layer_2" data-name="Layer 2" xmlns="http://www.w3.org/2000/svg" viewBox="0 0 239.22 708.45">
  <defs>
    <style>
      .cls-1 {
        fill: #f8da31;
      }

      .cls-1, .cls-2 {
        fill-rule: evenodd;
      }

      .cls-2 {
        fill: #231f20;
      }
    </style>
  </defs>
  <g id="_Layer_1" data-name="#Layer 1">
    <g>
      <path class="cls-1" d="M116.1,115.18H8.92L64.36,5.49h169.38v697.48h-117.64V115.18h0ZM69.42,13.05c-1.14,0-2.06.92-2.06,2.06s.92,2.06,2.06,2.06,2.06-.92,2.06-2.06-.92-2.06-2.06-2.06h0ZM224.55,693.24c-1.14,0-2.06.92-2.06,2.06s.92,2.06,2.06,2.06,2.06-.92,2.06-2.06-.92-2.06-2.06-2.06h0ZM213.47,693.24c-1.14,0-2.06.92-2.06,2.06s.92,2.06,2.06,2.06,2.06-.92,2.06-2.06-.92-2.06-2.06-2.06h0ZM202.39,693.24c-1.14,0-2.06.92-2.06,2.06s.92,2.06,2.06,2.06,2.06-.92,2.06-2.06-.92-2.06-2.06-2.06h0ZM191.31,693.24c-1.14,0-2.06.92-2.06,2.06s.92,2.06,2.06,2.06,2.06-.92,2.06-2.06-.92-2.06-2.06-2.06h0ZM180.23,693.24c-1.14,0-2.06.92-2.06,2.06s.92,2.06,2.06,2.06,2.06-.92,2.06-2.06-.92-2.06-2.06-2.06h0ZM169.15,693.24c-1.14,0-2.06.92-2.06,2.06s.92,2.06,2.06,2.06,2.06-.92,2.06-2.06-.92-2.06-2.06-2.06h0ZM158.07,693.24c-1.14,0-2.06.92-2.06,2.06s.92,2.06,2.06,2.06,2.06-.92,2.06-2.06-.92-2.06-2.06-2.06h0ZM146.99,693.24c-1.14,0-2.06.92-2.06,2.06s.92,2.06,2.06,2.06,2.06-.92,2.06-2.06-.92-2.06-2.06-2.06h0ZM135.91,693.24c-1.14,0-2.06.92-2.06,2.06s.92,2.06,2.06,2.06,2.06-.92,2.06-2.06-.92-2.06-2.06-2.06h0ZM124.83,693.24c-1.14,0-2.06.92-2.06,2.06s.92,2.06,2.06,2.06,2.06-.92,2.06-2.06-.92-2.06-2.06-2.06h0ZM219.07,682.27c-1.14,0-2.06.92-2.06,2.06s.92,2.06,2.06,2.06,2.06-.92,2.06-2.06-.92-2.06-2.06-2.06h0ZM224.55,671.3c-1.14,0-2.06.92-2.06,2.06s.92,2.06,2.06,2.06,2.06-.92,2.06-2.06-.92-2.06-2.06-2.06h0ZM207.99,682.27c-1.14,0-2.06.92-2.06,2.06s.92,2.06,2.06,2.06,2.06-.92,2.06-2.06-.92-2.06-2.06-2.06h0ZM213.47,671.3c-1.14,0-2.06.92-2.06,2.06s.92,2.06,2.06,2.06,2.06-.92,2.06-2.06-.92-2.06-2.06-2.06h0ZM196.91,682.27c-1.14,0-2.06.92-2.06,2.06s.92,2.06,2.06,2.06,2.06-.92,2.06-2.06-.92-2.06-2.06-2.06h0ZM202.39,671.3c-1.14,0-2.06.92-2.06,2.06s.92,2.06,2.06,2.06,2.06-.92,2.06-2.06-.92-2.06-2.06-2.06h0ZM152.58,682.27c-1.14,0-2.06.92-2.06,2.06s.92,2.06,2.06,2.06,2.06-.92,2.06-2.06-.92-2.06-2.06-2.06h0ZM141.5,682.27c-1.14,0-2.06.92-2.06,2.06s.92,2.06,2.06,2.06,2.06-.92,2.06-2.06-.92-2.06-2.06-2.06h0ZM146.99,671.3c-1.14,0-2.06.92-2.06,2.06s.92,2.06,2.06,2.06,2.06-.92,2.06-2.06-.92-2.06-2.06-2.06h0ZM130.42,682.27c-1.14,0-2.06.92-2.06,2.06s.92,2.06,2.06,2.06,2.06-.92,2.06-2.06-.92-2.06-2.06-2.06h0ZM135.91,671.3c-1.14,0-2.06.92-2.06,2.06s.92,2.06,2.06,2.06,2.06-.92,2.06-2.06-.92-2.06-2.06-2.06h0ZM124.83,671.3c-1.14,0-2.06.92-2.06,2.06s.92,2.06,2.06,2.06,2.06-.92,2.06-2.06-.92-2.06-2.06-2.06h0ZM219.07,660.33c-1.14,0-2.06.92-2.06,2.06s.92,2.06,2.06,2.06,2.06-.92,2.06-2.06-.92-2.06-2.06-2.06h0ZM224.55,649.36c-1.14,0-2.06.92-2.06,2.06s.92,2.06,2.06,2.06,2.06-.92,2.06-2.06-.92-2.06-2.06-2.06h0ZM207.99,660.33c-1.14,0-2.06.92-2.06,2.06s.92,2.06,2.06,2.06,2.06-.92,2.06-2.06-.92-2.06-2.06-2.06h0ZM213.47,649.36c-1.14,0-2.06.92-2.06,2.06s.92,2.06,2.06,2.06,2.06-.92,2.06-2.06-.92-2.06-2.06-2.06h0ZM141.5,660.33c-1.14,0-2.06.92-2.06,2.06s.92,2.06,2.06,2.06,2.06-.92,2.06-2.06-.92-2.06-2.06-2.06h0ZM130.42,660.33c-1.14,0-2.06.92-2.06,2.06s.92,2.06,2.06,2.06,2.06-.92,2.06-2.06-.92-2.06-2.06-2.06h0ZM135.91,649.36c-1.14,0-2.06.92-2.06,2.06s.92,2.06,2.06,2.06,2.06-.92,2.06-2.06-.92-2.06-2.06-2.06h0ZM124.83,649.36c-1.14,0-2.06.92-2.06,2.06s.92,2.06,2.06,2.06,2.06-.92,2.06-2.06-.92-2.06-2.06-2.06h0ZM219.07,638.39c-1.14,0-2.06.92-2.06,2.06s.92,2.06,2.06,2.06,2.06-.92,2.06-2.06-.92-2.06-2.06-2.06h0ZM224.55,627.42c-1.14,0-2.06.92-2.06,2.06s.92,2.06,2.06,2.06,2.06-.92,2.06-2.06-.92-2.06-2.06-2.06h0ZM207.99,638.39c-1.14,0-2.06.92-2.06,2.06s.92,2.06,2.06,2.06,2.06-.92,2.06-2.06-.92-2.06-2.06-2.06h0ZM213.47,627.42c-1.14,0-2.06.92-2.06,2.06s.92,2.06,2.06,2.06,2.06-.92,2.06-2.06-.92-2.06-2.06-2.06h0ZM141.5,638.39c-1.14,0-2.06.92-2.06,2.06s.92,2.06,2.06,2.06,2.06-.92,2.06-2.06-.92-2.06-2.06-2.06h0ZM130.42,638.39c-1.14,0-2.06.92-2.06,2.06s.92,2.06,2.06,2.06,2.06-.92,2.06-2.06-.92-2.06-2.06-2.06h0ZM135.91,627.42c-1.14,0-2.06.92-2.06,2.06s.92,2.06,2.06,2.06,2.06-.92,2.06-2.06-.92-2.06-2.06-2.06h0ZM124.83,627.42c-1.14,0-2.06.92-2.06,2.06s.92,2.06,2.06,2.06,2.06-.92,2.06-2.06-.92-2.06-2.06-2.06h0ZM219.07,616.45c-1.14,0-2.06.92-2.06,2.06s.92,2.06,2.06,2.06,2.06-.92,2.06-2.06-.92-2.06-2.06-2.06h0ZM224.55,605.47c-1.14,0-2.06.92-2.06,2.06s.92,2.06,2.06,2.06,2.06-.92,2.06-2.06-.92-2.06-2.06-2.06h0ZM207.99,616.45c-1.14,0-2.06.92-2.06,2.06s.92,2.06,2.06,2.06,2.06-.92,2.06-2.06-.92-2.06-2.06-2.06h0ZM213.47,605.47c-1.14,0-2.06.92-2.06,2.06s.92,2.06,2.06,2.06,2.06-.92,2.06-2.06-.92-2.06-2.06-2.06h0ZM196.91,616.45c-1.14,0-2.06.92-2.06,2.06s.92,2.06,2.06,2.06,2.06-.92,2.06-2.06-.92-2.06-2.06-2.06h0ZM202.39,605.47c-1.14,0-2.06.92-2.06,2.06s.92,2.06,2.06,2.06,2.06-.92,2.06-2.06-.92-2.06-2.06-2.06h0ZM185.83,616.45c-1.14,0-2.06.92-2.06,2.06s.92,2.06,2.06,2.06,2.06-.92,2.06-2.06-.92-2.06-2.06-2.06h0ZM191.31,605.47c-1.14,0-2.06.92-2.06,2.06s.92,2.06,2.06,2.06,2.06-.92,2.06-2.06-.92-2.06-2.06-2.06h0ZM174.75,616.45c-1.14,0-2.06.92-2.06,2.06s.92,2.06,2.06,2.06,2.06-.92,2.06-2.06-.92-2.06-2.06-2.06h0ZM180.23,605.47c-1.14,0-2.06.92-2.06,2.06s.92,2.06,2.06,2.06,2.06-.92,2.06-2.06-.92-2.06-2.06-2.06h0ZM163.66,616.45c-1.14,0-2.06.92-2.06,2.06s.92,2.06,2.06,2.06,2.06-.92,2.06-2.06-.92-2.06-2.06-2.06h0ZM169.15,605.47c-1.14,0-2.06.92-2.06,2.06s.92,2.06,2.06,2.06,2.06-.92,2.06-2.06-.92-2.06-2.06-2.06h0ZM152.58,616.45c-1.14,0-2.06.92-2.06,2.06s.92,2.06,2.06,2.06,2.06-.92,2.06-2.06-.92-2.06-2.06-2.06h0ZM158.07,605.47c-1.14,0-2.06.92-2.06,2.06s.92,2.06,2.06,2.06,2.06-.92,2.06-2.06-.92-2.06-2.06-2.06h0ZM141.5,616.45c-1.14,0-2.06.92-2.06,2.06s.92,2.06,2.06,2.06,2.06-.92,2.06-2.06-.92-2.06-2.06-2.06h0ZM146.99,605.47c-1.14,0-2.06.92-2.06,2.06s.92,2.06,2.06,2.06,2.06-.92,2.06-2.06-.92-2.06-2.06-2.06h0ZM130.42,616.45c-1.14,0-2.06.92-2.06,2.06s.92,2.06,2.06,2.06,2.06-.92,2.06-2.06-.92-2.06-2.06-2.06h0ZM135.91,605.47c-1.14,0-2.06.92-2.06,2.06s.92,2.06,2.06,2.06,2.06-.92,2.06-2.06-.92-2.06-2.06-2.06h0ZM124.83,605.47c-1.14,0-2.06.92-2.06,2.06s.92,2.06,2.06,2.06,2.06-.92,2.06-2.06-.92-2.06-2.06-2.06h0ZM219.07,594.5c-1.14,0-2.06.92-2.06,2.06s.92,2.06,2.06,2.06,2.06-.92,2.06-2.06-.92-2.06-2.06-2.06h0ZM224.55,583.53c-1.14,0-2.06.92-2.06,2.06s.92,2.06,2.06,2.06,2.06-.92,2.06-2.06-.92-2.06-2.06-2.06h0ZM207.99,594.5c-1.14,0-2.06.92-2.06,2.06s.92,2.06,2.06,2.06,2.06-.92,2.06-2.06-.92-2.06-2.06-2.06h0ZM213.47,583.53c-1.14,0-2.06.92-2.06,2.06s.92,2.06,2.06,2.06,2.06-.92,2.06-2.06-.92-2.06-2.06-2.06h0ZM196.91,594.5c-1.14,0-2.06.92-2.06,2.06s.92,2.06,2.06,2.06,2.06-.92,2.06-2.06-.92-2.06-2.06-2.06h0ZM202.39,583.53c-1.14,0-2.06.92-2.06,2.06s.92,2.06,2.06,2.06,2.06-.92,2.06-2.06-.92-2.06-2.06-2.06h0ZM185.83,594.5c-1.14,0-2.06.92-2.06,2.06s.92,2.06,2.06,2.06,2.06-.92,2.06-2.06-.92-2.06-2.06-2.06h0ZM191.31,583.53c-1.14,0-2.06.92-2.06,2.06s.92,2.06,2.06,2.06,2.06-.92,2.06-2.06-.92-2.06-2.06-2.06h0ZM174.75,594.5c-1.14,0-2.06.92-2.06,2.06s.92,2.06,2.06,2.06,2.06-.92,2.06-2.06-.92-2.06-2.06-2.06h0ZM180.23,583.53c-1.14,0-2.06.92-2.06,2.06s.92,2.06,2.06,2.06,2.06-.92,2.06-2.06-.92-2.06-2.06-2.06h0ZM163.66,594.5c-1.14,0-2.06.92-2.06,2.06s.92,2.06,2.06,2.06,2.06-.92,2.06-2.06-.92-2.06-2.06-2.06h0ZM169.15,583.53c-1.14,0-2.06.92-2.06,2.06s.92,2.06,2.06,2.06,2.06-.92,2.06-2.06-.92-2.06-2.06-2.06h0ZM152.58,594.5c-1.14,0-2.06.92-2.06,2.06s.92,2.06,2.06,2.06,2.06-.92,2.06-2.06-.92-2.06-2.06-2.06h0ZM158.07,583.53c-1.14,0-2.06.92-2.06,2.06s.92,2.06,2.06,2.06,2.06-.92,2.06-2.06-.92-2.06-2.06-2.06h0ZM141.5,594.5c-1.14,0-2.06.92-2.06,2.06s.92,2.06,2.06,2.06,2.06-.92,2.06-2.06-.92-2.06-2.06-2.06h0ZM146.99,583.53c-1.14,0-2.06.92-2.06,2.06s.92,2.06,2.06,2.06,2.06-.92,2.06-2.06-.92-2.06-2.06-2.06h0ZM130.42,594.5c-1.14,0-2.06.92-2.06,2.06s.92,2.06,2.06,2.06,2.06-.92,2.06-2.06-.92-2.06-2.06-2.06h0ZM135.91,583.53c-1.14,0-2.06.92-2.06,2.06s.92,2.06,2.06,2.06,2.06-.92,2.06-2.06-.92-2.06-2.06-2.06h0ZM124.83,583.53c-1.14,0-2.06.92-2.06,2.06s.92,2.06,2.06,2.06,2.06-.92,2.06-2.06-.92-2.06-2.06-2.06h0ZM219.07,572.56c-1.14,0-2.06.92-2.06,2.06s.92,2.06,2.06,2.06,2.06-.92,2.06-2.06-.92-2.06-2.06-2.06h0ZM224.55,561.59c-1.14,0-2.06.92-2.06,2.06s.92,2.06,2.06,2.06,2.06-.92,2.06-2.06-.92-2.06-2.06-2.06h0ZM207.99,572.56c-1.14,0-2.06.92-2.06,2.06s.92,2.06,2.06,2.06,2.06-.92,2.06-2.06-.92-2.06-2.06-2.06h0ZM213.47,561.59c-1.14,0-2.06.92-2.06,2.06s.92,2.06,2.06,2.06,2.06-.92,2.06-2.06-.92-2.06-2.06-2.06h0ZM196.91,572.56c-1.14,0-2.06.92-2.06,2.06s.92,2.06,2.06,2.06,2.06-.92,2.06-2.06-.92-2.06-2.06-2.06h0ZM202.39,561.59c-1.14,0-2.06.92-2.06,2.06s.92,2.06,2.06,2.06,2.06-.92,2.06-2.06-.92-2.06-2.06-2.06h0ZM185.83,572.56c-1.14,0-2.06.92-2.06,2.06s.92,2.06,2.06,2.06,2.06-.92,2.06-2.06-.92-2.06-2.06-2.06h0ZM191.31,561.59c-1.14,0-2.06.92-2.06,2.06s.92,2.06,2.06,2.06,2.06-.92,2.06-2.06-.92-2.06-2.06-2.06h0ZM174.75,572.56c-1.14,0-2.06.92-2.06,2.06s.92,2.06,2.06,2.06,2.06-.92,2.06-2.06-.92-2.06-2.06-2.06h0ZM180.23,561.59c-1.14,0-2.06.92-2.06,2.06s.92,2.06,2.06,2.06,2.06-.92,2.06-2.06-.92-2.06-2.06-2.06h0ZM163.66,572.56c-1.14,0-2.06.92-2.06,2.06s.92,2.06,2.06,2.06,2.06-.92,2.06-2.06-.92-2.06-2.06-2.06h0ZM169.15,561.59c-1.14,0-2.06.92-2.06,2.06s.92,2.06,2.06,2.06,2.06-.92,2.06-2.06-.92-2.06-2.06-2.06h0ZM152.58,572.56c-1.14,0-2.06.92-2.06,2.06s.92,2.06,2.06,2.06,2.06-.92,2.06-2.06-.92-2.06-2.06-2.06h0ZM158.07,561.59c-1.14,0-2.06.92-2.06,2.06s.92,2.06,2.06,2.06,2.06-.92,2.06-2.06-.92-2.06-2.06-2.06h0ZM141.5,572.56c-1.14,0-2.06.92-2.06,2.06s.92,2.06,2.06,2.06,2.06-.92,2.06-2.06-.92-2.06-2.06-2.06h0ZM146.99,561.59c-1.14,0-2.06.92-2.06,2.06s.92,2.06,2.06,2.06,2.06-.92,2.06-2.06-.92-2.06-2.06-2.06h0ZM130.42,572.56c-1.14,0-2.06.92-2.06,2.06s.92,2.06,2.06,2.06,2.06-.92,2.06-2.06-.92-2.06-2.06-2.06h0ZM135.91,561.59c-1.14,0-2.06.92-2.06,2.06s.92,2.06,2.06,2.06,2.06-.92,2.06-2.06-.92-2.06-2.06-2.06h0ZM124.83,561.59c-1.14,0-2.06.92-2.06,2.06s.92,2.06,2.06,2.06,2.06-.92,2.06-2.06-.92-2.06-2.06-2.06h0ZM219.07,550.62c-1.14,0-2.06.92-2.06,2.06s.92,2.06,2.06,2.06,2.06-.92,2.06-2.06-.92-2.06-2.06-2.06h0ZM224.55,539.65c-1.14,0-2.06.92-2.06,2.06s.92,2.06,2.06,2.06,2.06-.92,2.06-2.06-.92-2.06-2.06-2.06h0ZM207.99,550.62c-1.14,0-2.06.92-2.06,2.06s.92,2.06,2.06,2.06,2.06-.92,2.06-2.06-.92-2.06-2.06-2.06h0ZM213.47,539.65c-1.14,0-2.06.92-2.06,2.06s.92,2.06,2.06,2.06,2.06-.92,2.06-2.06-.92-2.06-2.06-2.06h0ZM196.91,550.62c-1.14,0-2.06.92-2.06,2.06s.92,2.06,2.06,2.06,2.06-.92,2.06-2.06-.92-2.06-2.06-2.06h0ZM202.39,539.65c-1.14,0-2.06.92-2.06,2.06s.92,2.06,2.06,2.06,2.06-.92,2.06-2.06-.92-2.06-2.06-2.06h0ZM185.83,550.62c-1.14,0-2.06.92-2.06,2.06s.92,2.06,2.06,2.06,2.06-.92,2.06-2.06-.92-2.06-2.06-2.06h0ZM191.31,539.65c-1.14,0-2.06.92-2.06,2.06s.92,2.06,2.06,2.06,2.06-.92,2.06-2.06-.92-2.06-2.06-2.06h0ZM174.75,550.62c-1.14,0-2.06.92-2.06,2.06s.92,2.06,2.06,2.06,2.06-.92,2.06-2.06-.92-2.06-2.06-2.06h0ZM180.23,539.65c-1.14,0-2.06.92-2.06,2.06s.92,2.06,2.06,2.06,2.06-.92,2.06-2.06-.92-2.06-2.06-2.06h0ZM163.66,550.62c-1.14,0-2.06.92-2.06,2.06s.92,2.06,2.06,2.06,2.06-.92,2.06-2.06-.92-2.06-2.06-2.06h0ZM169.15,539.65c-1.14,0-2.06.92-2.06,2.06s.92,2.06,2.06,2.06,2.06-.92,2.06-2.06-.92-2.06-2.06-2.06h0ZM152.58,550.62c-1.14,0-2.06.92-2.06,2.06s.92,2.06,2.06,2.06,2.06-.92,2.06-2.06-.92-2.06-2.06-2.06h0ZM158.07,539.65c-1.14,0-2.06.92-2.06,2.06s.92,2.06,2.06,2.06,2.06-.92,2.06-2.06-.92-2.06-2.06-2.06h0ZM141.5,550.62c-1.14,0-2.06.92-2.06,2.06s.92,2.06,2.06,2.06,2.06-.92,2.06-2.06-.92-2.06-2.06-2.06h0ZM146.99,539.65c-1.14,0-2.06.92-2.06,2.06s.92,2.06,2.06,2.06,2.06-.92,2.06-2.06-.92-2.06-2.06-2.06h0ZM130.42,550.62c-1.14,0-2.06.92-2.06,2.06s.92,2.06,2.06,2.06,2.06-.92,2.06-2.06-.92-2.06-2.06-2.06h0ZM135.91,539.65c-1.14,0-2.06.92-2.06,2.06s.92,2.06,2.06,2.06,2.06-.92,2.06-2.06-.92-2.06-2.06-2.06h0ZM124.83,539.65c-1.14,0-2.06.92-2.06,2.06s.92,2.06,2.06,2.06,2.06-.92,2.06-2.06-.92-2.06-2.06-2.06h0ZM219.07,528.68c-1.14,0-2.06.92-2.06,2.06s.92,2.06,2.06,2.06,2.06-.92,2.06-2.06-.92-2.06-2.06-2.06h0ZM224.55,517.71c-1.14,0-2.06.92-2.06,2.06s.92,2.06,2.06,2.06,2.06-.92,2.06-2.06-.92-2.06-2.06-2.06h0ZM207.99,528.68c-1.14,0-2.06.92-2.06,2.06s.92,2.06,2.06,2.06,2.06-.92,2.06-2.06-.92-2.06-2.06-2.06h0ZM213.47,517.71c-1.14,0-2.06.92-2.06,2.06s.92,2.06,2.06,2.06,2.06-.92,2.06-2.06-.92-2.06-2.06-2.06h0ZM196.91,528.68c-1.14,0-2.06.92-2.06,2.06s.92,2.06,2.06,2.06,2.06-.92,2.06-2.06-.92-2.06-2.06-2.06h0ZM202.39,517.71c-1.14,0-2.06.92-2.06,2.06s.92,2.06,2.06,2.06,2.06-.92,2.06-2.06-.92-2.06-2.06-2.06h0ZM185.83,528.68c-1.14,0-2.06.92-2.06,2.06s.92,2.06,2.06,2.06,2.06-.92,2.06-2.06-.92-2.06-2.06-2.06h0ZM191.31,517.71c-1.14,0-2.06.92-2.06,2.06s.92,2.06,2.06,2.06,2.06-.92,2.06-2.06-.92-2.06-2.06-2.06h0ZM174.75,528.68c-1.14,0-2.06.92-2.06,2.06s.92,2.06,2.06,2.06,2.06-.92,2.06-2.06-.92-2.06-2.06-2.06h0ZM180.23,517.71c-1.14,0-2.06.92-2.06,2.06s.92,2.06,2.06,2.06,2.06-.92,2.06-2.06-.92-2.06-2.06-2.06h0ZM163.66,528.68c-1.14,0-2.06.92-2.06,2.06s.92,2.06,2.06,2.06,2.06-.92,2.06-2.06-.92-2.06-2.06-2.06h0ZM169.15,517.71c-1.14,0-2.06.92-2.06,2.06s.92,2.06,2.06,2.06,2.06-.92,2.06-2.06-.92-2.06-2.06-2.06h0ZM152.58,528.68c-1.14,0-2.06.92-2.06,2.06s.92,2.06,2.06,2.06,2.06-.92,2.06-2.06-.92-2.06-2.06-2.06h0ZM158.07,517.71c-1.14,0-2.06.92-2.06,2.06s.92,2.06,2.06,2.06,2.06-.92,2.06-2.06-.92-2.06-2.06-2.06h0ZM141.5,528.68c-1.14,0-2.06.92-2.06,2.06s.92,2.06,2.06,2.06,2.06-.92,2.06-2.06-.92-2.06-2.06-2.06h0ZM146.99,517.71c-1.14,0-2.06.92-2.06,2.06s.92,2.06,2.06,2.06,2.06-.92,2.06-2.06-.92-2.06-2.06-2.06h0ZM130.42,528.68c-1.14,0-2.06.92-2.06,2.06s.92,2.06,2.06,2.06,2.06-.92,2.06-2.06-.92-2.06-2.06-2.06h0ZM135.91,517.71c-1.14,0-2.06.92-2.06,2.06s.92,2.06,2.06,2.06,2.06-.92,2.06-2.06-.92-2.06-2.06-2.06h0ZM124.83,517.71c-1.14,0-2.06.92-2.06,2.06s.92,2.06,2.06,2.06,2.06-.92,2.06-2.06-.92-2.06-2.06-2.06h0ZM219.07,506.74c-1.14,0-2.06.92-2.06,2.06s.92,2.06,2.06,2.06,2.06-.92,2.06-2.06-.92-2.06-2.06-2.06h0ZM224.55,495.77c-1.14,0-2.06.92-2.06,2.06s.92,2.06,2.06,2.06,2.06-.92,2.06-2.06-.92-2.06-2.06-2.06h0ZM207.99,506.74c-1.14,0-2.06.92-2.06,2.06s.92,2.06,2.06,2.06,2.06-.92,2.06-2.06-.92-2.06-2.06-2.06h0ZM213.47,495.77c-1.14,0-2.06.92-2.06,2.06s.92,2.06,2.06,2.06,2.06-.92,2.06-2.06-.92-2.06-2.06-2.06h0ZM196.91,506.74c-1.14,0-2.06.92-2.06,2.06s.92,2.06,2.06,2.06,2.06-.92,2.06-2.06-.92-2.06-2.06-2.06h0ZM202.39,495.77c-1.14,0-2.06.92-2.06,2.06s.92,2.06,2.06,2.06,2.06-.92,2.06-2.06-.92-2.06-2.06-2.06h0ZM185.83,506.74c-1.14,0-2.06.92-2.06,2.06s.92,2.06,2.06,2.06,2.06-.92,2.06-2.06-.92-2.06-2.06-2.06h0ZM191.31,495.77c-1.14,0-2.06.92-2.06,2.06s.92,2.06,2.06,2.06,2.06-.92,2.06-2.06-.92-2.06-2.06-2.06h0ZM174.75,506.74c-1.14,0-2.06.92-2.06,2.06s.92,2.06,2.06,2.06,2.06-.92,2.06-2.06-.92-2.06-2.06-2.06h0ZM180.23,495.77c-1.14,0-2.06.92-2.06,2.06s.92,2.06,2.06,2.06,2.06-.92,2.06-2.06-.92-2.06-2.06-2.06h0ZM163.66,506.74c-1.14,0-2.06.92-2.06,2.06s.92,2.06,2.06,2.06,2.06-.92,2.06-2.06-.92-2.06-2.06-2.06h0ZM169.15,495.77c-1.14,0-2.06.92-2.06,2.06s.92,2.06,2.06,2.06,2.06-.92,2.06-2.06-.92-2.06-2.06-2.06h0ZM152.58,506.74c-1.14,0-2.06.92-2.06,2.06s.92,2.06,2.06,2.06,2.06-.92,2.06-2.06-.92-2.06-2.06-2.06h0ZM158.07,495.77c-1.14,0-2.06.92-2.06,2.06s.92,2.06,2.06,2.06,2.06-.92,2.06-2.06-.92-2.06-2.06-2.06h0ZM141.5,506.74c-1.14,0-2.06.92-2.06,2.06s.92,2.06,2.06,2.06,2.06-.92,2.06-2.06-.92-2.06-2.06-2.06h0ZM146.99,495.77c-1.14,0-2.06.92-2.06,2.06s.92,2.06,2.06,2.06,2.06-.92,2.06-2.06-.92-2.06-2.06-2.06h0ZM130.42,506.74c-1.14,0-2.06.92-2.06,2.06s.92,2.06,2.06,2.06,2.06-.92,2.06-2.06-.92-2.06-2.06-2.06h0ZM135.91,495.77c-1.14,0-2.06.92-2.06,2.06s.92,2.06,2.06,2.06,2.06-.92,2.06-2.06-.92-2.06-2.06-2.06h0ZM124.83,495.77c-1.14,0-2.06.92-2.06,2.06s.92,2.06,2.06,2.06,2.06-.92,2.06-2.06-.92-2.06-2.06-2.06h0ZM219.07,484.79c-1.14,0-2.06.92-2.06,2.06s.92,2.06,2.06,2.06,2.06-.92,2.06-2.06-.92-2.06-2.06-2.06h0ZM224.55,473.82c-1.14,0-2.06.92-2.06,2.06s.92,2.06,2.06,2.06,2.06-.92,2.06-2.06-.92-2.06-2.06-2.06h0ZM207.99,484.79c-1.14,0-2.06.92-2.06,2.06s.92,2.06,2.06,2.06,2.06-.92,2.06-2.06-.92-2.06-2.06-2.06h0ZM213.47,473.82c-1.14,0-2.06.92-2.06,2.06s.92,2.06,2.06,2.06,2.06-.92,2.06-2.06-.92-2.06-2.06-2.06h0ZM196.91,484.79c-1.14,0-2.06.92-2.06,2.06s.92,2.06,2.06,2.06,2.06-.92,2.06-2.06-.92-2.06-2.06-2.06h0ZM202.39,473.82c-1.14,0-2.06.92-2.06,2.06s.92,2.06,2.06,2.06,2.06-.92,2.06-2.06-.92-2.06-2.06-2.06h0ZM185.83,484.79c-1.14,0-2.06.92-2.06,2.06s.92,2.06,2.06,2.06,2.06-.92,2.06-2.06-.92-2.06-2.06-2.06h0ZM191.31,473.82c-1.14,0-2.06.92-2.06,2.06s.92,2.06,2.06,2.06,2.06-.92,2.06-2.06-.92-2.06-2.06-2.06h0ZM174.75,484.79c-1.14,0-2.06.92-2.06,2.06s.92,2.06,2.06,2.06,2.06-.92,2.06-2.06-.92-2.06-2.06-2.06h0ZM180.23,473.82c-1.14,0-2.06.92-2.06,2.06s.92,2.06,2.06,2.06,2.06-.92,2.06-2.06-.92-2.06-2.06-2.06h0ZM163.66,484.79c-1.14,0-2.06.92-2.06,2.06s.92,2.06,2.06,2.06,2.06-.92,2.06-2.06-.92-2.06-2.06-2.06h0ZM169.15,473.82c-1.14,0-2.06.92-2.06,2.06s.92,2.06,2.06,2.06,2.06-.92,2.06-2.06-.92-2.06-2.06-2.06h0ZM152.58,484.79c-1.14,0-2.06.92-2.06,2.06s.92,2.06,2.06,2.06,2.06-.92,2.06-2.06-.92-2.06-2.06-2.06h0ZM158.07,473.82c-1.14,0-2.06.92-2.06,2.06s.92,2.06,2.06,2.06,2.06-.92,2.06-2.06-.92-2.06-2.06-2.06h0ZM141.5,484.79c-1.14,0-2.06.92-2.06,2.06s.92,2.06,2.06,2.06,2.06-.92,2.06-2.06-.92-2.06-2.06-2.06h0ZM146.99,473.82c-1.14,0-2.06.92-2.06,2.06s.92,2.06,2.06,2.06,2.06-.92,2.06-2.06-.92-2.06-2.06-2.06h0ZM130.42,484.79c-1.14,0-2.06.92-2.06,2.06s.92,2.06,2.06,2.06,2.06-.92,2.06-2.06-.92-2.06-2.06-2.06h0ZM135.91,473.82c-1.14,0-2.06.92-2.06,2.06s.92,2.06,2.06,2.06,2.06-.92,2.06-2.06-.92-2.06-2.06-2.06h0ZM124.83,473.82c-1.14,0-2.06.92-2.06,2.06s.92,2.06,2.06,2.06,2.06-.92,2.06-2.06-.92-2.06-2.06-2.06h0ZM219.07,462.85c-1.14,0-2.06.92-2.06,2.06s.92,2.06,2.06,2.06,2.06-.92,2.06-2.06-.92-2.06-2.06-2.06h0ZM224.55,451.88c-1.14,0-2.06.92-2.06,2.06s.92,2.06,2.06,2.06,2.06-.92,2.06-2.06-.92-2.06-2.06-2.06h0ZM207.99,462.85c-1.14,0-2.06.92-2.06,2.06s.92,2.06,2.06,2.06,2.06-.92,2.06-2.06-.92-2.06-2.06-2.06h0ZM213.47,451.88c-1.14,0-2.06.92-2.06,2.06s.92,2.06,2.06,2.06,2.06-.92,2.06-2.06-.92-2.06-2.06-2.06h0ZM196.91,462.85c-1.14,0-2.06.92-2.06,2.06s.92,2.06,2.06,2.06,2.06-.92,2.06-2.06-.92-2.06-2.06-2.06h0ZM202.39,451.88c-1.14,0-2.06.92-2.06,2.06s.92,2.06,2.06,2.06,2.06-.92,2.06-2.06-.92-2.06-2.06-2.06h0ZM185.83,462.85c-1.14,0-2.06.92-2.06,2.06s.92,2.06,2.06,2.06,2.06-.92,2.06-2.06-.92-2.06-2.06-2.06h0ZM191.31,451.88c-1.14,0-2.06.92-2.06,2.06s.92,2.06,2.06,2.06,2.06-.92,2.06-2.06-.92-2.06-2.06-2.06h0ZM174.75,462.85c-1.14,0-2.06.92-2.06,2.06s.92,2.06,2.06,2.06,2.06-.92,2.06-2.06-.92-2.06-2.06-2.06h0ZM180.23,451.88c-1.14,0-2.06.92-2.06,2.06s.92,2.06,2.06,2.06,2.06-.92,2.06-2.06-.92-2.06-2.06-2.06h0ZM163.66,462.85c-1.14,0-2.06.92-2.06,2.06s.92,2.06,2.06,2.06,2.06-.92,2.06-2.06-.92-2.06-2.06-2.06h0ZM169.15,451.88c-1.14,0-2.06.92-2.06,2.06s.92,2.06,2.06,2.06,2.06-.92,2.06-2.06-.92-2.06-2.06-2.06h0ZM152.58,462.85c-1.14,0-2.06.92-2.06,2.06s.92,2.06,2.06,2.06,2.06-.92,2.06-2.06-.92-2.06-2.06-2.06h0ZM158.07,451.88c-1.14,0-2.06.92-2.06,2.06s.92,2.06,2.06,2.06,2.06-.92,2.06-2.06-.92-2.06-2.06-2.06h0ZM141.5,462.85c-1.14,0-2.06.92-2.06,2.06s.92,2.06,2.06,2.06,2.06-.92,2.06-2.06-.92-2.06-2.06-2.06h0ZM146.99,451.88c-1.14,0-2.06.92-2.06,2.06s.92,2.06,2.06,2.06,2.06-.92,2.06-2.06-.92-2.06-2.06-2.06h0ZM130.42,462.85c-1.14,0-2.06.92-2.06,2.06s.92,2.06,2.06,2.06,2.06-.92,2.06-2.06-.92-2.06-2.06-2.06h0ZM135.91,451.88c-1.14,0-2.06.92-2.06,2.06s.92,2.06,2.06,2.06,2.06-.92,2.06-2.06-.92-2.06-2.06-2.06h0ZM124.83,451.88c-1.14,0-2.06.92-2.06,2.06s.92,2.06,2.06,2.06,2.06-.92,2.06-2.06-.92-2.06-2.06-2.06h0ZM219.07,440.91c-1.14,0-2.06.92-2.06,2.06s.92,2.06,2.06,2.06,2.06-.92,2.06-2.06-.92-2.06-2.06-2.06h0ZM224.55,429.94c-1.14,0-2.06.92-2.06,2.06s.92,2.06,2.06,2.06,2.06-.92,2.06-2.06-.92-2.06-2.06-2.06h0ZM207.99,440.91c-1.14,0-2.06.92-2.06,2.06s.92,2.06,2.06,2.06,2.06-.92,2.06-2.06-.92-2.06-2.06-2.06h0ZM213.47,429.94c-1.14,0-2.06.92-2.06,2.06s.92,2.06,2.06,2.06,2.06-.92,2.06-2.06-.92-2.06-2.06-2.06h0ZM196.91,440.91c-1.14,0-2.06.92-2.06,2.06s.92,2.06,2.06,2.06,2.06-.92,2.06-2.06-.92-2.06-2.06-2.06h0ZM202.39,429.94c-1.14,0-2.06.92-2.06,2.06s.92,2.06,2.06,2.06,2.06-.92,2.06-2.06-.92-2.06-2.06-2.06h0ZM185.83,440.91c-1.14,0-2.06.92-2.06,2.06s.92,2.06,2.06,2.06,2.06-.92,2.06-2.06-.92-2.06-2.06-2.06h0ZM191.31,429.94c-1.14,0-2.06.92-2.06,2.06s.92,2.06,2.06,2.06,2.06-.92,2.06-2.06-.92-2.06-2.06-2.06h0ZM174.75,440.91c-1.14,0-2.06.92-2.06,2.06s.92,2.06,2.06,2.06,2.06-.92,2.06-2.06-.92-2.06-2.06-2.06h0ZM180.23,429.94c-1.14,0-2.06.92-2.06,2.06s.92,2.06,2.06,2.06,2.06-.92,2.06-2.06-.92-2.06-2.06-2.06h0ZM163.66,440.91c-1.14,0-2.06.92-2.06,2.06s.92,2.06,2.06,2.06,2.06-.92,2.06-2.06-.92-2.06-2.06-2.06h0ZM169.15,429.94c-1.14,0-2.06.92-2.06,2.06s.92,2.06,2.06,2.06,2.06-.92,2.06-2.06-.92-2.06-2.06-2.06h0ZM152.58,440.91c-1.14,0-2.06.92-2.06,2.06s.92,2.06,2.06,2.06,2.06-.92,2.06-2.06-.92-2.06-2.06-2.06h0ZM158.07,429.94c-1.14,0-2.06.92-2.06,2.06s.92,2.06,2.06,2.06,2.06-.92,2.06-2.06-.92-2.06-2.06-2.06h0ZM141.5,440.91c-1.14,0-2.06.92-2.06,2.06s.92,2.06,2.06,2.06,2.06-.92,2.06-2.06-.92-2.06-2.06-2.06h0ZM146.99,429.94c-1.14,0-2.06.92-2.06,2.06s.92,2.06,2.06,2.06,2.06-.92,2.06-2.06-.92-2.06-2.06-2.06h0ZM130.42,440.91c-1.14,0-2.06.92-2.06,2.06s.92,2.06,2.06,2.06,2.06-.92,2.06-2.06-.92-2.06-2.06-2.06h0ZM135.91,429.94c-1.14,0-2.06.92-2.06,2.06s.92,2.06,2.06,2.06,2.06-.92,2.06-2.06-.92-2.06-2.06-2.06h0ZM124.83,429.94c-1.14,0-2.06.92-2.06,2.06s.92,2.06,2.06,2.06,2.06-.92,2.06-2.06-.92-2.06-2.06-2.06h0ZM219.07,418.97c-1.14,0-2.06.92-2.06,2.06s.92,2.06,2.06,2.06,2.06-.92,2.06-2.06-.92-2.06-2.06-2.06h0ZM224.55,408c-1.14,0-2.06.92-2.06,2.06s.92,2.06,2.06,2.06,2.06-.92,2.06-2.06-.92-2.06-2.06-2.06h0ZM207.99,418.97c-1.14,0-2.06.92-2.06,2.06s.92,2.06,2.06,2.06,2.06-.92,2.06-2.06-.92-2.06-2.06-2.06h0ZM213.47,408c-1.14,0-2.06.92-2.06,2.06s.92,2.06,2.06,2.06,2.06-.92,2.06-2.06-.92-2.06-2.06-2.06h0ZM196.91,418.97c-1.14,0-2.06.92-2.06,2.06s.92,2.06,2.06,2.06,2.06-.92,2.06-2.06-.92-2.06-2.06-2.06h0ZM202.39,408c-1.14,0-2.06.92-2.06,2.06s.92,2.06,2.06,2.06,2.06-.92,2.06-2.06-.92-2.06-2.06-2.06h0ZM185.83,418.97c-1.14,0-2.06.92-2.06,2.06s.92,2.06,2.06,2.06,2.06-.92,2.06-2.06-.92-2.06-2.06-2.06h0ZM191.31,408c-1.14,0-2.06.92-2.06,2.06s.92,2.06,2.06,2.06,2.06-.92,2.06-2.06-.92-2.06-2.06-2.06h0ZM174.75,418.97c-1.14,0-2.06.92-2.06,2.06s.92,2.06,2.06,2.06,2.06-.92,2.06-2.06-.92-2.06-2.06-2.06h0ZM180.23,408c-1.14,0-2.06.92-2.06,2.06s.92,2.06,2.06,2.06,2.06-.92,2.06-2.06-.92-2.06-2.06-2.06h0ZM163.66,418.97c-1.14,0-2.06.92-2.06,2.06s.92,2.06,2.06,2.06,2.06-.92,2.06-2.06-.92-2.06-2.06-2.06h0ZM169.15,408c-1.14,0-2.06.92-2.06,2.06s.92,2.06,2.06,2.06,2.06-.92,2.06-2.06-.92-2.06-2.06-2.06h0ZM152.58,418.97c-1.14,0-2.06.92-2.06,2.06s.92,2.06,2.06,2.06,2.06-.92,2.06-2.06-.92-2.06-2.06-2.06h0ZM158.07,408c-1.14,0-2.06.92-2.06,2.06s.92,2.06,2.06,2.06,2.06-.92,2.06-2.06-.92-2.06-2.06-2.06h0ZM141.5,418.97c-1.14,0-2.06.92-2.06,2.06s.92,2.06,2.06,2.06,2.06-.92,2.06-2.06-.92-2.06-2.06-2.06h0ZM146.99,408c-1.14,0-2.06.92-2.06,2.06s.92,2.06,2.06,2.06,2.06-.92,2.06-2.06-.92-2.06-2.06-2.06h0ZM130.42,418.97c-1.14,0-2.06.92-2.06,2.06s.92,2.06,2.06,2.06,2.06-.92,2.06-2.06-.92-2.06-2.06-2.06h0ZM135.91,408c-1.14,0-2.06.92-2.06,2.06s.92,2.06,2.06,2.06,2.06-.92,2.06-2.06-.92-2.06-2.06-2.06h0ZM124.83,408c-1.14,0-2.06.92-2.06,2.06s.92,2.06,2.06,2.06,2.06-.92,2.06-2.06-.92-2.06-2.06-2.06h0ZM219.07,397.03c-1.14,0-2.06.92-2.06,2.06s.92,2.06,2.06,2.06,2.06-.92,2.06-2.06-.92-2.06-2.06-2.06h0ZM224.55,386.06c-1.14,0-2.06.92-2.06,2.06s.92,2.06,2.06,2.06,2.06-.92,2.06-2.06-.92-2.06-2.06-2.06h0ZM207.99,397.03c-1.14,0-2.06.92-2.06,2.06s.92,2.06,2.06,2.06,2.06-.92,2.06-2.06-.92-2.06-2.06-2.06h0ZM213.47,386.06c-1.14,0-2.06.92-2.06,2.06s.92,2.06,2.06,2.06,2.06-.92,2.06-2.06-.92-2.06-2.06-2.06h0ZM196.91,397.03c-1.14,0-2.06.92-2.06,2.06s.92,2.06,2.06,2.06,2.06-.92,2.06-2.06-.92-2.06-2.06-2.06h0ZM202.39,386.06c-1.14,0-2.06.92-2.06,2.06s.92,2.06,2.06,2.06,2.06-.92,2.06-2.06-.92-2.06-2.06-2.06h0ZM185.83,397.03c-1.14,0-2.06.92-2.06,2.06s.92,2.06,2.06,2.06,2.06-.92,2.06-2.06-.92-2.06-2.06-2.06h0ZM191.31,386.06c-1.14,0-2.06.92-2.06,2.06s.92,2.06,2.06,2.06,2.06-.92,2.06-2.06-.92-2.06-2.06-2.06h0ZM174.75,397.03c-1.14,0-2.06.92-2.06,2.06s.92,2.06,2.06,2.06,2.06-.92,2.06-2.06-.92-2.06-2.06-2.06h0ZM180.23,386.06c-1.14,0-2.06.92-2.06,2.06s.92,2.06,2.06,2.06,2.06-.92,2.06-2.06-.92-2.06-2.06-2.06h0ZM163.66,397.03c-1.14,0-2.06.92-2.06,2.06s.92,2.06,2.06,2.06,2.06-.92,2.06-2.06-.92-2.06-2.06-2.06h0ZM169.15,386.06c-1.14,0-2.06.92-2.06,2.06s.92,2.06,2.06,2.06,2.06-.92,2.06-2.06-.92-2.06-2.06-2.06h0ZM152.58,397.03c-1.14,0-2.06.92-2.06,2.06s.92,2.06,2.06,2.06,2.06-.92,2.06-2.06-.92-2.06-2.06-2.06h0ZM158.07,386.06c-1.14,0-2.06.92-2.06,2.06s.92,2.06,2.06,2.06,2.06-.92,2.06-2.06-.92-2.06-2.06-2.06h0ZM141.5,397.03c-1.14,0-2.06.92-2.06,2.06s.92,2.06,2.06,2.06,2.06-.92,2.06-2.06-.92-2.06-2.06-2.06h0ZM146.99,386.06c-1.14,0-2.06.92-2.06,2.06s.92,2.06,2.06,2.06,2.06-.92,2.06-2.06-.92-2.06-2.06-2.06h0ZM130.42,397.03c-1.14,0-2.06.92-2.06,2.06s.92,2.06,2.06,2.06,2.06-.92,2.06-2.06-.92-2.06-2.06-2.06h0ZM135.91,386.06c-1.14,0-2.06.92-2.06,2.06s.92,2.06,2.06,2.06,2.06-.92,2.06-2.06-.92-2.06-2.06-2.06h0ZM124.83,386.06c-1.14,0-2.06.92-2.06,2.06s.92,2.06,2.06,2.06,2.06-.92,2.06-2.06-.92-2.06-2.06-2.06h0ZM219.07,375.09c-1.14,0-2.06.92-2.06,2.06s.92,2.06,2.06,2.06,2.06-.92,2.06-2.06-.92-2.06-2.06-2.06h0ZM224.55,364.11c-1.14,0-2.06.92-2.06,2.06s.92,2.06,2.06,2.06,2.06-.92,2.06-2.06-.92-2.06-2.06-2.06h0ZM207.99,375.09c-1.14,0-2.06.92-2.06,2.06s.92,2.06,2.06,2.06,2.06-.92,2.06-2.06-.92-2.06-2.06-2.06h0ZM213.47,364.11c-1.14,0-2.06.92-2.06,2.06s.92,2.06,2.06,2.06,2.06-.92,2.06-2.06-.92-2.06-2.06-2.06h0ZM196.91,375.09c-1.14,0-2.06.92-2.06,2.06s.92,2.06,2.06,2.06,2.06-.92,2.06-2.06-.92-2.06-2.06-2.06h0ZM202.39,364.11c-1.14,0-2.06.92-2.06,2.06s.92,2.06,2.06,2.06,2.06-.92,2.06-2.06-.92-2.06-2.06-2.06h0ZM185.83,375.09c-1.14,0-2.06.92-2.06,2.06s.92,2.06,2.06,2.06,2.06-.92,2.06-2.06-.92-2.06-2.06-2.06h0ZM191.31,364.11c-1.14,0-2.06.92-2.06,2.06s.92,2.06,2.06,2.06,2.06-.92,2.06-2.06-.92-2.06-2.06-2.06h0ZM174.75,375.09c-1.14,0-2.06.92-2.06,2.06s.92,2.06,2.06,2.06,2.06-.92,2.06-2.06-.92-2.06-2.06-2.06h0ZM180.23,364.11c-1.14,0-2.06.92-2.06,2.06s.92,2.06,2.06,2.06,2.06-.92,2.06-2.06-.92-2.06-2.06-2.06h0ZM163.66,375.09c-1.14,0-2.06.92-2.06,2.06s.92,2.06,2.06,2.06,2.06-.92,2.06-2.06-.92-2.06-2.06-2.06h0ZM169.15,364.11c-1.14,0-2.06.92-2.06,2.06s.92,2.06,2.06,2.06,2.06-.92,2.06-2.06-.92-2.06-2.06-2.06h0ZM152.58,375.09c-1.14,0-2.06.92-2.06,2.06s.92,2.06,2.06,2.06,2.06-.92,2.06-2.06-.92-2.06-2.06-2.06h0ZM158.07,364.11c-1.14,0-2.06.92-2.06,2.06s.92,2.06,2.06,2.06,2.06-.92,2.06-2.06-.92-2.06-2.06-2.06h0ZM141.5,375.09c-1.14,0-2.06.92-2.06,2.06s.92,2.06,2.06,2.06,2.06-.92,2.06-2.06-.92-2.06-2.06-2.06h0ZM146.99,364.11c-1.14,0-2.06.92-2.06,2.06s.92,2.06,2.06,2.06,2.06-.92,2.06-2.06-.92-2.06-2.06-2.06h0ZM130.42,375.09c-1.14,0-2.06.92-2.06,2.06s.92,2.06,2.06,2.06,2.06-.92,2.06-2.06-.92-2.06-2.06-2.06h0ZM135.91,364.11c-1.14,0-2.06.92-2.06,2.06s.92,2.06,2.06,2.06,2.06-.92,2.06-2.06-.92-2.06-2.06-2.06h0ZM124.83,364.11c-1.14,0-2.06.92-2.06,2.06s.92,2.06,2.06,2.06,2.06-.92,2.06-2.06-.92-2.06-2.06-2.06h0ZM219.07,353.14c-1.14,0-2.06.92-2.06,2.06s.92,2.06,2.06,2.06,2.06-.92,2.06-2.06-.92-2.06-2.06-2.06h0ZM224.55,342.17c-1.14,0-2.06.92-2.06,2.06s.92,2.06,2.06,2.06,2.06-.92,2.06-2.06-.92-2.06-2.06-2.06h0ZM207.99,353.14c-1.14,0-2.06.92-2.06,2.06s.92,2.06,2.06,2.06,2.06-.92,2.06-2.06-.92-2.06-2.06-2.06h0ZM213.47,342.17c-1.14,0-2.06.92-2.06,2.06s.92,2.06,2.06,2.06,2.06-.92,2.06-2.06-.92-2.06-2.06-2.06h0ZM196.91,353.14c-1.14,0-2.06.92-2.06,2.06s.92,2.06,2.06,2.06,2.06-.92,2.06-2.06-.92-2.06-2.06-2.06h0ZM202.39,342.17c-1.14,0-2.06.92-2.06,2.06s.92,2.06,2.06,2.06,2.06-.92,2.06-2.06-.92-2.06-2.06-2.06h0ZM185.83,353.14c-1.14,0-2.06.92-2.06,2.06s.92,2.06,2.06,2.06,2.06-.92,2.06-2.06-.92-2.06-2.06-2.06h0ZM191.31,342.17c-1.14,0-2.06.92-2.06,2.06s.92,2.06,2.06,2.06,2.06-.92,2.06-2.06-.92-2.06-2.06-2.06h0ZM174.75,353.14c-1.14,0-2.06.92-2.06,2.06s.92,2.06,2.06,2.06,2.06-.92,2.06-2.06-.92-2.06-2.06-2.06h0ZM180.23,342.17c-1.14,0-2.06.92-2.06,2.06s.92,2.06,2.06,2.06,2.06-.92,2.06-2.06-.92-2.06-2.06-2.06h0ZM163.66,353.14c-1.14,0-2.06.92-2.06,2.06s.92,2.06,2.06,2.06,2.06-.92,2.06-2.06-.92-2.06-2.06-2.06h0ZM169.15,342.17c-1.14,0-2.06.92-2.06,2.06s.92,2.06,2.06,2.06,2.06-.92,2.06-2.06-.92-2.06-2.06-2.06h0ZM152.58,353.14c-1.14,0-2.06.92-2.06,2.06s.92,2.06,2.06,2.06,2.06-.92,2.06-2.06-.92-2.06-2.06-2.06h0ZM158.07,342.17c-1.14,0-2.06.92-2.06,2.06s.92,2.06,2.06,2.06,2.06-.92,2.06-2.06-.92-2.06-2.06-2.06h0ZM141.5,353.14c-1.14,0-2.06.92-2.06,2.06s.92,2.06,2.06,2.06,2.06-.92,2.06-2.06-.92-2.06-2.06-2.06h0ZM146.99,342.17c-1.14,0-2.06.92-2.06,2.06s.92,2.06,2.06,2.06,2.06-.92,2.06-2.06-.92-2.06-2.06-2.06h0ZM130.42,353.14c-1.14,0-2.06.92-2.06,2.06s.92,2.06,2.06,2.06,2.06-.92,2.06-2.06-.92-2.06-2.06-2.06h0ZM135.91,342.17c-1.14,0-2.06.92-2.06,2.06s.92,2.06,2.06,2.06,2.06-.92,2.06-2.06-.92-2.06-2.06-2.06h0ZM124.83,342.17c-1.14,0-2.06.92-2.06,2.06s.92,2.06,2.06,2.06,2.06-.92,2.06-2.06-.92-2.06-2.06-2.06h0ZM219.07,331.2c-1.14,0-2.06.92-2.06,2.06s.92,2.06,2.06,2.06,2.06-.92,2.06-2.06-.92-2.06-2.06-2.06h0ZM224.55,320.23c-1.14,0-2.06.92-2.06,2.06s.92,2.06,2.06,2.06,2.06-.92,2.06-2.06-.92-2.06-2.06-2.06h0ZM207.99,331.2c-1.14,0-2.06.92-2.06,2.06s.92,2.06,2.06,2.06,2.06-.92,2.06-2.06-.92-2.06-2.06-2.06h0ZM213.47,320.23c-1.14,0-2.06.92-2.06,2.06s.92,2.06,2.06,2.06,2.06-.92,2.06-2.06-.92-2.06-2.06-2.06h0ZM196.91,331.2c-1.14,0-2.06.92-2.06,2.06s.92,2.06,2.06,2.06,2.06-.92,2.06-2.06-.92-2.06-2.06-2.06h0ZM202.39,320.23c-1.14,0-2.06.92-2.06,2.06s.92,2.06,2.06,2.06,2.06-.92,2.06-2.06-.92-2.06-2.06-2.06h0ZM185.83,331.2c-1.14,0-2.06.92-2.06,2.06s.92,2.06,2.06,2.06,2.06-.92,2.06-2.06-.92-2.06-2.06-2.06h0ZM191.31,320.23c-1.14,0-2.06.92-2.06,2.06s.92,2.06,2.06,2.06,2.06-.92,2.06-2.06-.92-2.06-2.06-2.06h0ZM174.75,331.2c-1.14,0-2.06.92-2.06,2.06s.92,2.06,2.06,2.06,2.06-.92,2.06-2.06-.92-2.06-2.06-2.06h0ZM180.23,320.23c-1.14,0-2.06.92-2.06,2.06s.92,2.06,2.06,2.06,2.06-.92,2.06-2.06-.92-2.06-2.06-2.06h0ZM163.66,331.2c-1.14,0-2.06.92-2.06,2.06s.92,2.06,2.06,2.06,2.06-.92,2.06-2.06-.92-2.06-2.06-2.06h0ZM169.15,320.23c-1.14,0-2.06.92-2.06,2.06s.92,2.06,2.06,2.06,2.06-.92,2.06-2.06-.92-2.06-2.06-2.06h0ZM152.58,331.2c-1.14,0-2.06.92-2.06,2.06s.92,2.06,2.06,2.06,2.06-.92,2.06-2.06-.92-2.06-2.06-2.06h0ZM158.07,320.23c-1.14,0-2.06.92-2.06,2.06s.92,2.06,2.06,2.06,2.06-.92,2.06-2.06-.92-2.06-2.06-2.06h0ZM141.5,331.2c-1.14,0-2.06.92-2.06,2.06s.92,2.06,2.06,2.06,2.06-.92,2.06-2.06-.92-2.06-2.06-2.06h0ZM146.99,320.23c-1.14,0-2.06.92-2.06,2.06s.92,2.06,2.06,2.06,2.06-.92,2.06-2.06-.92-2.06-2.06-2.06h0ZM130.42,331.2c-1.14,0-2.06.92-2.06,2.06s.92,2.06,2.06,2.06,2.06-.92,2.06-2.06-.92-2.06-2.06-2.06h0ZM135.91,320.23c-1.14,0-2.06.92-2.06,2.06s.92,2.06,2.06,2.06,2.06-.92,2.06-2.06-.92-2.06-2.06-2.06h0ZM124.83,320.23c-1.14,0-2.06.92-2.06,2.06s.92,2.06,2.06,2.06,2.06-.92,2.06-2.06-.92-2.06-2.06-2.06h0ZM219.07,309.26c-1.14,0-2.06.92-2.06,2.06s.92,2.06,2.06,2.06,2.06-.92,2.06-2.06-.92-2.06-2.06-2.06h0ZM224.55,298.29c-1.14,0-2.06.92-2.06,2.06s.92,2.06,2.06,2.06,2.06-.92,2.06-2.06-.92-2.06-2.06-2.06h0ZM207.99,309.26c-1.14,0-2.06.92-2.06,2.06s.92,2.06,2.06,2.06,2.06-.92,2.06-2.06-.92-2.06-2.06-2.06h0ZM213.47,298.29c-1.14,0-2.06.92-2.06,2.06s.92,2.06,2.06,2.06,2.06-.92,2.06-2.06-.92-2.06-2.06-2.06h0ZM196.91,309.26c-1.14,0-2.06.92-2.06,2.06s.92,2.06,2.06,2.06,2.06-.92,2.06-2.06-.92-2.06-2.06-2.06h0ZM202.39,298.29c-1.14,0-2.06.92-2.06,2.06s.92,2.06,2.06,2.06,2.06-.92,2.06-2.06-.92-2.06-2.06-2.06h0ZM185.83,309.26c-1.14,0-2.06.92-2.06,2.06s.92,2.06,2.06,2.06,2.06-.92,2.06-2.06-.92-2.06-2.06-2.06h0ZM191.31,298.29c-1.14,0-2.06.92-2.06,2.06s.92,2.06,2.06,2.06,2.06-.92,2.06-2.06-.92-2.06-2.06-2.06h0ZM174.75,309.26c-1.14,0-2.06.92-2.06,2.06s.92,2.06,2.06,2.06,2.06-.92,2.06-2.06-.92-2.06-2.06-2.06h0ZM180.23,298.29c-1.14,0-2.06.92-2.06,2.06s.92,2.06,2.06,2.06,2.06-.92,2.06-2.06-.92-2.06-2.06-2.06h0ZM163.66,309.26c-1.14,0-2.06.92-2.06,2.06s.92,2.06,2.06,2.06,2.06-.92,2.06-2.06-.92-2.06-2.06-2.06h0ZM169.15,298.29c-1.14,0-2.06.92-2.06,2.06s.92,2.06,2.06,2.06,2.06-.92,2.06-2.06-.92-2.06-2.06-2.06h0ZM152.58,309.26c-1.14,0-2.06.92-2.06,2.06s.92,2.06,2.06,2.06,2.06-.92,2.06-2.06-.92-2.06-2.06-2.06h0ZM158.07,298.29c-1.14,0-2.06.92-2.06,2.06s.92,2.06,2.06,2.06,2.06-.92,2.06-2.06-.92-2.06-2.06-2.06h0ZM141.5,309.26c-1.14,0-2.06.92-2.06,2.06s.92,2.06,2.06,2.06,2.06-.92,2.06-2.06-.92-2.06-2.06-2.06h0ZM146.99,298.29c-1.14,0-2.06.92-2.06,2.06s.92,2.06,2.06,2.06,2.06-.92,2.06-2.06-.92-2.06-2.06-2.06h0ZM130.42,309.26c-1.14,0-2.06.92-2.06,2.06s.92,2.06,2.06,2.06,2.06-.92,2.06-2.06-.92-2.06-2.06-2.06h0ZM135.91,298.29c-1.14,0-2.06.92-2.06,2.06s.92,2.06,2.06,2.06,2.06-.92,2.06-2.06-.92-2.06-2.06-2.06h0ZM124.83,298.29c-1.14,0-2.06.92-2.06,2.06s.92,2.06,2.06,2.06,2.06-.92,2.06-2.06-.92-2.06-2.06-2.06h0ZM219.07,287.32c-1.14,0-2.06.92-2.06,2.06s.92,2.06,2.06,2.06,2.06-.92,2.06-2.06-.92-2.06-2.06-2.06h0ZM224.55,276.35c-1.14,0-2.06.92-2.06,2.06s.92,2.06,2.06,2.06,2.06-.92,2.06-2.06-.92-2.06-2.06-2.06h0ZM207.99,287.32c-1.14,0-2.06.92-2.06,2.06s.92,2.06,2.06,2.06,2.06-.92,2.06-2.06-.92-2.06-2.06-2.06h0ZM213.47,276.35c-1.14,0-2.06.92-2.06,2.06s.92,2.06,2.06,2.06,2.06-.92,2.06-2.06-.92-2.06-2.06-2.06h0ZM196.91,287.32c-1.14,0-2.06.92-2.06,2.06s.92,2.06,2.06,2.06,2.06-.92,2.06-2.06-.92-2.06-2.06-2.06h0ZM202.39,276.35c-1.14,0-2.06.92-2.06,2.06s.92,2.06,2.06,2.06,2.06-.92,2.06-2.06-.92-2.06-2.06-2.06h0ZM185.83,287.32c-1.14,0-2.06.92-2.06,2.06s.92,2.06,2.06,2.06,2.06-.92,2.06-2.06-.92-2.06-2.06-2.06h0ZM191.31,276.35c-1.14,0-2.06.92-2.06,2.06s.92,2.06,2.06,2.06,2.06-.92,2.06-2.06-.92-2.06-2.06-2.06h0ZM174.75,287.32c-1.14,0-2.06.92-2.06,2.06s.92,2.06,2.06,2.06,2.06-.92,2.06-2.06-.92-2.06-2.06-2.06h0ZM180.23,276.35c-1.14,0-2.06.92-2.06,2.06s.92,2.06,2.06,2.06,2.06-.92,2.06-2.06-.92-2.06-2.06-2.06h0ZM163.66,287.32c-1.14,0-2.06.92-2.06,2.06s.92,2.06,2.06,2.06,2.06-.92,2.06-2.06-.92-2.06-2.06-2.06h0ZM169.15,276.35c-1.14,0-2.06.92-2.06,2.06s.92,2.06,2.06,2.06,2.06-.92,2.06-2.06-.92-2.06-2.06-2.06h0ZM152.58,287.32c-1.14,0-2.06.92-2.06,2.06s.92,2.06,2.06,2.06,2.06-.92,2.06-2.06-.92-2.06-2.06-2.06h0ZM158.07,276.35c-1.14,0-2.06.92-2.06,2.06s.92,2.06,2.06,2.06,2.06-.92,2.06-2.06-.92-2.06-2.06-2.06h0ZM141.5,287.32c-1.14,0-2.06.92-2.06,2.06s.92,2.06,2.06,2.06,2.06-.92,2.06-2.06-.92-2.06-2.06-2.06h0ZM146.99,276.35c-1.14,0-2.06.92-2.06,2.06s.92,2.06,2.06,2.06,2.06-.92,2.06-2.06-.92-2.06-2.06-2.06h0ZM130.42,287.32c-1.14,0-2.06.92-2.06,2.06s.92,2.06,2.06,2.06,2.06-.92,2.06-2.06-.92-2.06-2.06-2.06h0ZM135.91,276.35c-1.14,0-2.06.92-2.06,2.06s.92,2.06,2.06,2.06,2.06-.92,2.06-2.06-.92-2.06-2.06-2.06h0ZM124.83,276.35c-1.14,0-2.06.92-2.06,2.06s.92,2.06,2.06,2.06,2.06-.92,2.06-2.06-.92-2.06-2.06-2.06h0ZM219.07,265.38c-1.14,0-2.06.92-2.06,2.06s.92,2.06,2.06,2.06,2.06-.92,2.06-2.06-.92-2.06-2.06-2.06h0ZM224.55,254.41c-1.14,0-2.06.92-2.06,2.06s.92,2.06,2.06,2.06,2.06-.92,2.06-2.06-.92-2.06-2.06-2.06h0ZM207.99,265.38c-1.14,0-2.06.92-2.06,2.06s.92,2.06,2.06,2.06,2.06-.92,2.06-2.06-.92-2.06-2.06-2.06h0ZM213.47,254.41c-1.14,0-2.06.92-2.06,2.06s.92,2.06,2.06,2.06,2.06-.92,2.06-2.06-.92-2.06-2.06-2.06h0ZM196.91,265.38c-1.14,0-2.06.92-2.06,2.06s.92,2.06,2.06,2.06,2.06-.92,2.06-2.06-.92-2.06-2.06-2.06h0ZM202.39,254.41c-1.14,0-2.06.92-2.06,2.06s.92,2.06,2.06,2.06,2.06-.92,2.06-2.06-.92-2.06-2.06-2.06h0ZM185.83,265.38c-1.14,0-2.06.92-2.06,2.06s.92,2.06,2.06,2.06,2.06-.92,2.06-2.06-.92-2.06-2.06-2.06h0ZM191.31,254.41c-1.14,0-2.06.92-2.06,2.06s.92,2.06,2.06,2.06,2.06-.92,2.06-2.06-.92-2.06-2.06-2.06h0ZM174.75,265.38c-1.14,0-2.06.92-2.06,2.06s.92,2.06,2.06,2.06,2.06-.92,2.06-2.06-.92-2.06-2.06-2.06h0ZM180.23,254.41c-1.14,0-2.06.92-2.06,2.06s.92,2.06,2.06,2.06,2.06-.92,2.06-2.06-.92-2.06-2.06-2.06h0ZM163.66,265.38c-1.14,0-2.06.92-2.06,2.06s.92,2.06,2.06,2.06,2.06-.92,2.06-2.06-.92-2.06-2.06-2.06h0ZM169.15,254.41c-1.14,0-2.06.92-2.06,2.06s.92,2.06,2.06,2.06,2.06-.92,2.06-2.06-.92-2.06-2.06-2.06h0ZM152.58,265.38c-1.14,0-2.06.92-2.06,2.06s.92,2.06,2.06,2.06,2.06-.92,2.06-2.06-.92-2.06-2.06-2.06h0ZM158.07,254.41c-1.14,0-2.06.92-2.06,2.06s.92,2.06,2.06,2.06,2.06-.92,2.06-2.06-.92-2.06-2.06-2.06h0ZM141.5,265.38c-1.14,0-2.06.92-2.06,2.06s.92,2.06,2.06,2.06,2.06-.92,2.06-2.06-.92-2.06-2.06-2.06h0ZM146.99,254.41c-1.14,0-2.06.92-2.06,2.06s.92,2.06,2.06,2.06,2.06-.92,2.06-2.06-.92-2.06-2.06-2.06h0ZM130.42,265.38c-1.14,0-2.06.92-2.06,2.06s.92,2.06,2.06,2.06,2.06-.92,2.06-2.06-.92-2.06-2.06-2.06h0ZM135.91,254.41c-1.14,0-2.06.92-2.06,2.06s.92,2.06,2.06,2.06,2.06-.92,2.06-2.06-.92-2.06-2.06-2.06h0ZM124.83,254.41c-1.14,0-2.06.92-2.06,2.06s.92,2.06,2.06,2.06,2.06-.92,2.06-2.06-.92-2.06-2.06-2.06h0ZM219.07,243.43c-1.14,0-2.06.92-2.06,2.06s.92,2.06,2.06,2.06,2.06-.92,2.06-2.06-.92-2.06-2.06-2.06h0ZM224.55,232.46c-1.14,0-2.06.92-2.06,2.06s.92,2.06,2.06,2.06,2.06-.92,2.06-2.06-.92-2.06-2.06-2.06h0ZM207.99,243.43c-1.14,0-2.06.92-2.06,2.06s.92,2.06,2.06,2.06,2.06-.92,2.06-2.06-.92-2.06-2.06-2.06h0ZM213.47,232.46c-1.14,0-2.06.92-2.06,2.06s.92,2.06,2.06,2.06,2.06-.92,2.06-2.06-.92-2.06-2.06-2.06h0ZM196.91,243.43c-1.14,0-2.06.92-2.06,2.06s.92,2.06,2.06,2.06,2.06-.92,2.06-2.06-.92-2.06-2.06-2.06h0ZM202.39,232.46c-1.14,0-2.06.92-2.06,2.06s.92,2.06,2.06,2.06,2.06-.92,2.06-2.06-.92-2.06-2.06-2.06h0ZM185.83,243.43c-1.14,0-2.06.92-2.06,2.06s.92,2.06,2.06,2.06,2.06-.92,2.06-2.06-.92-2.06-2.06-2.06h0ZM191.31,232.46c-1.14,0-2.06.92-2.06,2.06s.92,2.06,2.06,2.06,2.06-.92,2.06-2.06-.92-2.06-2.06-2.06h0ZM174.75,243.43c-1.14,0-2.06.92-2.06,2.06s.92,2.06,2.06,2.06,2.06-.92,2.06-2.06-.92-2.06-2.06-2.06h0ZM180.23,232.46c-1.14,0-2.06.92-2.06,2.06s.92,2.06,2.06,2.06,2.06-.92,2.06-2.06-.92-2.06-2.06-2.06h0ZM163.66,243.43c-1.14,0-2.06.92-2.06,2.06s.92,2.06,2.06,2.06,2.06-.92,2.06-2.06-.92-2.06-2.06-2.06h0ZM169.15,232.46c-1.14,0-2.06.92-2.06,2.06s.92,2.06,2.06,2.06,2.06-.92,2.06-2.06-.92-2.06-2.06-2.06h0ZM152.58,243.43c-1.14,0-2.06.92-2.06,2.06s.92,2.06,2.06,2.06,2.06-.92,2.06-2.06-.92-2.06-2.06-2.06h0ZM158.07,232.46c-1.14,0-2.06.92-2.06,2.06s.92,2.06,2.06,2.06,2.06-.92,2.06-2.06-.92-2.06-2.06-2.06h0ZM141.5,243.43c-1.14,0-2.06.92-2.06,2.06s.92,2.06,2.06,2.06,2.06-.92,2.06-2.06-.92-2.06-2.06-2.06h0ZM146.99,232.46c-1.14,0-2.06.92-2.06,2.06s.92,2.06,2.06,2.06,2.06-.92,2.06-2.06-.92-2.06-2.06-2.06h0ZM130.42,243.43c-1.14,0-2.06.92-2.06,2.06s.92,2.06,2.06,2.06,2.06-.92,2.06-2.06-.92-2.06-2.06-2.06h0ZM135.91,232.46c-1.14,0-2.06.92-2.06,2.06s.92,2.06,2.06,2.06,2.06-.92,2.06-2.06-.92-2.06-2.06-2.06h0ZM124.83,232.46c-1.14,0-2.06.92-2.06,2.06s.92,2.06,2.06,2.06,2.06-.92,2.06-2.06-.92-2.06-2.06-2.06h0ZM219.07,221.49c-1.14,0-2.06.92-2.06,2.06s.92,2.06,2.06,2.06,2.06-.92,2.06-2.06-.92-2.06-2.06-2.06h0ZM224.55,210.52c-1.14,0-2.06.92-2.06,2.06s.92,2.06,2.06,2.06,2.06-.92,2.06-2.06-.92-2.06-2.06-2.06h0ZM207.99,221.49c-1.14,0-2.06.92-2.06,2.06s.92,2.06,2.06,2.06,2.06-.92,2.06-2.06-.92-2.06-2.06-2.06h0ZM213.47,210.52c-1.14,0-2.06.92-2.06,2.06s.92,2.06,2.06,2.06,2.06-.92,2.06-2.06-.92-2.06-2.06-2.06h0ZM196.91,221.49c-1.14,0-2.06.92-2.06,2.06s.92,2.06,2.06,2.06,2.06-.92,2.06-2.06-.92-2.06-2.06-2.06h0ZM202.39,210.52c-1.14,0-2.06.92-2.06,2.06s.92,2.06,2.06,2.06,2.06-.92,2.06-2.06-.92-2.06-2.06-2.06h0ZM185.83,221.49c-1.14,0-2.06.92-2.06,2.06s.92,2.06,2.06,2.06,2.06-.92,2.06-2.06-.92-2.06-2.06-2.06h0ZM191.31,210.52c-1.14,0-2.06.92-2.06,2.06s.92,2.06,2.06,2.06,2.06-.92,2.06-2.06-.92-2.06-2.06-2.06h0ZM174.75,221.49c-1.14,0-2.06.92-2.06,2.06s.92,2.06,2.06,2.06,2.06-.92,2.06-2.06-.92-2.06-2.06-2.06h0ZM180.23,210.52c-1.14,0-2.06.92-2.06,2.06s.92,2.06,2.06,2.06,2.06-.92,2.06-2.06-.92-2.06-2.06-2.06h0ZM163.66,221.49c-1.14,0-2.06.92-2.06,2.06s.92,2.06,2.06,2.06,2.06-.92,2.06-2.06-.92-2.06-2.06-2.06h0ZM169.15,210.52c-1.14,0-2.06.92-2.06,2.06s.92,2.06,2.06,2.06,2.06-.92,2.06-2.06-.92-2.06-2.06-2.06h0ZM152.58,221.49c-1.14,0-2.06.92-2.06,2.06s.92,2.06,2.06,2.06,2.06-.92,2.06-2.06-.92-2.06-2.06-2.06h0ZM158.07,210.52c-1.14,0-2.06.92-2.06,2.06s.92,2.06,2.06,2.06,2.06-.92,2.06-2.06-.92-2.06-2.06-2.06h0ZM141.5,221.49c-1.14,0-2.06.92-2.06,2.06s.92,2.06,2.06,2.06,2.06-.92,2.06-2.06-.92-2.06-2.06-2.06h0ZM146.99,210.52c-1.14,0-2.06.92-2.06,2.06s.92,2.06,2.06,2.06,2.06-.92,2.06-2.06-.92-2.06-2.06-2.06h0ZM130.42,221.49c-1.14,0-2.06.92-2.06,2.06s.92,2.06,2.06,2.06,2.06-.92,2.06-2.06-.92-2.06-2.06-2.06h0ZM135.91,210.52c-1.14,0-2.06.92-2.06,2.06s.92,2.06,2.06,2.06,2.06-.92,2.06-2.06-.92-2.06-2.06-2.06h0ZM124.83,210.52c-1.14,0-2.06.92-2.06,2.06s.92,2.06,2.06,2.06,2.06-.92,2.06-2.06-.92-2.06-2.06-2.06h0ZM219.07,199.55c-1.14,0-2.06.92-2.06,2.06s.92,2.06,2.06,2.06,2.06-.92,2.06-2.06-.92-2.06-2.06-2.06h0ZM224.55,188.58c-1.14,0-2.06.92-2.06,2.06s.92,2.06,2.06,2.06,2.06-.92,2.06-2.06-.92-2.06-2.06-2.06h0ZM207.99,199.55c-1.14,0-2.06.92-2.06,2.06s.92,2.06,2.06,2.06,2.06-.92,2.06-2.06-.92-2.06-2.06-2.06h0ZM213.47,188.58c-1.14,0-2.06.92-2.06,2.06s.92,2.06,2.06,2.06,2.06-.92,2.06-2.06-.92-2.06-2.06-2.06h0ZM196.91,199.55c-1.14,0-2.06.92-2.06,2.06s.92,2.06,2.06,2.06,2.06-.92,2.06-2.06-.92-2.06-2.06-2.06h0ZM202.39,188.58c-1.14,0-2.06.92-2.06,2.06s.92,2.06,2.06,2.06,2.06-.92,2.06-2.06-.92-2.06-2.06-2.06h0ZM185.83,199.55c-1.14,0-2.06.92-2.06,2.06s.92,2.06,2.06,2.06,2.06-.92,2.06-2.06-.92-2.06-2.06-2.06h0ZM191.31,188.58c-1.14,0-2.06.92-2.06,2.06s.92,2.06,2.06,2.06,2.06-.92,2.06-2.06-.92-2.06-2.06-2.06h0ZM174.75,199.55c-1.14,0-2.06.92-2.06,2.06s.92,2.06,2.06,2.06,2.06-.92,2.06-2.06-.92-2.06-2.06-2.06h0ZM180.23,188.58c-1.14,0-2.06.92-2.06,2.06s.92,2.06,2.06,2.06,2.06-.92,2.06-2.06-.92-2.06-2.06-2.06h0ZM163.66,199.55c-1.14,0-2.06.92-2.06,2.06s.92,2.06,2.06,2.06,2.06-.92,2.06-2.06-.92-2.06-2.06-2.06h0ZM169.15,188.58c-1.14,0-2.06.92-2.06,2.06s.92,2.06,2.06,2.06,2.06-.92,2.06-2.06-.92-2.06-2.06-2.06h0ZM152.58,199.55c-1.14,0-2.06.92-2.06,2.06s.92,2.06,2.06,2.06,2.06-.92,2.06-2.06-.92-2.06-2.06-2.06h0ZM158.07,188.58c-1.14,0-2.06.92-2.06,2.06s.92,2.06,2.06,2.06,2.06-.92,2.06-2.06-.92-2.06-2.06-2.06h0ZM141.5,199.55c-1.14,0-2.06.92-2.06,2.06s.92,2.06,2.06,2.06,2.06-.92,2.06-2.06-.92-2.06-2.06-2.06h0ZM146.99,188.58c-1.14,0-2.06.92-2.06,2.06s.92,2.06,2.06,2.06,2.06-.92,2.06-2.06-.92-2.06-2.06-2.06h0ZM130.42,199.55c-1.14,0-2.06.92-2.06,2.06s.92,2.06,2.06,2.06,2.06-.92,2.06-2.06-.92-2.06-2.06-2.06h0ZM135.91,188.58c-1.14,0-2.06.92-2.06,2.06s.92,2.06,2.06,2.06,2.06-.92,2.06-2.06-.92-2.06-2.06-2.06h0ZM124.83,188.58c-1.14,0-2.06.92-2.06,2.06s.92,2.06,2.06,2.06,2.06-.92,2.06-2.06-.92-2.06-2.06-2.06h0ZM219.07,177.61c-1.14,0-2.06.92-2.06,2.06s.92,2.06,2.06,2.06,2.06-.92,2.06-2.06-.92-2.06-2.06-2.06h0ZM224.55,166.64c-1.14,0-2.06.92-2.06,2.06s.92,2.06,2.06,2.06,2.06-.92,2.06-2.06-.92-2.06-2.06-2.06h0ZM207.99,177.61c-1.14,0-2.06.92-2.06,2.06s.92,2.06,2.06,2.06,2.06-.92,2.06-2.06-.92-2.06-2.06-2.06h0ZM213.47,166.64c-1.14,0-2.06.92-2.06,2.06s.92,2.06,2.06,2.06,2.06-.92,2.06-2.06-.92-2.06-2.06-2.06h0ZM196.91,177.61c-1.14,0-2.06.92-2.06,2.06s.92,2.06,2.06,2.06,2.06-.92,2.06-2.06-.92-2.06-2.06-2.06h0ZM202.39,166.64c-1.14,0-2.06.92-2.06,2.06s.92,2.06,2.06,2.06,2.06-.92,2.06-2.06-.92-2.06-2.06-2.06h0ZM185.83,177.61c-1.14,0-2.06.92-2.06,2.06s.92,2.06,2.06,2.06,2.06-.92,2.06-2.06-.92-2.06-2.06-2.06h0ZM191.31,166.64c-1.14,0-2.06.92-2.06,2.06s.92,2.06,2.06,2.06,2.06-.92,2.06-2.06-.92-2.06-2.06-2.06h0ZM174.75,177.61c-1.14,0-2.06.92-2.06,2.06s.92,2.06,2.06,2.06,2.06-.92,2.06-2.06-.92-2.06-2.06-2.06h0ZM180.23,166.64c-1.14,0-2.06.92-2.06,2.06s.92,2.06,2.06,2.06,2.06-.92,2.06-2.06-.92-2.06-2.06-2.06h0ZM163.66,177.61c-1.14,0-2.06.92-2.06,2.06s.92,2.06,2.06,2.06,2.06-.92,2.06-2.06-.92-2.06-2.06-2.06h0ZM169.15,166.64c-1.14,0-2.06.92-2.06,2.06s.92,2.06,2.06,2.06,2.06-.92,2.06-2.06-.92-2.06-2.06-2.06h0ZM152.58,177.61c-1.14,0-2.06.92-2.06,2.06s.92,2.06,2.06,2.06,2.06-.92,2.06-2.06-.92-2.06-2.06-2.06h0ZM158.07,166.64c-1.14,0-2.06.92-2.06,2.06s.92,2.06,2.06,2.06,2.06-.92,2.06-2.06-.92-2.06-2.06-2.06h0ZM141.5,177.61c-1.14,0-2.06.92-2.06,2.06s.92,2.06,2.06,2.06,2.06-.92,2.06-2.06-.92-2.06-2.06-2.06h0ZM146.99,166.64c-1.14,0-2.06.92-2.06,2.06s.92,2.06,2.06,2.06,2.06-.92,2.06-2.06-.92-2.06-2.06-2.06h0ZM130.42,177.61c-1.14,0-2.06.92-2.06,2.06s.92,2.06,2.06,2.06,2.06-.92,2.06-2.06-.92-2.06-2.06-2.06h0ZM135.91,166.64c-1.14,0-2.06.92-2.06,2.06s.92,2.06,2.06,2.06,2.06-.92,2.06-2.06-.92-2.06-2.06-2.06h0ZM124.83,166.64c-1.14,0-2.06.92-2.06,2.06s.92,2.06,2.06,2.06,2.06-.92,2.06-2.06-.92-2.06-2.06-2.06h0ZM219.07,155.67c-1.14,0-2.06.92-2.06,2.06s.92,2.06,2.06,2.06,2.06-.92,2.06-2.06-.92-2.06-2.06-2.06h0ZM224.55,144.7c-1.14,0-2.06.92-2.06,2.06s.92,2.06,2.06,2.06,2.06-.92,2.06-2.06-.92-2.06-2.06-2.06h0ZM207.99,155.67c-1.14,0-2.06.92-2.06,2.06s.92,2.06,2.06,2.06,2.06-.92,2.06-2.06-.92-2.06-2.06-2.06h0ZM213.47,144.7c-1.14,0-2.06.92-2.06,2.06s.92,2.06,2.06,2.06,2.06-.92,2.06-2.06-.92-2.06-2.06-2.06h0ZM196.91,155.67c-1.14,0-2.06.92-2.06,2.06s.92,2.06,2.06,2.06,2.06-.92,2.06-2.06-.92-2.06-2.06-2.06h0ZM202.39,144.7c-1.14,0-2.06.92-2.06,2.06s.92,2.06,2.06,2.06,2.06-.92,2.06-2.06-.92-2.06-2.06-2.06h0ZM185.83,155.67c-1.14,0-2.06.92-2.06,2.06s.92,2.06,2.06,2.06,2.06-.92,2.06-2.06-.92-2.06-2.06-2.06h0ZM191.31,144.7c-1.14,0-2.06.92-2.06,2.06s.92,2.06,2.06,2.06,2.06-.92,2.06-2.06-.92-2.06-2.06-2.06h0ZM174.75,155.67c-1.14,0-2.06.92-2.06,2.06s.92,2.06,2.06,2.06,2.06-.92,2.06-2.06-.92-2.06-2.06-2.06h0ZM180.23,144.7c-1.14,0-2.06.92-2.06,2.06s.92,2.06,2.06,2.06,2.06-.92,2.06-2.06-.92-2.06-2.06-2.06h0ZM163.66,155.67c-1.14,0-2.06.92-2.06,2.06s.92,2.06,2.06,2.06,2.06-.92,2.06-2.06-.92-2.06-2.06-2.06h0ZM169.15,144.7c-1.14,0-2.06.92-2.06,2.06s.92,2.06,2.06,2.06,2.06-.92,2.06-2.06-.92-2.06-2.06-2.06h0ZM152.58,155.67c-1.14,0-2.06.92-2.06,2.06s.92,2.06,2.06,2.06,2.06-.92,2.06-2.06-.92-2.06-2.06-2.06h0ZM158.07,144.7c-1.14,0-2.06.92-2.06,2.06s.92,2.06,2.06,2.06,2.06-.92,2.06-2.06-.92-2.06-2.06-2.06h0ZM141.5,155.67c-1.14,0-2.06.92-2.06,2.06s.92,2.06,2.06,2.06,2.06-.92,2.06-2.06-.92-2.06-2.06-2.06h0ZM146.99,144.7c-1.14,0-2.06.92-2.06,2.06s.92,2.06,2.06,2.06,2.06-.92,2.06-2.06-.92-2.06-2.06-2.06h0ZM130.42,155.67c-1.14,0-2.06.92-2.06,2.06s.92,2.06,2.06,2.06,2.06-.92,2.06-2.06-.92-2.06-2.06-2.06h0ZM135.91,144.7c-1.14,0-2.06.92-2.06,2.06s.92,2.06,2.06,2.06,2.06-.92,2.06-2.06-.92-2.06-2.06-2.06h0ZM124.83,144.7c-1.14,0-2.06.92-2.06,2.06s.92,2.06,2.06,2.06,2.06-.92,2.06-2.06-.92-2.06-2.06-2.06h0ZM219.07,133.73c-1.14,0-2.06.92-2.06,2.06s.92,2.06,2.06,2.06,2.06-.92,2.06-2.06-.92-2.06-2.06-2.06h0ZM224.55,122.75c-1.14,0-2.06.92-2.06,2.06s.92,2.06,2.06,2.06,2.06-.92,2.06-2.06-.92-2.06-2.06-2.06h0ZM207.99,133.73c-1.14,0-2.06.92-2.06,2.06s.92,2.06,2.06,2.06,2.06-.92,2.06-2.06-.92-2.06-2.06-2.06h0ZM213.47,122.75c-1.14,0-2.06.92-2.06,2.06s.92,2.06,2.06,2.06,2.06-.92,2.06-2.06-.92-2.06-2.06-2.06h0ZM196.91,133.73c-1.14,0-2.06.92-2.06,2.06s.92,2.06,2.06,2.06,2.06-.92,2.06-2.06-.92-2.06-2.06-2.06h0ZM202.39,122.75c-1.14,0-2.06.92-2.06,2.06s.92,2.06,2.06,2.06,2.06-.92,2.06-2.06-.92-2.06-2.06-2.06h0ZM185.83,133.73c-1.14,0-2.06.92-2.06,2.06s.92,2.06,2.06,2.06,2.06-.92,2.06-2.06-.92-2.06-2.06-2.06h0ZM191.31,122.75c-1.14,0-2.06.92-2.06,2.06s.92,2.06,2.06,2.06,2.06-.92,2.06-2.06-.92-2.06-2.06-2.06h0ZM174.75,133.73c-1.14,0-2.06.92-2.06,2.06s.92,2.06,2.06,2.06,2.06-.92,2.06-2.06-.92-2.06-2.06-2.06h0ZM180.23,122.75c-1.14,0-2.06.92-2.06,2.06s.92,2.06,2.06,2.06,2.06-.92,2.06-2.06-.92-2.06-2.06-2.06h0ZM163.66,133.73c-1.14,0-2.06.92-2.06,2.06s.92,2.06,2.06,2.06,2.06-.92,2.06-2.06-.92-2.06-2.06-2.06h0ZM169.15,122.75c-1.14,0-2.06.92-2.06,2.06s.92,2.06,2.06,2.06,2.06-.92,2.06-2.06-.92-2.06-2.06-2.06h0ZM152.58,133.73c-1.14,0-2.06.92-2.06,2.06s.92,2.06,2.06,2.06,2.06-.92,2.06-2.06-.92-2.06-2.06-2.06h0ZM158.07,122.75c-1.14,0-2.06.92-2.06,2.06s.92,2.06,2.06,2.06,2.06-.92,2.06-2.06-.92-2.06-2.06-2.06h0ZM141.5,133.73c-1.14,0-2.06.92-2.06,2.06s.92,2.06,2.06,2.06,2.06-.92,2.06-2.06-.92-2.06-2.06-2.06h0ZM146.99,122.75c-1.14,0-2.06.92-2.06,2.06s.92,2.06,2.06,2.06,2.06-.92,2.06-2.06-.92-2.06-2.06-2.06h0ZM130.42,133.73c-1.14,0-2.06.92-2.06,2.06s.92,2.06,2.06,2.06,2.06-.92,2.06-2.06-.92-2.06-2.06-2.06h0ZM135.91,122.75c-1.14,0-2.06.92-2.06,2.06s.92,2.06,2.06,2.06,2.06-.92,2.06-2.06-.92-2.06-2.06-2.06h0ZM124.83,122.75c-1.14,0-2.06.92-2.06,2.06s.92,2.06,2.06,2.06,2.06-.92,2.06-2.06-.92-2.06-2.06-2.06h0ZM219.07,111.78c-1.14,0-2.06.92-2.06,2.06s.92,2.06,2.06,2.06,2.06-.92,2.06-2.06-.92-2.06-2.06-2.06h0ZM224.55,100.81c-1.14,0-2.06.92-2.06,2.06s.92,2.06,2.06,2.06,2.06-.92,2.06-2.06-.92-2.06-2.06-2.06h0ZM207.99,111.78c-1.14,0-2.06.92-2.06,2.06s.92,2.06,2.06,2.06,2.06-.92,2.06-2.06-.92-2.06-2.06-2.06h0ZM213.47,100.81c-1.14,0-2.06.92-2.06,2.06s.92,2.06,2.06,2.06,2.06-.92,2.06-2.06-.92-2.06-2.06-2.06h0ZM196.91,111.78c-1.14,0-2.06.92-2.06,2.06s.92,2.06,2.06,2.06,2.06-.92,2.06-2.06-.92-2.06-2.06-2.06h0ZM202.39,100.81c-1.14,0-2.06.92-2.06,2.06s.92,2.06,2.06,2.06,2.06-.92,2.06-2.06-.92-2.06-2.06-2.06h0ZM185.83,111.78c-1.14,0-2.06.92-2.06,2.06s.92,2.06,2.06,2.06,2.06-.92,2.06-2.06-.92-2.06-2.06-2.06h0ZM191.31,100.81c-1.14,0-2.06.92-2.06,2.06s.92,2.06,2.06,2.06,2.06-.92,2.06-2.06-.92-2.06-2.06-2.06h0ZM174.75,111.78c-1.14,0-2.06.92-2.06,2.06s.92,2.06,2.06,2.06,2.06-.92,2.06-2.06-.92-2.06-2.06-2.06h0ZM180.23,100.81c-1.14,0-2.06.92-2.06,2.06s.92,2.06,2.06,2.06,2.06-.92,2.06-2.06-.92-2.06-2.06-2.06h0ZM163.66,111.78c-1.14,0-2.06.92-2.06,2.06s.92,2.06,2.06,2.06,2.06-.92,2.06-2.06-.92-2.06-2.06-2.06h0ZM169.15,100.81c-1.14,0-2.06.92-2.06,2.06s.92,2.06,2.06,2.06,2.06-.92,2.06-2.06-.92-2.06-2.06-2.06h0ZM152.58,111.78c-1.14,0-2.06.92-2.06,2.06s.92,2.06,2.06,2.06,2.06-.92,2.06-2.06-.92-2.06-2.06-2.06h0ZM158.07,100.81c-1.14,0-2.06.92-2.06,2.06s.92,2.06,2.06,2.06,2.06-.92,2.06-2.06-.92-2.06-2.06-2.06h0ZM141.5,111.78c-1.14,0-2.06.92-2.06,2.06s.92,2.06,2.06,2.06,2.06-.92,2.06-2.06-.92-2.06-2.06-2.06h0ZM146.99,100.81c-1.14,0-2.06.92-2.06,2.06s.92,2.06,2.06,2.06,2.06-.92,2.06-2.06-.92-2.06-2.06-2.06h0ZM130.42,111.78c-1.14,0-2.06.92-2.06,2.06s.92,2.06,2.06,2.06,2.06-.92,2.06-2.06-.92-2.06-2.06-2.06h0ZM135.91,100.81c-1.14,0-2.06.92-2.06,2.06s.92,2.06,2.06,2.06,2.06-.92,2.06-2.06-.92-2.06-2.06-2.06h0ZM124.83,100.81c-1.14,0-2.06.92-2.06,2.06s.92,2.06,2.06,2.06,2.06-.92,2.06-2.06-.92-2.06-2.06-2.06h0ZM113.75,100.81c-1.14,0-2.06.92-2.06,2.06s.92,2.06,2.06,2.06,2.06-.92,2.06-2.06-.92-2.06-2.06-2.06h0ZM102.67,100.81c-1.14,0-2.06.92-2.06,2.06s.92,2.06,2.06,2.06,2.06-.92,2.06-2.06-.92-2.06-2.06-2.06h0ZM91.59,100.81c-1.14,0-2.06.92-2.06,2.06s.92,2.06,2.06,2.06,2.06-.92,2.06-2.06-.92-2.06-2.06-2.06h0ZM80.5,100.81c-1.14,0-2.06.92-2.06,2.06s.92,2.06,2.06,2.06,2.06-.92,2.06-2.06-.92-2.06-2.06-2.06h0ZM69.42,100.81c-1.14,0-2.06.92-2.06,2.06s.92,2.06,2.06,2.06,2.06-.92,2.06-2.06-.92-2.06-2.06-2.06h0ZM58.34,100.81c-1.14,0-2.06.92-2.06,2.06s.92,2.06,2.06,2.06,2.06-.92,2.06-2.06-.92-2.06-2.06-2.06h0ZM47.26,100.81c-1.14,0-2.06.92-2.06,2.06s.92,2.06,2.06,2.06,2.06-.92,2.06-2.06-.92-2.06-2.06-2.06h0ZM36.18,100.81c-1.14,0-2.06.92-2.06,2.06s.92,2.06,2.06,2.06,2.06-.92,2.06-2.06-.92-2.06-2.06-2.06h0ZM25.1,100.81c-1.14,0-2.06.92-2.06,2.06s.92,2.06,2.06,2.06,2.06-.92,2.06-2.06-.92-2.06-2.06-2.06h0ZM219.07,89.84c-1.14,0-2.06.92-2.06,2.06s.92,2.06,2.06,2.06,2.06-.92,2.06-2.06-.92-2.06-2.06-2.06h0ZM224.55,78.87c-1.14,0-2.06.92-2.06,2.06s.92,2.06,2.06,2.06,2.06-.92,2.06-2.06-.92-2.06-2.06-2.06h0ZM207.99,89.84c-1.14,0-2.06.92-2.06,2.06s.92,2.06,2.06,2.06,2.06-.92,2.06-2.06-.92-2.06-2.06-2.06h0ZM213.47,78.87c-1.14,0-2.06.92-2.06,2.06s.92,2.06,2.06,2.06,2.06-.92,2.06-2.06-.92-2.06-2.06-2.06h0ZM196.91,89.84c-1.14,0-2.06.92-2.06,2.06s.92,2.06,2.06,2.06,2.06-.92,2.06-2.06-.92-2.06-2.06-2.06h0ZM202.39,78.87c-1.14,0-2.06.92-2.06,2.06s.92,2.06,2.06,2.06,2.06-.92,2.06-2.06-.92-2.06-2.06-2.06h0ZM185.83,89.84c-1.14,0-2.06.92-2.06,2.06s.92,2.06,2.06,2.06,2.06-.92,2.06-2.06-.92-2.06-2.06-2.06h0ZM191.31,78.87c-1.14,0-2.06.92-2.06,2.06s.92,2.06,2.06,2.06,2.06-.92,2.06-2.06-.92-2.06-2.06-2.06h0ZM174.75,89.84c-1.14,0-2.06.92-2.06,2.06s.92,2.06,2.06,2.06,2.06-.92,2.06-2.06-.92-2.06-2.06-2.06h0ZM180.23,78.87c-1.14,0-2.06.92-2.06,2.06s.92,2.06,2.06,2.06,2.06-.92,2.06-2.06-.92-2.06-2.06-2.06h0ZM163.66,89.84c-1.14,0-2.06.92-2.06,2.06s.92,2.06,2.06,2.06,2.06-.92,2.06-2.06-.92-2.06-2.06-2.06h0ZM169.15,78.87c-1.14,0-2.06.92-2.06,2.06s.92,2.06,2.06,2.06,2.06-.92,2.06-2.06-.92-2.06-2.06-2.06h0ZM152.58,89.84c-1.14,0-2.06.92-2.06,2.06s.92,2.06,2.06,2.06,2.06-.92,2.06-2.06-.92-2.06-2.06-2.06h0ZM158.07,78.87c-1.14,0-2.06.92-2.06,2.06s.92,2.06,2.06,2.06,2.06-.92,2.06-2.06-.92-2.06-2.06-2.06h0ZM141.5,89.84c-1.14,0-2.06.92-2.06,2.06s.92,2.06,2.06,2.06,2.06-.92,2.06-2.06-.92-2.06-2.06-2.06h0ZM146.99,78.87c-1.14,0-2.06.92-2.06,2.06s.92,2.06,2.06,2.06,2.06-.92,2.06-2.06-.92-2.06-2.06-2.06h0ZM130.42,89.84c-1.14,0-2.06.92-2.06,2.06s.92,2.06,2.06,2.06,2.06-.92,2.06-2.06-.92-2.06-2.06-2.06h0ZM135.91,78.87c-1.14,0-2.06.92-2.06,2.06s.92,2.06,2.06,2.06,2.06-.92,2.06-2.06-.92-2.06-2.06-2.06h0ZM119.34,89.84c-1.14,0-2.06.92-2.06,2.06s.92,2.06,2.06,2.06,2.06-.92,2.06-2.06-.92-2.06-2.06-2.06h0ZM124.83,78.87c-1.14,0-2.06.92-2.06,2.06s.92,2.06,2.06,2.06,2.06-.92,2.06-2.06-.92-2.06-2.06-2.06h0ZM108.26,89.84c-1.14,0-2.06.92-2.06,2.06s.92,2.06,2.06,2.06,2.06-.92,2.06-2.06-.92-2.06-2.06-2.06h0ZM113.75,78.87c-1.14,0-2.06.92-2.06,2.06s.92,2.06,2.06,2.06,2.06-.92,2.06-2.06-.92-2.06-2.06-2.06h0ZM97.18,89.84c-1.14,0-2.06.92-2.06,2.06s.92,2.06,2.06,2.06,2.06-.92,2.06-2.06-.92-2.06-2.06-2.06h0ZM102.67,78.87c-1.14,0-2.06.92-2.06,2.06s.92,2.06,2.06,2.06,2.06-.92,2.06-2.06-.92-2.06-2.06-2.06h0ZM86.1,89.84c-1.14,0-2.06.92-2.06,2.06s.92,2.06,2.06,2.06,2.06-.92,2.06-2.06-.92-2.06-2.06-2.06h0ZM91.59,78.87c-1.14,0-2.06.92-2.06,2.06s.92,2.06,2.06,2.06,2.06-.92,2.06-2.06-.92-2.06-2.06-2.06h0ZM75.02,89.84c-1.14,0-2.06.92-2.06,2.06s.92,2.06,2.06,2.06,2.06-.92,2.06-2.06-.92-2.06-2.06-2.06h0ZM80.5,78.87c-1.14,0-2.06.92-2.06,2.06s.92,2.06,2.06,2.06,2.06-.92,2.06-2.06-.92-2.06-2.06-2.06h0ZM63.94,89.84c-1.14,0-2.06.92-2.06,2.06s.92,2.06,2.06,2.06,2.06-.92,2.06-2.06-.92-2.06-2.06-2.06h0ZM69.42,78.87c-1.14,0-2.06.92-2.06,2.06s.92,2.06,2.06,2.06,2.06-.92,2.06-2.06-.92-2.06-2.06-2.06h0ZM52.86,89.84c-1.14,0-2.06.92-2.06,2.06s.92,2.06,2.06,2.06,2.06-.92,2.06-2.06-.92-2.06-2.06-2.06h0ZM58.34,78.87c-1.14,0-2.06.92-2.06,2.06s.92,2.06,2.06,2.06,2.06-.92,2.06-2.06-.92-2.06-2.06-2.06h0ZM41.78,89.84c-1.14,0-2.06.92-2.06,2.06s.92,2.06,2.06,2.06,2.06-.92,2.06-2.06-.92-2.06-2.06-2.06h0ZM47.26,78.87c-1.14,0-2.06.92-2.06,2.06s.92,2.06,2.06,2.06,2.06-.92,2.06-2.06-.92-2.06-2.06-2.06h0ZM30.7,89.84c-1.14,0-2.06.92-2.06,2.06s.92,2.06,2.06,2.06,2.06-.92,2.06-2.06-.92-2.06-2.06-2.06h0ZM36.18,78.87c-1.14,0-2.06.92-2.06,2.06s.92,2.06,2.06,2.06,2.06-.92,2.06-2.06-.92-2.06-2.06-2.06h0ZM219.07,67.9c-1.14,0-2.06.92-2.06,2.06s.92,2.06,2.06,2.06,2.06-.92,2.06-2.06-.92-2.06-2.06-2.06h0ZM224.55,56.93c-1.14,0-2.06.92-2.06,2.06s.92,2.06,2.06,2.06,2.06-.92,2.06-2.06-.92-2.06-2.06-2.06h0ZM207.99,67.9c-1.14,0-2.06.92-2.06,2.06s.92,2.06,2.06,2.06,2.06-.92,2.06-2.06-.92-2.06-2.06-2.06h0ZM213.47,56.93c-1.14,0-2.06.92-2.06,2.06s.92,2.06,2.06,2.06,2.06-.92,2.06-2.06-.92-2.06-2.06-2.06h0ZM196.91,67.9c-1.14,0-2.06.92-2.06,2.06s.92,2.06,2.06,2.06,2.06-.92,2.06-2.06-.92-2.06-2.06-2.06h0ZM202.39,56.93c-1.14,0-2.06.92-2.06,2.06s.92,2.06,2.06,2.06,2.06-.92,2.06-2.06-.92-2.06-2.06-2.06h0ZM185.83,67.9c-1.14,0-2.06.92-2.06,2.06s.92,2.06,2.06,2.06,2.06-.92,2.06-2.06-.92-2.06-2.06-2.06h0ZM191.31,56.93c-1.14,0-2.06.92-2.06,2.06s.92,2.06,2.06,2.06,2.06-.92,2.06-2.06-.92-2.06-2.06-2.06h0ZM174.75,67.9c-1.14,0-2.06.92-2.06,2.06s.92,2.06,2.06,2.06,2.06-.92,2.06-2.06-.92-2.06-2.06-2.06h0ZM180.23,56.93c-1.14,0-2.06.92-2.06,2.06s.92,2.06,2.06,2.06,2.06-.92,2.06-2.06-.92-2.06-2.06-2.06h0ZM163.66,67.9c-1.14,0-2.06.92-2.06,2.06s.92,2.06,2.06,2.06,2.06-.92,2.06-2.06-.92-2.06-2.06-2.06h0ZM169.15,56.93c-1.14,0-2.06.92-2.06,2.06s.92,2.06,2.06,2.06,2.06-.92,2.06-2.06-.92-2.06-2.06-2.06h0ZM152.58,67.9c-1.14,0-2.06.92-2.06,2.06s.92,2.06,2.06,2.06,2.06-.92,2.06-2.06-.92-2.06-2.06-2.06h0ZM158.07,56.93c-1.14,0-2.06.92-2.06,2.06s.92,2.06,2.06,2.06,2.06-.92,2.06-2.06-.92-2.06-2.06-2.06h0ZM141.5,67.9c-1.14,0-2.06.92-2.06,2.06s.92,2.06,2.06,2.06,2.06-.92,2.06-2.06-.92-2.06-2.06-2.06h0ZM146.99,56.93c-1.14,0-2.06.92-2.06,2.06s.92,2.06,2.06,2.06,2.06-.92,2.06-2.06-.92-2.06-2.06-2.06h0ZM130.42,67.9c-1.14,0-2.06.92-2.06,2.06s.92,2.06,2.06,2.06,2.06-.92,2.06-2.06-.92-2.06-2.06-2.06h0ZM135.91,56.93c-1.14,0-2.06.92-2.06,2.06s.92,2.06,2.06,2.06,2.06-.92,2.06-2.06-.92-2.06-2.06-2.06h0ZM119.34,67.9c-1.14,0-2.06.92-2.06,2.06s.92,2.06,2.06,2.06,2.06-.92,2.06-2.06-.92-2.06-2.06-2.06h0ZM124.83,56.93c-1.14,0-2.06.92-2.06,2.06s.92,2.06,2.06,2.06,2.06-.92,2.06-2.06-.92-2.06-2.06-2.06h0ZM108.26,67.9c-1.14,0-2.06.92-2.06,2.06s.92,2.06,2.06,2.06,2.06-.92,2.06-2.06-.92-2.06-2.06-2.06h0ZM113.75,56.93c-1.14,0-2.06.92-2.06,2.06s.92,2.06,2.06,2.06,2.06-.92,2.06-2.06-.92-2.06-2.06-2.06h0ZM97.18,67.9c-1.14,0-2.06.92-2.06,2.06s.92,2.06,2.06,2.06,2.06-.92,2.06-2.06-.92-2.06-2.06-2.06h0ZM102.67,56.93c-1.14,0-2.06.92-2.06,2.06s.92,2.06,2.06,2.06,2.06-.92,2.06-2.06-.92-2.06-2.06-2.06h0ZM86.1,67.9c-1.14,0-2.06.92-2.06,2.06s.92,2.06,2.06,2.06,2.06-.92,2.06-2.06-.92-2.06-2.06-2.06h0ZM91.59,56.93c-1.14,0-2.06.92-2.06,2.06s.92,2.06,2.06,2.06,2.06-.92,2.06-2.06-.92-2.06-2.06-2.06h0ZM75.02,67.9c-1.14,0-2.06.92-2.06,2.06s.92,2.06,2.06,2.06,2.06-.92,2.06-2.06-.92-2.06-2.06-2.06h0ZM80.5,56.93c-1.14,0-2.06.92-2.06,2.06s.92,2.06,2.06,2.06,2.06-.92,2.06-2.06-.92-2.06-2.06-2.06h0ZM63.94,67.9c-1.14,0-2.06.92-2.06,2.06s.92,2.06,2.06,2.06,2.06-.92,2.06-2.06-.92-2.06-2.06-2.06h0ZM69.42,56.93c-1.14,0-2.06.92-2.06,2.06s.92,2.06,2.06,2.06,2.06-.92,2.06-2.06-.92-2.06-2.06-2.06h0ZM52.86,67.9c-1.14,0-2.06.92-2.06,2.06s.92,2.06,2.06,2.06,2.06-.92,2.06-2.06-.92-2.06-2.06-2.06h0ZM58.34,56.93c-1.14,0-2.06.92-2.06,2.06s.92,2.06,2.06,2.06,2.06-.92,2.06-2.06-.92-2.06-2.06-2.06h0ZM41.78,67.9c-1.14,0-2.06.92-2.06,2.06s.92,2.06,2.06,2.06,2.06-.92,2.06-2.06-.92-2.06-2.06-2.06h0ZM47.26,56.93c-1.14,0-2.06.92-2.06,2.06s.92,2.06,2.06,2.06,2.06-.92,2.06-2.06-.92-2.06-2.06-2.06h0ZM219.07,45.96c-1.14,0-2.06.92-2.06,2.06s.92,2.06,2.06,2.06,2.06-.92,2.06-2.06-.92-2.06-2.06-2.06h0ZM224.55,34.99c-1.14,0-2.06.92-2.06,2.06s.92,2.06,2.06,2.06,2.06-.92,2.06-2.06-.92-2.06-2.06-2.06h0ZM207.99,45.96c-1.14,0-2.06.92-2.06,2.06s.92,2.06,2.06,2.06,2.06-.92,2.06-2.06-.92-2.06-2.06-2.06h0ZM213.47,34.99c-1.14,0-2.06.92-2.06,2.06s.92,2.06,2.06,2.06,2.06-.92,2.06-2.06-.92-2.06-2.06-2.06h0ZM196.91,45.96c-1.14,0-2.06.92-2.06,2.06s.92,2.06,2.06,2.06,2.06-.92,2.06-2.06-.92-2.06-2.06-2.06h0ZM202.39,34.99c-1.14,0-2.06.92-2.06,2.06s.92,2.06,2.06,2.06,2.06-.92,2.06-2.06-.92-2.06-2.06-2.06h0ZM185.83,45.96c-1.14,0-2.06.92-2.06,2.06s.92,2.06,2.06,2.06,2.06-.92,2.06-2.06-.92-2.06-2.06-2.06h0ZM191.31,34.99c-1.14,0-2.06.92-2.06,2.06s.92,2.06,2.06,2.06,2.06-.92,2.06-2.06-.92-2.06-2.06-2.06h0ZM174.75,45.96c-1.14,0-2.06.92-2.06,2.06s.92,2.06,2.06,2.06,2.06-.92,2.06-2.06-.92-2.06-2.06-2.06h0ZM180.23,34.99c-1.14,0-2.06.92-2.06,2.06s.92,2.06,2.06,2.06,2.06-.92,2.06-2.06-.92-2.06-2.06-2.06h0ZM163.66,45.96c-1.14,0-2.06.92-2.06,2.06s.92,2.06,2.06,2.06,2.06-.92,2.06-2.06-.92-2.06-2.06-2.06h0ZM169.15,34.99c-1.14,0-2.06.92-2.06,2.06s.92,2.06,2.06,2.06,2.06-.92,2.06-2.06-.92-2.06-2.06-2.06h0ZM152.58,45.96c-1.14,0-2.06.92-2.06,2.06s.92,2.06,2.06,2.06,2.06-.92,2.06-2.06-.92-2.06-2.06-2.06h0ZM158.07,34.99c-1.14,0-2.06.92-2.06,2.06s.92,2.06,2.06,2.06,2.06-.92,2.06-2.06-.92-2.06-2.06-2.06h0ZM141.5,45.96c-1.14,0-2.06.92-2.06,2.06s.92,2.06,2.06,2.06,2.06-.92,2.06-2.06-.92-2.06-2.06-2.06h0ZM146.99,34.99c-1.14,0-2.06.92-2.06,2.06s.92,2.06,2.06,2.06,2.06-.92,2.06-2.06-.92-2.06-2.06-2.06h0ZM130.42,45.96c-1.14,0-2.06.92-2.06,2.06s.92,2.06,2.06,2.06,2.06-.92,2.06-2.06-.92-2.06-2.06-2.06h0ZM135.91,34.99c-1.14,0-2.06.92-2.06,2.06s.92,2.06,2.06,2.06,2.06-.92,2.06-2.06-.92-2.06-2.06-2.06h0ZM119.34,45.96c-1.14,0-2.06.92-2.06,2.06s.92,2.06,2.06,2.06,2.06-.92,2.06-2.06-.92-2.06-2.06-2.06h0ZM124.83,34.99c-1.14,0-2.06.92-2.06,2.06s.92,2.06,2.06,2.06,2.06-.92,2.06-2.06-.92-2.06-2.06-2.06h0ZM108.26,45.96c-1.14,0-2.06.92-2.06,2.06s.92,2.06,2.06,2.06,2.06-.92,2.06-2.06-.92-2.06-2.06-2.06h0ZM113.75,34.99c-1.14,0-2.06.92-2.06,2.06s.92,2.06,2.06,2.06,2.06-.92,2.06-2.06-.92-2.06-2.06-2.06h0ZM97.18,45.96c-1.14,0-2.06.92-2.06,2.06s.92,2.06,2.06,2.06,2.06-.92,2.06-2.06-.92-2.06-2.06-2.06h0ZM102.67,34.99c-1.14,0-2.06.92-2.06,2.06s.92,2.06,2.06,2.06,2.06-.92,2.06-2.06-.92-2.06-2.06-2.06h0ZM86.1,45.96c-1.14,0-2.06.92-2.06,2.06s.92,2.06,2.06,2.06,2.06-.92,2.06-2.06-.92-2.06-2.06-2.06h0ZM91.59,34.99c-1.14,0-2.06.92-2.06,2.06s.92,2.06,2.06,2.06,2.06-.92,2.06-2.06-.92-2.06-2.06-2.06h0ZM75.02,45.96c-1.14,0-2.06.92-2.06,2.06s.92,2.06,2.06,2.06,2.06-.92,2.06-2.06-.92-2.06-2.06-2.06h0ZM80.5,34.99c-1.14,0-2.06.92-2.06,2.06s.92,2.06,2.06,2.06,2.06-.92,2.06-2.06-.92-2.06-2.06-2.06h0ZM63.94,45.96c-1.14,0-2.06.92-2.06,2.06s.92,2.06,2.06,2.06,2.06-.92,2.06-2.06-.92-2.06-2.06-2.06h0ZM69.42,34.99c-1.14,0-2.06.92-2.06,2.06s.92,2.06,2.06,2.06,2.06-.92,2.06-2.06-.92-2.06-2.06-2.06h0ZM52.86,45.96c-1.14,0-2.06.92-2.06,2.06s.92,2.06,2.06,2.06,2.06-.92,2.06-2.06-.92-2.06-2.06-2.06h0ZM58.34,34.99c-1.14,0-2.06.92-2.06,2.06s.92,2.06,2.06,2.06,2.06-.92,2.06-2.06-.92-2.06-2.06-2.06h0ZM219.07,24.02c-1.14,0-2.06.92-2.06,2.06s.92,2.06,2.06,2.06,2.06-.92,2.06-2.06-.92-2.06-2.06-2.06h0ZM224.55,13.05c-1.14,0-2.06.92-2.06,2.06s.92,2.06,2.06,2.06,2.06-.92,2.06-2.06-.92-2.06-2.06-2.06h0ZM207.99,24.02c-1.14,0-2.06.92-2.06,2.06s.92,2.06,2.06,2.06,2.06-.92,2.06-2.06-.92-2.06-2.06-2.06h0ZM213.47,13.05c-1.14,0-2.06.92-2.06,2.06s.92,2.06,2.06,2.06,2.06-.92,2.06-2.06-.92-2.06-2.06-2.06h0ZM196.91,24.02c-1.14,0-2.06.92-2.06,2.06s.92,2.06,2.06,2.06,2.06-.92,2.06-2.06-.92-2.06-2.06-2.06h0ZM202.39,13.05c-1.14,0-2.06.92-2.06,2.06s.92,2.06,2.06,2.06,2.06-.92,2.06-2.06-.92-2.06-2.06-2.06h0ZM185.83,24.02c-1.14,0-2.06.92-2.06,2.06s.92,2.06,2.06,2.06,2.06-.92,2.06-2.06-.92-2.06-2.06-2.06h0ZM191.31,13.05c-1.14,0-2.06.92-2.06,2.06s.92,2.06,2.06,2.06,2.06-.92,2.06-2.06-.92-2.06-2.06-2.06h0ZM174.75,24.02c-1.14,0-2.06.92-2.06,2.06s.92,2.06,2.06,2.06,2.06-.92,2.06-2.06-.92-2.06-2.06-2.06h0ZM180.23,13.05c-1.14,0-2.06.92-2.06,2.06s.92,2.06,2.06,2.06,2.06-.92,2.06-2.06-.92-2.06-2.06-2.06h0ZM163.66,24.02c-1.14,0-2.06.92-2.06,2.06s.92,2.06,2.06,2.06,2.06-.92,2.06-2.06-.92-2.06-2.06-2.06h0ZM169.15,13.05c-1.14,0-2.06.92-2.06,2.06s.92,2.06,2.06,2.06,2.06-.92,2.06-2.06-.92-2.06-2.06-2.06h0ZM152.58,24.02c-1.14,0-2.06.92-2.06,2.06s.92,2.06,2.06,2.06,2.06-.92,2.06-2.06-.92-2.06-2.06-2.06h0ZM158.07,13.05c-1.14,0-2.06.92-2.06,2.06s.92,2.06,2.06,2.06,2.06-.92,2.06-2.06-.92-2.06-2.06-2.06h0ZM141.5,24.02c-1.14,0-2.06.92-2.06,2.06s.92,2.06,2.06,2.06,2.06-.92,2.06-2.06-.92-2.06-2.06-2.06h0ZM146.99,13.05c-1.14,0-2.06.92-2.06,2.06s.92,2.06,2.06,2.06,2.06-.92,2.06-2.06-.92-2.06-2.06-2.06h0ZM130.42,24.02c-1.14,0-2.06.92-2.06,2.06s.92,2.06,2.06,2.06,2.06-.92,2.06-2.06-.92-2.06-2.06-2.06h0ZM135.91,13.05c-1.14,0-2.06.92-2.06,2.06s.92,2.06,2.06,2.06,2.06-.92,2.06-2.06-.92-2.06-2.06-2.06h0ZM119.34,24.02c-1.14,0-2.06.92-2.06,2.06s.92,2.06,2.06,2.06,2.06-.92,2.06-2.06-.92-2.06-2.06-2.06h0ZM124.83,13.05c-1.14,0-2.06.92-2.06,2.06s.92,2.06,2.06,2.06,2.06-.92,2.06-2.06-.92-2.06-2.06-2.06h0ZM108.26,24.02c-1.14,0-2.06.92-2.06,2.06s.92,2.06,2.06,2.06,2.06-.92,2.06-2.06-.92-2.06-2.06-2.06h0ZM113.75,13.05c-1.14,0-2.06.92-2.06,2.06s.92,2.06,2.06,2.06,2.06-.92,2.06-2.06-.92-2.06-2.06-2.06h0ZM97.18,24.02c-1.14,0-2.06.92-2.06,2.06s.92,2.06,2.06,2.06,2.06-.92,2.06-2.06-.92-2.06-2.06-2.06h0ZM102.67,13.05c-1.14,0-2.06.92-2.06,2.06s.92,2.06,2.06,2.06,2.06-.92,2.06-2.06-.92-2.06-2.06-2.06h0ZM86.1,24.02c-1.14,0-2.06.92-2.06,2.06s.92,2.06,2.06,2.06,2.06-.92,2.06-2.06-.92-2.06-2.06-2.06h0ZM91.59,13.05c-1.14,0-2.06.92-2.06,2.06s.92,2.06,2.06,2.06,2.06-.92,2.06-2.06-.92-2.06-2.06-2.06h0ZM75.02,24.02c-1.14,0-2.06.92-2.06,2.06s.92,2.06,2.06,2.06,2.06-.92,2.06-2.06-.92-2.06-2.06-2.06h0ZM80.5,13.05c-1.14,0-2.06.92-2.06,2.06s.92,2.06,2.06,2.06,2.06-.92,2.06-2.06-.92-2.06-2.06-2.06h0ZM63.94,24.02c-1.14,0-2.06.92-2.06,2.06s.92,2.06,2.06,2.06,2.06-.92,2.06-2.06-.92-2.06-2.06-2.06Z"/>
      <path class="cls-2" d="M110.61,120.67H0L60.98,0h178.24v708.45H110.61V120.67h0ZM116.1,115.18v587.78h117.64V5.49H64.36L8.92,115.18h107.18Z"/>
      <path class="cls-2" d="M201.4,654.25l-2.65,2.81c.25,3.2-.12,6.21-1.1,9.03-.99,2.84-2.63,5.25-4.92,7.23-3.54,3.02-8.15,4.69-13.83,5l-3.98,3.28c-1.56-1.2-2.89-2.29-3.99-3.28-5.68-.31-10.29-1.98-13.83-5-4.27-3.7-6.28-9.12-6.02-16.25l-2.66-2.81c3.96-4.12,5.86-8.39,5.7-12.82-.05-3.18-1.17-6.23-3.36-9.14l2.34-3.2c4.84,1.72,9.4,1.15,13.68-1.72,2.92,2.03,5.63,3.05,8.13,3.05s5.21-1.02,8.13-3.05c4.27,2.87,8.83,3.44,13.68,1.72l2.34,3.2c-2.29,3.02-3.44,6.1-3.44,9.22,0,4.48,1.93,8.73,5.78,12.74h0ZM153.95,656.67l-.02.5c-.19,5.22.9,10.44,5.02,13.98,3.4,2.92,7.72,4.07,12.12,4.31,2.6.14,5.06.14,7.66,0,4.4-.24,8.72-1.4,12.13-4.32,1.9-1.63,3.26-3.63,4.08-6,.89-2.54,1.16-5.19.95-7.86l-.05-.61h-41.9ZM159.99,671.14c1.81,1.4,3.86,2.32,6.02,2.89v-16.71h-6.02v13.82h0ZM172.02,674.85c2.01.08,4.01.08,6.02-.01v-3.92c-.54.33-1.11.56-1.68.7-.87.22-1.76.23-2.62.05-.59-.12-1.17-.34-1.71-.65v3.82h0ZM172.02,660.72c1.89-1.05,4.14-1.02,6.02.1v-3.49h-6.02v3.39h0ZM184.06,673.97c2.17-.61,4.22-1.57,6.02-3.01v-13.63h-6.02v16.64h0ZM170.56,669.09c.35.48.7.89,1.3,1.04.5.12,1.05.13,1.6.05.69-.11,1.38-.36,1.98-.73.52-.32.97-.72,1.28-1.18,1.02-1.49-.35-2.51-1.55-2.23-.07.49-.37.98-.84,1.32-.48.34-1.1.49-1.71.23-.1.36-.36.88-.74,1.15-.33.24-.82.42-1.34.34h0ZM179.89,668.11c.25-.55.42-1.05.24-1.66-.25-.86-.87-1.67-1.64-2.28-.72-.56-1.58-.94-2.4-1.01-1.8-.14-2,1.56-1.16,2.45.46-.18,1.03-.17,1.56.07.54.25.97.71,1.06,1.36.36-.1.95-.12,1.37.06.37.16.8.5.97,1h0ZM174.42,660.46c-.61.06-1.15.2-1.6.66-.8.84-1.2,2.13-1.2,3.27,0,.67.12,1.32.38,1.87.78,1.62,2.35.95,2.7-.22-.39-.31-.67-.81-.72-1.39-.06-.59.13-1.2.65-1.6-.26-.26-.58-.76-.63-1.21-.04-.42.04-.98.42-1.38h0ZM179.58,668.71c-.1-.44-.23-.87-.85-1.15-.28-.13-.75-.11-1.04-.04l-.15.04c-.06.34-.21.67-.41.97-.19.28-.43.55-.7.78-.41.36-.88.66-1.4.89-.82.36-1.73.55-2.58.49.75.38,1.59.6,2.49.6.95,0,1.84-.24,2.62-.67.83-.46,1.52-1.12,2.02-1.92h0ZM170.19,668.52c.34.13.9.21,1.42-.17.25-.18.47-.59.55-.88l.04-.14c-.53-.44-.82-1.16-.96-1.82-.14-.66-.14-1.37-.03-2.02.13-.78.42-1.58.88-2.24-1.55.96-2.59,2.67-2.59,4.63,0,.5.07.98.19,1.44.12.42.28.82.49,1.2h0ZM175.12,660.44c-.35.24-.71.67-.64,1.35.03.31.28.7.49.92l.1.11c.32-.12.69-.16,1.05-.13.88.07,1.78.45,2.55,1.02.72.53,1.32,1.24,1.69,2-.05-1.53-.72-2.89-1.77-3.85-.92-.84-2.14-1.37-3.48-1.42h0ZM183.09,630.74c-2.48,1.48-5.26,2.54-8.18,2.54s-5.7-1.06-8.18-2.54c-3.9,2.12-8.12,2.69-12.43,1.68,1.65,2.72,2.63,5.7,2.68,8.93.1,2.87-.54,5.57-1.7,8.06h39.25c-1.13-2.43-1.78-5.06-1.78-7.89,0-3.3,1.04-6.34,2.74-9.09-4.3,1.01-8.51.43-12.41-1.68h0ZM190.93,633.55v15.2h2.61c-.94-2.3-1.43-4.73-1.43-7.24,0-2.91.78-5.64,2.12-8.17-1.1.17-2.2.24-3.29.21h0ZM175.24,633.93v14.83h1.96v-15.02c-.65.11-1.3.18-1.96.2h0ZM179.16,633.25v15.5h1.96v-16.25c-.64.29-1.3.54-1.96.75h0ZM183.09,631.5v17.25h1.96v-16.39c-.66-.25-1.3-.54-1.94-.88h-.02ZM187.01,633v15.75h1.96v-15.36c-.66-.09-1.31-.22-1.96-.39h0ZM168.74,643.94v4.82h5.85v-4.82h-5.85ZM157.52,643.94c-.19,1.65-.61,3.27-1.24,4.82h6.67v-4.82h-5.44ZM157.26,638.07h5.7v-5.11c-2.4.64-4.88.77-7.39.37.78,1.51,1.35,3.09,1.7,4.74h0ZM168.74,632.52v5.55h5.85v-4.15c-2.04-.05-4-.58-5.85-1.41h0ZM169.99,651.52v-1.17h-3.91v5.47h1.17v-2.27h1.56v-1.17h-1.56v-.86h2.73ZM174.52,651.44c.42,0,.73.21.94.63l1.09-.55c-.36-.83-1.02-1.28-1.95-1.33-.68,0-1.26.26-1.76.78-.5.52-.74,1.21-.74,2.07s.25,1.55.74,2.07c.49.52,1.05.78,1.68.78.89,0,1.54-.44,1.95-1.33l-.94-.55c-.31.47-.65.7-1.02.7-.29,0-.53-.12-.71-.31-.28-.29-.43-.76-.45-1.25-.01-.34.04-.68.16-.97.18-.44.52-.76,1-.76h0ZM183.51,651.83c0-.99-.7-1.48-2.11-1.48h-2.11v5.47h2.5c.57,0,1.04-.18,1.41-.55.37-.37.55-.78.55-1.25,0-.52-.23-.91-.7-1.17.31-.26.47-.6.47-1.02h0ZM180.46,651.44v.86h.86c.68,0,1.02-.14,1.02-.43s-.31-.43-.94-.43h-.94ZM181.55,654.64c.63,0,.94-.21.94-.63s-.36-.62-1.09-.62h-.94v1.25h1.09ZM183.06,628.84c-2.43,1.58-5.22,2.81-8.14,2.81s-5.72-1.23-8.14-2.81c-4.13,2.53-8.57,3.1-13.2,1.69l-1.29,1.77c1.87,2.72,3.02,5.76,3.07,9.09.17,4.95-2.05,9.26-5.25,12.85l2.22,2.35-.02.51c-.21,5.75,1.07,11.39,5.59,15.28,3.68,3.17,8.33,4.44,13.1,4.71l.43.02.32.29c1.01.91,2.06,1.78,3.14,2.62l3.54-2.92.4-.02c4.78-.26,9.41-1.55,13.1-4.71,2.13-1.82,3.64-4.06,4.56-6.7.96-2.76,1.26-5.62,1.04-8.53l-.04-.54,2.24-2.38c-3.18-3.58-5.33-7.81-5.33-12.73,0-3.4,1.24-6.48,3.15-9.22l-1.29-1.76c-4.63,1.4-9.06.83-13.2-1.69Z"/>
    </g>
  </g>
</svg>