<?xml version="1.0" encoding="UTF-8"?>
<svg id="Layer_2" data-name="Layer 2" xmlns="http://www.w3.org/2000/svg" viewBox="0 0 130.62 357.16">
  <defs>
    <style>
      .cls-1 {
        fill: #f0b53f;
        fill-rule: evenodd;
      }
    </style>
  </defs>
  <g id="_" data-name="ͼ">
    <path class="cls-1" d="M125.52,349V8.16l5.1-8.16h-62.25c-9.61,12.81-22.17,23.16-37.25,29.08-9.85,3.69-20.51,7.14-31.12,7.14v32.14c11.44-.42,23.76-2.84,35.56-6.82,12.29-4.15,23.95-9.88,34.34-17.67v3.57c-9.42,7.43-21.99,13.56-35.13,17.68-11.77,3.69-23.98,5.79-34.77,5.79v32.14c9.69-.51,19.39-1.53,28.06-3.57,8.16-1.53,17.86-5.1,21.94-7.14l3.57-1.53v258.18l-3.57,8.16h79.6l-4.08-8.16h0ZM66.76,8.82c.34,0,.62.28.62.62s-.28.62-.62.62-.62-.28-.62-.62.28-.62.62-.62h0ZM71.89,8.82c.34,0,.62.28.62.62s-.28.62-.62.62-.62-.28-.62-.62.28-.62.62-.62h0ZM77.02,8.82c.34,0,.62.28.62.62s-.28.62-.62.62-.62-.28-.62-.62.28-.62.62-.62h0ZM82.15,8.82c.34,0,.62.28.62.62s-.28.62-.62.62-.62-.28-.62-.62.28-.62.62-.62h0ZM87.28,8.82c.34,0,.62.28.62.62s-.28.62-.62.62-.62-.28-.62-.62.28-.62.62-.62h0ZM92.41,8.82c.34,0,.62.28.62.62s-.28.62-.62.62-.62-.28-.62-.62.28-.62.62-.62h0ZM97.54,8.82c.34,0,.62.28.62.62s-.28.62-.62.62-.62-.28-.62-.62.28-.62.62-.62h0ZM102.67,8.82c.34,0,.62.28.62.62s-.28.62-.62.62-.62-.28-.62-.62.28-.62.62-.62h0ZM107.8,8.82c.34,0,.62.28.62.62s-.28.62-.62.62-.62-.28-.62-.62.28-.62.62-.62h0ZM112.93,8.82c.34,0,.62.28.62.62s-.28.62-.62.62-.62-.28-.62-.62.28-.62.62-.62h0ZM118.07,8.82c.34,0,.62.28.62.62s-.28.62-.62.62-.62-.28-.62-.62.28-.62.62-.62h0ZM123.2,8.82c.34,0,.62.28.62.62s-.28.62-.62.62-.62-.28-.62-.62.28-.62.62-.62h0ZM51.36,20.07c.34,0,.62.28.62.62s-.28.62-.62.62-.62-.28-.62-.62.28-.62.62-.62h0ZM56.49,20.07c.34,0,.62.28.62.62s-.28.62-.62.62-.62-.28-.62-.62.28-.62.62-.62h0ZM61.62,20.07c.34,0,.62.28.62.62s-.28.62-.62.62-.62-.28-.62-.62.28-.62.62-.62h0ZM66.76,20.07c.34,0,.62.28.62.62s-.28.62-.62.62-.62-.28-.62-.62.28-.62.62-.62h0ZM71.89,20.07c.34,0,.62.28.62.62s-.28.62-.62.62-.62-.28-.62-.62.28-.62.62-.62h0ZM77.02,20.07c.34,0,.62.28.62.62s-.28.62-.62.62-.62-.28-.62-.62.28-.62.62-.62h0ZM82.15,20.07c.34,0,.62.28.62.62s-.28.62-.62.62-.62-.28-.62-.62.28-.62.62-.62h0ZM87.28,20.07c.34,0,.62.28.62.62s-.28.62-.62.62-.62-.28-.62-.62.28-.62.62-.62h0ZM92.41,20.07c.34,0,.62.28.62.62s-.28.62-.62.62-.62-.28-.62-.62.28-.62.62-.62h0ZM97.54,20.07c.34,0,.62.28.62.62s-.28.62-.62.62-.62-.28-.62-.62.28-.62.62-.62h0ZM102.67,20.07c.34,0,.62.28.62.62s-.28.62-.62.62-.62-.28-.62-.62.28-.62.62-.62h0ZM107.8,20.07c.34,0,.62.28.62.62s-.28.62-.62.62-.62-.28-.62-.62.28-.62.62-.62h0ZM112.93,20.07c.34,0,.62.28.62.62s-.28.62-.62.62-.62-.28-.62-.62.28-.62.62-.62h0ZM118.07,20.07c.34,0,.62.28.62.62s-.28.62-.62.62-.62-.28-.62-.62.28-.62.62-.62h0ZM123.2,20.07c.34,0,.62.28.62.62s-.28.62-.62.62-.62-.28-.62-.62.28-.62.62-.62h0ZM30.84,31.31c.34,0,.62.28.62.62s-.28.62-.62.62-.62-.28-.62-.62.28-.62.62-.62h0ZM35.97,31.31c.34,0,.62.28.62.62s-.28.62-.62.62-.62-.28-.62-.62.28-.62.62-.62h0ZM41.1,31.31c.34,0,.62.28.62.62s-.28.62-.62.62-.62-.28-.62-.62.28-.62.62-.62h0ZM46.23,31.31c.34,0,.62.28.62.62s-.28.62-.62.62-.62-.28-.62-.62.28-.62.62-.62h0ZM51.36,31.31c.34,0,.62.28.62.62s-.28.62-.62.62-.62-.28-.62-.62.28-.62.62-.62h0ZM56.49,31.31c.34,0,.62.28.62.62s-.28.62-.62.62-.62-.28-.62-.62.28-.62.62-.62h0ZM61.62,31.31c.34,0,.62.28.62.62s-.28.62-.62.62-.62-.28-.62-.62.28-.62.62-.62h0ZM66.76,31.31c.34,0,.62.28.62.62s-.28.62-.62.62-.62-.28-.62-.62.28-.62.62-.62h0ZM71.89,31.31c.34,0,.62.28.62.62s-.28.62-.62.62-.62-.28-.62-.62.28-.62.62-.62h0ZM77.02,31.31c.34,0,.62.28.62.62s-.28.62-.62.62-.62-.28-.62-.62.28-.62.62-.62h0ZM82.15,31.31c.34,0,.62.28.62.62s-.28.62-.62.62-.62-.28-.62-.62.28-.62.62-.62h0ZM97.54,31.31c.34,0,.62.28.62.62s-.28.62-.62.62-.62-.28-.62-.62.28-.62.62-.62h0ZM102.67,31.31c.34,0,.62.28.62.62s-.28.62-.62.62-.62-.28-.62-.62.28-.62.62-.62h0ZM107.8,31.31c.34,0,.62.28.62.62s-.28.62-.62.62-.62-.28-.62-.62.28-.62.62-.62h0ZM112.93,31.31c.34,0,.62.28.62.62s-.28.62-.62.62-.62-.28-.62-.62.28-.62.62-.62h0ZM118.07,31.31c.34,0,.62.28.62.62s-.28.62-.62.62-.62-.28-.62-.62.28-.62.62-.62h0ZM123.2,31.31c.34,0,.62.28.62.62s-.28.62-.62.62-.62-.28-.62-.62.28-.62.62-.62h0ZM5.18,42.56c.34,0,.62.28.62.62s-.28.62-.62.62-.62-.28-.62-.62.28-.62.62-.62h0ZM10.31,42.56c.34,0,.62.28.62.62s-.28.62-.62.62-.62-.28-.62-.62.28-.62.62-.62h0ZM15.44,42.56c.34,0,.62.28.62.62s-.28.62-.62.62-.62-.28-.62-.62.28-.62.62-.62h0ZM20.58,42.56c.34,0,.62.28.62.62s-.28.62-.62.62-.62-.28-.62-.62.28-.62.62-.62h0ZM25.71,42.56c.34,0,.62.28.62.62s-.28.62-.62.62-.62-.28-.62-.62.28-.62.62-.62h0ZM30.84,42.56c.34,0,.62.28.62.62s-.28.62-.62.62-.62-.28-.62-.62.28-.62.62-.62h0ZM35.97,42.56c.34,0,.62.28.62.62s-.28.62-.62.62-.62-.28-.62-.62.28-.62.62-.62h0ZM41.1,42.56c.34,0,.62.28.62.62s-.28.62-.62.62-.62-.28-.62-.62.28-.62.62-.62h0ZM46.23,42.56c.34,0,.62.28.62.62s-.28.62-.62.62-.62-.28-.62-.62.28-.62.62-.62h0ZM51.36,42.56c.34,0,.62.28.62.62s-.28.62-.62.62-.62-.28-.62-.62.28-.62.62-.62h0ZM56.49,42.56c.34,0,.62.28.62.62s-.28.62-.62.62-.62-.28-.62-.62.28-.62.62-.62h0ZM61.62,42.56c.34,0,.62.28.62.62s-.28.62-.62.62-.62-.28-.62-.62.28-.62.62-.62h0ZM66.76,42.56c.34,0,.62.28.62.62s-.28.62-.62.62-.62-.28-.62-.62.28-.62.62-.62h0ZM71.89,42.56c.34,0,.62.28.62.62s-.28.62-.62.62-.62-.28-.62-.62.28-.62.62-.62h0ZM77.02,42.56c.34,0,.62.28.62.62s-.28.62-.62.62-.62-.28-.62-.62.28-.62.62-.62h0ZM82.15,42.56c.34,0,.62.28.62.62s-.28.62-.62.62-.62-.28-.62-.62.28-.62.62-.62h0ZM97.54,42.56c.34,0,.62.28.62.62s-.28.62-.62.62-.62-.28-.62-.62.28-.62.62-.62h0ZM102.67,42.56c.34,0,.62.28.62.62s-.28.62-.62.62-.62-.28-.62-.62.28-.62.62-.62h0ZM107.8,42.56c.34,0,.62.28.62.62s-.28.62-.62.62-.62-.28-.62-.62.28-.62.62-.62h0ZM112.93,42.56c.34,0,.62.28.62.62s-.28.62-.62.62-.62-.28-.62-.62.28-.62.62-.62h0ZM118.07,42.56c.34,0,.62.28.62.62s-.28.62-.62.62-.62-.28-.62-.62.28-.62.62-.62h0ZM123.2,42.56c.34,0,.62.28.62.62s-.28.62-.62.62-.62-.28-.62-.62.28-.62.62-.62h0ZM5.18,53.81c.34,0,.62.28.62.62s-.28.62-.62.62-.62-.28-.62-.62.28-.62.62-.62h0ZM10.31,53.81c.34,0,.62.28.62.62s-.28.62-.62.62-.62-.28-.62-.62.28-.62.62-.62h0ZM15.44,53.81c.34,0,.62.28.62.62s-.28.62-.62.62-.62-.28-.62-.62.28-.62.62-.62h0ZM20.58,53.81c.34,0,.62.28.62.62s-.28.62-.62.62-.62-.28-.62-.62.28-.62.62-.62h0ZM25.71,53.81c.34,0,.62.28.62.62s-.28.62-.62.62-.62-.28-.62-.62.28-.62.62-.62h0ZM30.84,53.81c.34,0,.62.28.62.62s-.28.62-.62.62-.62-.28-.62-.62.28-.62.62-.62h0ZM35.97,53.81c.34,0,.62.28.62.62s-.28.62-.62.62-.62-.28-.62-.62.28-.62.62-.62h0ZM41.1,53.81c.34,0,.62.28.62.62s-.28.62-.62.62-.62-.28-.62-.62.28-.62.62-.62h0ZM46.23,53.81c.34,0,.62.28.62.62s-.28.62-.62.62-.62-.28-.62-.62.28-.62.62-.62h0ZM66.76,53.81c.34,0,.62.28.62.62s-.28.62-.62.62-.62-.28-.62-.62.28-.62.62-.62h0ZM71.89,53.81c.34,0,.62.28.62.62s-.28.62-.62.62-.62-.28-.62-.62.28-.62.62-.62h0ZM77.02,53.81c.34,0,.62.28.62.62s-.28.62-.62.62-.62-.28-.62-.62.28-.62.62-.62h0ZM82.15,53.81c.34,0,.62.28.62.62s-.28.62-.62.62-.62-.28-.62-.62.28-.62.62-.62h0ZM97.54,53.81c.34,0,.62.28.62.62s-.28.62-.62.62-.62-.28-.62-.62.28-.62.62-.62h0ZM102.67,53.81c.34,0,.62.28.62.62s-.28.62-.62.62-.62-.28-.62-.62.28-.62.62-.62h0ZM107.8,53.81c.34,0,.62.28.62.62s-.28.62-.62.62-.62-.28-.62-.62.28-.62.62-.62h0ZM112.93,53.81c.34,0,.62.28.62.62s-.28.62-.62.62-.62-.28-.62-.62.28-.62.62-.62h0ZM118.07,53.81c.34,0,.62.28.62.62s-.28.62-.62.62-.62-.28-.62-.62.28-.62.62-.62h0ZM123.2,53.81c.34,0,.62.28.62.62s-.28.62-.62.62-.62-.28-.62-.62.28-.62.62-.62h0ZM5.18,65.06c.34,0,.62.28.62.62s-.28.62-.62.62-.62-.28-.62-.62.28-.62.62-.62h0ZM10.31,65.06c.34,0,.62.28.62.62s-.28.62-.62.62-.62-.28-.62-.62.28-.62.62-.62h0ZM41.1,65.06c.34,0,.62.28.62.62s-.28.62-.62.62-.62-.28-.62-.62.28-.62.62-.62h0ZM46.23,65.06c.34,0,.62.28.62.62s-.28.62-.62.62-.62-.28-.62-.62.28-.62.62-.62h0ZM51.36,65.06c.34,0,.62.28.62.62s-.28.62-.62.62-.62-.28-.62-.62.28-.62.62-.62h0ZM56.49,65.06c.34,0,.62.28.62.62s-.28.62-.62.62-.62-.28-.62-.62.28-.62.62-.62h0ZM61.62,65.06c.34,0,.62.28.62.62s-.28.62-.62.62-.62-.28-.62-.62.28-.62.62-.62h0ZM66.76,65.06c.34,0,.62.28.62.62s-.28.62-.62.62-.62-.28-.62-.62.28-.62.62-.62h0ZM71.89,65.06c.34,0,.62.28.62.62s-.28.62-.62.62-.62-.28-.62-.62.28-.62.62-.62h0ZM77.02,65.06c.34,0,.62.28.62.62s-.28.62-.62.62-.62-.28-.62-.62.28-.62.62-.62h0ZM82.15,65.06c.34,0,.62.28.62.62s-.28.62-.62.62-.62-.28-.62-.62.28-.62.62-.62h0ZM97.54,65.06c.34,0,.62.28.62.62s-.28.62-.62.62-.62-.28-.62-.62.28-.62.62-.62h0ZM102.67,65.06c.34,0,.62.28.62.62s-.28.62-.62.62-.62-.28-.62-.62.28-.62.62-.62h0ZM107.8,65.06c.34,0,.62.28.62.62s-.28.62-.62.62-.62-.28-.62-.62.28-.62.62-.62h0ZM112.93,65.06c.34,0,.62.28.62.62s-.28.62-.62.62-.62-.28-.62-.62.28-.62.62-.62h0ZM118.07,65.06c.34,0,.62.28.62.62s-.28.62-.62.62-.62-.28-.62-.62.28-.62.62-.62h0ZM123.2,65.06c.34,0,.62.28.62.62s-.28.62-.62.62-.62-.28-.62-.62.28-.62.62-.62h0ZM5.18,76.31c.34,0,.62.28.62.62s-.28.62-.62.62-.62-.28-.62-.62.28-.62.62-.62h0ZM10.31,76.31c.34,0,.62.28.62.62s-.28.62-.62.62-.62-.28-.62-.62.28-.62.62-.62h0ZM15.44,76.31c.34,0,.62.28.62.62s-.28.62-.62.62-.62-.28-.62-.62.28-.62.62-.62h0ZM20.58,76.31c.34,0,.62.28.62.62s-.28.62-.62.62-.62-.28-.62-.62.28-.62.62-.62h0ZM25.71,76.31c.34,0,.62.28.62.62s-.28.62-.62.62-.62-.28-.62-.62.28-.62.62-.62h0ZM30.84,76.31c.34,0,.62.28.62.62s-.28.62-.62.62-.62-.28-.62-.62.28-.62.62-.62h0ZM35.97,76.31c.34,0,.62.28.62.62s-.28.62-.62.62-.62-.28-.62-.62.28-.62.62-.62h0ZM41.1,76.31c.34,0,.62.28.62.62s-.28.62-.62.62-.62-.28-.62-.62.28-.62.62-.62h0ZM46.23,76.31c.34,0,.62.28.62.62s-.28.62-.62.62-.62-.28-.62-.62.28-.62.62-.62h0ZM51.36,76.31c.34,0,.62.28.62.62s-.28.62-.62.62-.62-.28-.62-.62.28-.62.62-.62h0ZM56.49,76.31c.34,0,.62.28.62.62s-.28.62-.62.62-.62-.28-.62-.62.28-.62.62-.62h0ZM61.62,76.31c.34,0,.62.28.62.62s-.28.62-.62.62-.62-.28-.62-.62.28-.62.62-.62h0ZM66.76,76.31c.34,0,.62.28.62.62s-.28.62-.62.62-.62-.28-.62-.62.28-.62.62-.62h0ZM71.89,76.31c.34,0,.62.28.62.62s-.28.62-.62.62-.62-.28-.62-.62.28-.62.62-.62h0ZM77.02,76.31c.34,0,.62.28.62.62s-.28.62-.62.62-.62-.28-.62-.62.28-.62.62-.62h0ZM82.15,76.31c.34,0,.62.28.62.62s-.28.62-.62.62-.62-.28-.62-.62.28-.62.62-.62h0ZM97.54,76.31c.34,0,.62.28.62.62s-.28.62-.62.62-.62-.28-.62-.62.28-.62.62-.62h0ZM102.67,76.31c.34,0,.62.28.62.62s-.28.62-.62.62-.62-.28-.62-.62.28-.62.62-.62h0ZM107.8,76.31c.34,0,.62.28.62.62s-.28.62-.62.62-.62-.28-.62-.62.28-.62.62-.62h0ZM112.93,76.31c.34,0,.62.28.62.62s-.28.62-.62.62-.62-.28-.62-.62.28-.62.62-.62h0ZM118.07,76.31c.34,0,.62.28.62.62s-.28.62-.62.62-.62-.28-.62-.62.28-.62.62-.62h0ZM123.2,76.31c.34,0,.62.28.62.62s-.28.62-.62.62-.62-.28-.62-.62.28-.62.62-.62h0ZM5.18,87.55c.34,0,.62.28.62.62s-.28.62-.62.62-.62-.28-.62-.62.28-.62.62-.62h0ZM10.31,87.55c.34,0,.62.28.62.62s-.28.62-.62.62-.62-.28-.62-.62.28-.62.62-.62h0ZM15.44,87.55c.34,0,.62.28.62.62s-.28.62-.62.62-.62-.28-.62-.62.28-.62.62-.62h0ZM20.58,87.55c.34,0,.62.28.62.62s-.28.62-.62.62-.62-.28-.62-.62.28-.62.62-.62h0ZM25.71,87.55c.34,0,.62.28.62.62s-.28.62-.62.62-.62-.28-.62-.62.28-.62.62-.62h0ZM30.84,87.55c.34,0,.62.28.62.62s-.28.62-.62.62-.62-.28-.62-.62.28-.62.62-.62h0ZM35.97,87.55c.34,0,.62.28.62.62s-.28.62-.62.62-.62-.28-.62-.62.28-.62.62-.62h0ZM41.1,87.55c.34,0,.62.28.62.62s-.28.62-.62.62-.62-.28-.62-.62.28-.62.62-.62h0ZM46.23,87.55c.34,0,.62.28.62.62s-.28.62-.62.62-.62-.28-.62-.62.28-.62.62-.62h0ZM51.36,87.55c.34,0,.62.28.62.62s-.28.62-.62.62-.62-.28-.62-.62.28-.62.62-.62h0ZM56.49,87.55c.34,0,.62.28.62.62s-.28.62-.62.62-.62-.28-.62-.62.28-.62.62-.62h0ZM61.62,87.55c.34,0,.62.28.62.62s-.28.62-.62.62-.62-.28-.62-.62.28-.62.62-.62h0ZM66.76,87.55c.34,0,.62.28.62.62s-.28.62-.62.62-.62-.28-.62-.62.28-.62.62-.62h0ZM71.89,87.55c.34,0,.62.28.62.62s-.28.62-.62.62-.62-.28-.62-.62.28-.62.62-.62h0ZM77.02,87.55c.34,0,.62.28.62.62s-.28.62-.62.62-.62-.28-.62-.62.28-.62.62-.62h0ZM82.15,87.55c.34,0,.62.28.62.62s-.28.62-.62.62-.62-.28-.62-.62.28-.62.62-.62h0ZM97.54,87.55c.34,0,.62.28.62.62s-.28.62-.62.62-.62-.28-.62-.62.28-.62.62-.62h0ZM102.67,87.55c.34,0,.62.28.62.62s-.28.62-.62.62-.62-.28-.62-.62.28-.62.62-.62h0ZM107.8,87.55c.34,0,.62.28.62.62s-.28.62-.62.62-.62-.28-.62-.62.28-.62.62-.62h0ZM112.93,87.55c.34,0,.62.28.62.62s-.28.62-.62.62-.62-.28-.62-.62.28-.62.62-.62h0ZM118.07,87.55c.34,0,.62.28.62.62s-.28.62-.62.62-.62-.28-.62-.62.28-.62.62-.62h0ZM123.2,87.55c.34,0,.62.28.62.62s-.28.62-.62.62-.62-.28-.62-.62.28-.62.62-.62h0ZM5.18,98.8c.34,0,.62.28.62.62s-.28.62-.62.62-.62-.28-.62-.62.28-.62.62-.62h0ZM10.31,98.8c.34,0,.62.28.62.62s-.28.62-.62.62-.62-.28-.62-.62.28-.62.62-.62h0ZM15.44,98.8c.34,0,.62.28.62.62s-.28.62-.62.62-.62-.28-.62-.62.28-.62.62-.62h0ZM56.49,98.8c.34,0,.62.28.62.62s-.28.62-.62.62-.62-.28-.62-.62.28-.62.62-.62h0ZM61.62,98.8c.34,0,.62.28.62.62s-.28.62-.62.62-.62-.28-.62-.62.28-.62.62-.62h0ZM66.76,98.8c.34,0,.62.28.62.62s-.28.62-.62.62-.62-.28-.62-.62.28-.62.62-.62h0ZM71.89,98.8c.34,0,.62.28.62.62s-.28.62-.62.62-.62-.28-.62-.62.28-.62.62-.62h0ZM77.02,98.8c.34,0,.62.28.62.62s-.28.62-.62.62-.62-.28-.62-.62.28-.62.62-.62h0ZM82.15,98.8c.34,0,.62.28.62.62s-.28.62-.62.62-.62-.28-.62-.62.28-.62.62-.62h0ZM97.54,98.8c.34,0,.62.28.62.62s-.28.62-.62.62-.62-.28-.62-.62.28-.62.62-.62h0ZM102.67,98.8c.34,0,.62.28.62.62s-.28.62-.62.62-.62-.28-.62-.62.28-.62.62-.62h0ZM107.8,98.8c.34,0,.62.28.62.62s-.28.62-.62.62-.62-.28-.62-.62.28-.62.62-.62h0ZM112.93,98.8c.34,0,.62.28.62.62s-.28.62-.62.62-.62-.28-.62-.62.28-.62.62-.62h0ZM118.07,98.8c.34,0,.62.28.62.62s-.28.62-.62.62-.62-.28-.62-.62.28-.62.62-.62h0ZM123.2,98.8c.34,0,.62.28.62.62s-.28.62-.62.62-.62-.28-.62-.62.28-.62.62-.62h0ZM125.63,3.19c.34,0,.62.28.62.62s-.28.62-.62.62-.62-.28-.62-.62.28-.62.62-.62h0ZM120.5,3.19c.34,0,.62.28.62.62s-.28.62-.62.62-.62-.28-.62-.62.28-.62.62-.62h0ZM120.5,14.44c.34,0,.62.28.62.62s-.28.62-.62.62-.62-.28-.62-.62.28-.62.62-.62h0ZM120.5,25.69c.34,0,.62.28.62.62s-.28.62-.62.62-.62-.28-.62-.62.28-.62.62-.62h0ZM120.5,36.94c.34,0,.62.28.62.62s-.28.62-.62.62-.62-.28-.62-.62.28-.62.62-.62h0ZM120.5,48.19c.34,0,.62.28.62.62s-.28.62-.62.62-.62-.28-.62-.62.28-.62.62-.62h0ZM120.5,59.44c.34,0,.62.28.62.62s-.28.62-.62.62-.62-.28-.62-.62.28-.62.62-.62h0ZM120.5,70.68c.34,0,.62.28.62.62s-.28.62-.62.62-.62-.28-.62-.62.28-.62.62-.62h0ZM120.5,81.93c.34,0,.62.28.62.62s-.28.62-.62.62-.62-.28-.62-.62.28-.62.62-.62h0ZM120.5,93.18c.34,0,.62.28.62.62s-.28.62-.62.62-.62-.28-.62-.62.28-.62.62-.62h0ZM120.5,104.43c.34,0,.62.28.62.62s-.28.62-.62.62-.62-.28-.62-.62.28-.62.62-.62h0ZM115.37,3.19c.34,0,.62.28.62.62s-.28.62-.62.62-.62-.28-.62-.62.28-.62.62-.62h0ZM115.37,14.44c.34,0,.62.28.62.62s-.28.62-.62.62-.62-.28-.62-.62.28-.62.62-.62h0ZM115.37,25.69c.34,0,.62.28.62.62s-.28.62-.62.62-.62-.28-.62-.62.28-.62.62-.62h0ZM115.37,36.94c.34,0,.62.28.62.62s-.28.62-.62.62-.62-.28-.62-.62.28-.62.62-.62h0ZM115.37,48.19c.34,0,.62.28.62.62s-.28.62-.62.62-.62-.28-.62-.62.28-.62.62-.62h0ZM115.37,59.44c.34,0,.62.28.62.62s-.28.62-.62.62-.62-.28-.62-.62.28-.62.62-.62h0ZM115.37,70.68c.34,0,.62.28.62.62s-.28.62-.62.62-.62-.28-.62-.62.28-.62.62-.62h0ZM115.37,81.93c.34,0,.62.28.62.62s-.28.62-.62.62-.62-.28-.62-.62.28-.62.62-.62h0ZM115.37,93.18c.34,0,.62.28.62.62s-.28.62-.62.62-.62-.28-.62-.62.28-.62.62-.62h0ZM115.37,104.43c.34,0,.62.28.62.62s-.28.62-.62.62-.62-.28-.62-.62.28-.62.62-.62h0ZM110.24,3.19c.34,0,.62.28.62.62s-.28.62-.62.62-.62-.28-.62-.62.28-.62.62-.62h0ZM110.24,14.44c.34,0,.62.28.62.62s-.28.62-.62.62-.62-.28-.62-.62.28-.62.62-.62h0ZM110.24,25.69c.34,0,.62.28.62.62s-.28.62-.62.62-.62-.28-.62-.62.28-.62.62-.62h0ZM110.24,36.94c.34,0,.62.28.62.62s-.28.62-.62.62-.62-.28-.62-.62.28-.62.62-.62h0ZM110.24,48.19c.34,0,.62.28.62.62s-.28.62-.62.62-.62-.28-.62-.62.28-.62.62-.62h0ZM110.24,59.44c.34,0,.62.28.62.62s-.28.62-.62.62-.62-.28-.62-.62.28-.62.62-.62h0ZM110.24,70.68c.34,0,.62.28.62.62s-.28.62-.62.62-.62-.28-.62-.62.28-.62.62-.62h0ZM110.24,81.93c.34,0,.62.28.62.62s-.28.62-.62.62-.62-.28-.62-.62.28-.62.62-.62h0ZM110.24,93.18c.34,0,.62.28.62.62s-.28.62-.62.62-.62-.28-.62-.62.28-.62.62-.62h0ZM110.24,104.43c.34,0,.62.28.62.62s-.28.62-.62.62-.62-.28-.62-.62.28-.62.62-.62h0ZM105.11,3.19c.34,0,.62.28.62.62s-.28.62-.62.62-.62-.28-.62-.62.28-.62.62-.62h0ZM105.11,14.44c.34,0,.62.28.62.62s-.28.62-.62.62-.62-.28-.62-.62.28-.62.62-.62h0ZM105.11,25.69c.34,0,.62.28.62.62s-.28.62-.62.62-.62-.28-.62-.62.28-.62.62-.62h0ZM105.11,36.94c.34,0,.62.28.62.62s-.28.62-.62.62-.62-.28-.62-.62.28-.62.62-.62h0ZM105.11,48.19c.34,0,.62.28.62.62s-.28.62-.62.62-.62-.28-.62-.62.28-.62.62-.62h0ZM105.11,59.44c.34,0,.62.28.62.62s-.28.62-.62.62-.62-.28-.62-.62.28-.62.62-.62h0ZM105.11,70.68c.34,0,.62.28.62.62s-.28.62-.62.62-.62-.28-.62-.62.28-.62.62-.62h0ZM105.11,81.93c.34,0,.62.28.62.62s-.28.62-.62.62-.62-.28-.62-.62.28-.62.62-.62h0ZM105.11,93.18c.34,0,.62.28.62.62s-.28.62-.62.62-.62-.28-.62-.62.28-.62.62-.62h0ZM105.11,104.43c.34,0,.62.28.62.62s-.28.62-.62.62-.62-.28-.62-.62.28-.62.62-.62h0ZM99.98,3.19c.34,0,.62.28.62.62s-.28.62-.62.62-.62-.28-.62-.62.28-.62.62-.62h0ZM99.98,14.44c.34,0,.62.28.62.62s-.28.62-.62.62-.62-.28-.62-.62.28-.62.62-.62h0ZM99.98,25.69c.34,0,.62.28.62.62s-.28.62-.62.62-.62-.28-.62-.62.28-.62.62-.62h0ZM99.98,36.94c.34,0,.62.28.62.62s-.28.62-.62.62-.62-.28-.62-.62.28-.62.62-.62h0ZM99.98,48.19c.34,0,.62.28.62.62s-.28.62-.62.62-.62-.28-.62-.62.28-.62.62-.62h0ZM99.98,59.44c.34,0,.62.28.62.62s-.28.62-.62.62-.62-.28-.62-.62.28-.62.62-.62h0ZM99.98,70.68c.34,0,.62.28.62.62s-.28.62-.62.62-.62-.28-.62-.62.28-.62.62-.62h0ZM99.98,81.93c.34,0,.62.28.62.62s-.28.62-.62.62-.62-.28-.62-.62.28-.62.62-.62h0ZM99.98,93.18c.34,0,.62.28.62.62s-.28.62-.62.62-.62-.28-.62-.62.28-.62.62-.62h0ZM99.98,104.43c.34,0,.62.28.62.62s-.28.62-.62.62-.62-.28-.62-.62.28-.62.62-.62h0ZM94.85,3.19c.34,0,.62.28.62.62s-.28.62-.62.62-.62-.28-.62-.62.28-.62.62-.62h0ZM94.85,14.44c.34,0,.62.28.62.62s-.28.62-.62.62-.62-.28-.62-.62.28-.62.62-.62h0ZM94.85,25.69c.34,0,.62.28.62.62s-.28.62-.62.62-.62-.28-.62-.62.28-.62.62-.62h0ZM94.85,36.94c.34,0,.62.28.62.62s-.28.62-.62.62-.62-.28-.62-.62.28-.62.62-.62h0ZM94.85,48.19c.34,0,.62.28.62.62s-.28.62-.62.62-.62-.28-.62-.62.28-.62.62-.62h0ZM94.85,59.44c.34,0,.62.28.62.62s-.28.62-.62.62-.62-.28-.62-.62.28-.62.62-.62h0ZM94.85,70.68c.34,0,.62.28.62.62s-.28.62-.62.62-.62-.28-.62-.62.28-.62.62-.62h0ZM94.85,81.93c.34,0,.62.28.62.62s-.28.62-.62.62-.62-.28-.62-.62.28-.62.62-.62h0ZM94.85,93.18c.34,0,.62.28.62.62s-.28.62-.62.62-.62-.28-.62-.62.28-.62.62-.62h0ZM94.85,104.43c.34,0,.62.28.62.62s-.28.62-.62.62-.62-.28-.62-.62.28-.62.62-.62h0ZM89.72,3.19c.34,0,.62.28.62.62s-.28.62-.62.62-.62-.28-.62-.62.28-.62.62-.62h0ZM89.72,14.44c.34,0,.62.28.62.62s-.28.62-.62.62-.62-.28-.62-.62.28-.62.62-.62h0ZM84.58,3.19c.34,0,.62.28.62.62s-.28.62-.62.62-.62-.28-.62-.62.28-.62.62-.62h0ZM84.58,14.44c.34,0,.62.28.62.62s-.28.62-.62.62-.62-.28-.62-.62.28-.62.62-.62h0ZM84.58,25.69c.34,0,.62.28.62.62s-.28.62-.62.62-.62-.28-.62-.62.28-.62.62-.62h0ZM84.58,36.94c.34,0,.62.28.62.62s-.28.62-.62.62-.62-.28-.62-.62.28-.62.62-.62h0ZM84.58,48.19c.34,0,.62.28.62.62s-.28.62-.62.62-.62-.28-.62-.62.28-.62.62-.62h0ZM84.58,59.44c.34,0,.62.28.62.62s-.28.62-.62.62-.62-.28-.62-.62.28-.62.62-.62h0ZM84.58,70.68c.34,0,.62.28.62.62s-.28.62-.62.62-.62-.28-.62-.62.28-.62.62-.62h0ZM84.58,81.93c.34,0,.62.28.62.62s-.28.62-.62.62-.62-.28-.62-.62.28-.62.62-.62h0ZM84.58,93.18c.34,0,.62.28.62.62s-.28.62-.62.62-.62-.28-.62-.62.28-.62.62-.62h0ZM84.58,104.43c.34,0,.62.28.62.62s-.28.62-.62.62-.62-.28-.62-.62.28-.62.62-.62h0ZM79.45,3.19c.34,0,.62.28.62.62s-.28.62-.62.62-.62-.28-.62-.62.28-.62.62-.62h0ZM79.45,14.44c.34,0,.62.28.62.62s-.28.62-.62.62-.62-.28-.62-.62.28-.62.62-.62h0ZM79.45,25.69c.34,0,.62.28.62.62s-.28.62-.62.62-.62-.28-.62-.62.28-.62.62-.62h0ZM79.45,36.94c.34,0,.62.28.62.62s-.28.62-.62.62-.62-.28-.62-.62.28-.62.62-.62h0ZM79.45,48.19c.34,0,.62.28.62.62s-.28.62-.62.62-.62-.28-.62-.62.28-.62.62-.62h0ZM79.45,59.44c.34,0,.62.28.62.62s-.28.62-.62.62-.62-.28-.62-.62.28-.62.62-.62h0ZM79.45,70.68c.34,0,.62.28.62.62s-.28.62-.62.62-.62-.28-.62-.62.28-.62.62-.62h0ZM79.45,81.93c.34,0,.62.28.62.62s-.28.62-.62.62-.62-.28-.62-.62.28-.62.62-.62h0ZM79.45,93.18c.34,0,.62.28.62.62s-.28.62-.62.62-.62-.28-.62-.62.28-.62.62-.62h0ZM79.45,104.43c.34,0,.62.28.62.62s-.28.62-.62.62-.62-.28-.62-.62.28-.62.62-.62h0ZM74.32,3.19c.34,0,.62.28.62.62s-.28.62-.62.62-.62-.28-.62-.62.28-.62.62-.62h0ZM74.32,14.44c.34,0,.62.28.62.62s-.28.62-.62.62-.62-.28-.62-.62.28-.62.62-.62h0ZM74.32,25.69c.34,0,.62.28.62.62s-.28.62-.62.62-.62-.28-.62-.62.28-.62.62-.62h0ZM74.32,36.94c.34,0,.62.28.62.62s-.28.62-.62.62-.62-.28-.62-.62.28-.62.62-.62h0ZM74.32,48.19c.34,0,.62.28.62.62s-.28.62-.62.62-.62-.28-.62-.62.28-.62.62-.62h0ZM74.32,59.44c.34,0,.62.28.62.62s-.28.62-.62.62-.62-.28-.62-.62.28-.62.62-.62h0ZM74.32,70.68c.34,0,.62.28.62.62s-.28.62-.62.62-.62-.28-.62-.62.28-.62.62-.62h0ZM74.32,81.93c.34,0,.62.28.62.62s-.28.62-.62.62-.62-.28-.62-.62.28-.62.62-.62h0ZM74.32,93.18c.34,0,.62.28.62.62s-.28.62-.62.62-.62-.28-.62-.62.28-.62.62-.62h0ZM74.32,104.43c.34,0,.62.28.62.62s-.28.62-.62.62-.62-.28-.62-.62.28-.62.62-.62h0ZM69.19,3.19c.34,0,.62.28.62.62s-.28.62-.62.62-.62-.28-.62-.62.28-.62.62-.62h0ZM69.19,14.44c.34,0,.62.28.62.62s-.28.62-.62.62-.62-.28-.62-.62.28-.62.62-.62h0ZM69.19,25.69c.34,0,.62.28.62.62s-.28.62-.62.62-.62-.28-.62-.62.28-.62.62-.62h0ZM69.19,36.94c.34,0,.62.28.62.62s-.28.62-.62.62-.62-.28-.62-.62.28-.62.62-.62h0ZM69.19,59.44c.34,0,.62.28.62.62s-.28.62-.62.62-.62-.28-.62-.62.28-.62.62-.62h0ZM69.19,70.68c.34,0,.62.28.62.62s-.28.62-.62.62-.62-.28-.62-.62.28-.62.62-.62h0ZM69.19,81.93c.34,0,.62.28.62.62s-.28.62-.62.62-.62-.28-.62-.62.28-.62.62-.62h0ZM69.19,93.18c.34,0,.62.28.62.62s-.28.62-.62.62-.62-.28-.62-.62.28-.62.62-.62h0ZM69.19,104.43c.34,0,.62.28.62.62s-.28.62-.62.62-.62-.28-.62-.62.28-.62.62-.62h0ZM64.06,14.44c.34,0,.62.28.62.62s-.28.62-.62.62-.62-.28-.62-.62.28-.62.62-.62h0ZM64.06,25.69c.34,0,.62.28.62.62s-.28.62-.62.62-.62-.28-.62-.62.28-.62.62-.62h0ZM64.06,36.94c.34,0,.62.28.62.62s-.28.62-.62.62-.62-.28-.62-.62.28-.62.62-.62h0ZM64.06,59.44c.34,0,.62.28.62.62s-.28.62-.62.62-.62-.28-.62-.62.28-.62.62-.62h0ZM64.06,70.68c.34,0,.62.28.62.62s-.28.62-.62.62-.62-.28-.62-.62.28-.62.62-.62h0ZM64.06,81.93c.34,0,.62.28.62.62s-.28.62-.62.62-.62-.28-.62-.62.28-.62.62-.62h0ZM64.06,93.18c.34,0,.62.28.62.62s-.28.62-.62.62-.62-.28-.62-.62.28-.62.62-.62h0ZM64.06,104.43c.34,0,.62.28.62.62s-.28.62-.62.62-.62-.28-.62-.62.28-.62.62-.62h0ZM58.93,14.44c.34,0,.62.28.62.62s-.28.62-.62.62-.62-.28-.62-.62.28-.62.62-.62h0ZM58.93,25.69c.34,0,.62.28.62.62s-.28.62-.62.62-.62-.28-.62-.62.28-.62.62-.62h0ZM58.93,36.94c.34,0,.62.28.62.62s-.28.62-.62.62-.62-.28-.62-.62.28-.62.62-.62h0ZM58.93,59.44c.34,0,.62.28.62.62s-.28.62-.62.62-.62-.28-.62-.62.28-.62.62-.62h0ZM58.93,70.68c.34,0,.62.28.62.62s-.28.62-.62.62-.62-.28-.62-.62.28-.62.62-.62h0ZM58.93,81.93c.34,0,.62.28.62.62s-.28.62-.62.62-.62-.28-.62-.62.28-.62.62-.62h0ZM58.93,93.18c.34,0,.62.28.62.62s-.28.62-.62.62-.62-.28-.62-.62.28-.62.62-.62h0ZM58.93,104.43c.34,0,.62.28.62.62s-.28.62-.62.62-.62-.28-.62-.62.28-.62.62-.62h0ZM53.8,25.69c.34,0,.62.28.62.62s-.28.62-.62.62-.62-.28-.62-.62.28-.62.62-.62h0ZM53.8,36.94c.34,0,.62.28.62.62s-.28.62-.62.62-.62-.28-.62-.62.28-.62.62-.62h0ZM53.8,48.19c.34,0,.62.28.62.62s-.28.62-.62.62-.62-.28-.62-.62.28-.62.62-.62h0ZM53.8,59.44c.34,0,.62.28.62.62s-.28.62-.62.62-.62-.28-.62-.62.28-.62.62-.62h0ZM53.8,70.68c.34,0,.62.28.62.62s-.28.62-.62.62-.62-.28-.62-.62.28-.62.62-.62h0ZM53.8,81.93c.34,0,.62.28.62.62s-.28.62-.62.62-.62-.28-.62-.62.28-.62.62-.62h0ZM48.67,25.69c.34,0,.62.28.62.62s-.28.62-.62.62-.62-.28-.62-.62.28-.62.62-.62h0ZM48.67,36.94c.34,0,.62.28.62.62s-.28.62-.62.62-.62-.28-.62-.62.28-.62.62-.62h0ZM48.67,48.19c.34,0,.62.28.62.62s-.28.62-.62.62-.62-.28-.62-.62.28-.62.62-.62h0ZM48.67,70.68c.34,0,.62.28.62.62s-.28.62-.62.62-.62-.28-.62-.62.28-.62.62-.62h0ZM48.67,81.93c.34,0,.62.28.62.62s-.28.62-.62.62-.62-.28-.62-.62.28-.62.62-.62h0ZM43.54,25.69c.34,0,.62.28.62.62s-.28.62-.62.62-.62-.28-.62-.62.28-.62.62-.62h0ZM43.54,36.94c.34,0,.62.28.62.62s-.28.62-.62.62-.62-.28-.62-.62.28-.62.62-.62h0ZM43.54,48.19c.34,0,.62.28.62.62s-.28.62-.62.62-.62-.28-.62-.62.28-.62.62-.62h0ZM43.54,70.68c.34,0,.62.28.62.62s-.28.62-.62.62-.62-.28-.62-.62.28-.62.62-.62h0ZM43.54,81.93c.34,0,.62.28.62.62s-.28.62-.62.62-.62-.28-.62-.62.28-.62.62-.62h0ZM38.4,36.94c.34,0,.62.28.62.62s-.28.62-.62.62-.62-.28-.62-.62.28-.62.62-.62h0ZM38.4,48.19c.34,0,.62.28.62.62s-.28.62-.62.62-.62-.28-.62-.62.28-.62.62-.62h0ZM38.4,70.68c.34,0,.62.28.62.62s-.28.62-.62.62-.62-.28-.62-.62.28-.62.62-.62h0ZM38.4,81.93c.34,0,.62.28.62.62s-.28.62-.62.62-.62-.28-.62-.62.28-.62.62-.62h0ZM38.4,93.18c.34,0,.62.28.62.62s-.28.62-.62.62-.62-.28-.62-.62.28-.62.62-.62h0ZM33.27,36.94c.34,0,.62.28.62.62s-.28.62-.62.62-.62-.28-.62-.62.28-.62.62-.62h0ZM33.27,48.19c.34,0,.62.28.62.62s-.28.62-.62.62-.62-.28-.62-.62.28-.62.62-.62h0ZM33.27,70.68c.34,0,.62.28.62.62s-.28.62-.62.62-.62-.28-.62-.62.28-.62.62-.62h0ZM33.27,81.93c.34,0,.62.28.62.62s-.28.62-.62.62-.62-.28-.62-.62.28-.62.62-.62h0ZM33.27,93.18c.34,0,.62.28.62.62s-.28.62-.62.62-.62-.28-.62-.62.28-.62.62-.62h0ZM28.14,36.94c.34,0,.62.28.62.62s-.28.62-.62.62-.62-.28-.62-.62.28-.62.62-.62h0ZM28.14,48.19c.34,0,.62.28.62.62s-.28.62-.62.62-.62-.28-.62-.62.28-.62.62-.62h0ZM28.14,59.44c.34,0,.62.28.62.62s-.28.62-.62.62-.62-.28-.62-.62.28-.62.62-.62h0ZM28.14,70.68c.34,0,.62.28.62.62s-.28.62-.62.62-.62-.28-.62-.62.28-.62.62-.62h0ZM28.14,81.93c.34,0,.62.28.62.62s-.28.62-.62.62-.62-.28-.62-.62.28-.62.62-.62h0ZM28.14,93.18c.34,0,.62.28.62.62s-.28.62-.62.62-.62-.28-.62-.62.28-.62.62-.62h0ZM23.01,36.94c.34,0,.62.28.62.62s-.28.62-.62.62-.62-.28-.62-.62.28-.62.62-.62h0ZM23.01,48.19c.34,0,.62.28.62.62s-.28.62-.62.62-.62-.28-.62-.62.28-.62.62-.62h0ZM23.01,59.44c.34,0,.62.28.62.62s-.28.62-.62.62-.62-.28-.62-.62.28-.62.62-.62h0ZM23.01,70.68c.34,0,.62.28.62.62s-.28.62-.62.62-.62-.28-.62-.62.28-.62.62-.62h0ZM23.01,81.93c.34,0,.62.28.62.62s-.28.62-.62.62-.62-.28-.62-.62.28-.62.62-.62h0ZM23.01,93.18c.34,0,.62.28.62.62s-.28.62-.62.62-.62-.28-.62-.62.28-.62.62-.62h0ZM17.88,36.94c.34,0,.62.28.62.62s-.28.62-.62.62-.62-.28-.62-.62.28-.62.62-.62h0ZM17.88,48.19c.34,0,.62.28.62.62s-.28.62-.62.62-.62-.28-.62-.62.28-.62.62-.62h0ZM17.88,59.44c.34,0,.62.28.62.62s-.28.62-.62.62-.62-.28-.62-.62.28-.62.62-.62h0ZM17.88,70.68c.34,0,.62.28.62.62s-.28.62-.62.62-.62-.28-.62-.62.28-.62.62-.62h0ZM17.88,81.93c.34,0,.62.28.62.62s-.28.62-.62.62-.62-.28-.62-.62.28-.62.62-.62h0ZM17.88,93.18c.34,0,.62.28.62.62s-.28.62-.62.62-.62-.28-.62-.62.28-.62.62-.62h0ZM12.75,36.94c.34,0,.62.28.62.62s-.28.62-.62.62-.62-.28-.62-.62.28-.62.62-.62h0ZM12.75,48.19c.34,0,.62.28.62.62s-.28.62-.62.62-.62-.28-.62-.62.28-.62.62-.62h0ZM12.75,59.44c.34,0,.62.28.62.62s-.28.62-.62.62-.62-.28-.62-.62.28-.62.62-.62h0ZM12.75,81.93c.34,0,.62.28.62.62s-.28.62-.62.62-.62-.28-.62-.62.28-.62.62-.62h0ZM12.75,93.18c.34,0,.62.28.62.62s-.28.62-.62.62-.62-.28-.62-.62.28-.62.62-.62h0ZM7.62,48.19c.34,0,.62.28.62.62s-.28.62-.62.62-.62-.28-.62-.62.28-.62.62-.62h0ZM7.62,59.44c.34,0,.62.28.62.62s-.28.62-.62.62-.62-.28-.62-.62.28-.62.62-.62h0ZM7.62,81.93c.34,0,.62.28.62.62s-.28.62-.62.62-.62-.28-.62-.62.28-.62.62-.62h0ZM7.62,93.18c.34,0,.62.28.62.62s-.28.62-.62.62-.62-.28-.62-.62.28-.62.62-.62h0ZM2.49,48.19c.34,0,.62.28.62.62s-.28.62-.62.62-.62-.28-.62-.62.28-.62.62-.62h0ZM2.49,59.44c.34,0,.62.28.62.62s-.28.62-.62.62-.62-.28-.62-.62.28-.62.62-.62h0ZM2.49,81.93c.34,0,.62.28.62.62s-.28.62-.62.62-.62-.28-.62-.62.28-.62.62-.62h0ZM2.49,93.18c.34,0,.62.28.62.62s-.28.62-.62.62-.62-.28-.62-.62.28-.62.62-.62h0ZM56.49,110.05c.34,0,.62.28.62.62s-.28.62-.62.62-.62-.28-.62-.62.28-.62.62-.62h0ZM61.62,110.05c.34,0,.62.28.62.62s-.28.62-.62.62-.62-.28-.62-.62.28-.62.62-.62h0ZM66.76,110.05c.34,0,.62.28.62.62s-.28.62-.62.62-.62-.28-.62-.62.28-.62.62-.62h0ZM71.89,110.05c.34,0,.62.28.62.62s-.28.62-.62.62-.62-.28-.62-.62.28-.62.62-.62h0ZM77.02,110.05c.34,0,.62.28.62.62s-.28.62-.62.62-.62-.28-.62-.62.28-.62.62-.62h0ZM82.15,110.05c.34,0,.62.28.62.62s-.28.62-.62.62-.62-.28-.62-.62.28-.62.62-.62h0ZM97.54,110.05c.34,0,.62.28.62.62s-.28.62-.62.62-.62-.28-.62-.62.28-.62.62-.62h0ZM102.67,110.05c.34,0,.62.28.62.62s-.28.62-.62.62-.62-.28-.62-.62.28-.62.62-.62h0ZM107.8,110.05c.34,0,.62.28.62.62s-.28.62-.62.62-.62-.28-.62-.62.28-.62.62-.62h0ZM112.93,110.05c.34,0,.62.28.62.62s-.28.62-.62.62-.62-.28-.62-.62.28-.62.62-.62h0ZM118.07,110.05c.34,0,.62.28.62.62s-.28.62-.62.62-.62-.28-.62-.62.28-.62.62-.62h0ZM123.2,110.05c.34,0,.62.28.62.62s-.28.62-.62.62-.62-.28-.62-.62.28-.62.62-.62h0ZM56.49,121.3c.34,0,.62.28.62.62s-.28.62-.62.62-.62-.28-.62-.62.28-.62.62-.62h0ZM61.62,121.3c.34,0,.62.28.62.62s-.28.62-.62.62-.62-.28-.62-.62.28-.62.62-.62h0ZM66.76,121.3c.34,0,.62.28.62.62s-.28.62-.62.62-.62-.28-.62-.62.28-.62.62-.62h0ZM71.89,121.3c.34,0,.62.28.62.62s-.28.62-.62.62-.62-.28-.62-.62.28-.62.62-.62h0ZM77.02,121.3c.34,0,.62.28.62.62s-.28.62-.62.62-.62-.28-.62-.62.28-.62.62-.62h0ZM82.15,121.3c.34,0,.62.28.62.62s-.28.62-.62.62-.62-.28-.62-.62.28-.62.62-.62h0ZM97.54,121.3c.34,0,.62.28.62.62s-.28.62-.62.62-.62-.28-.62-.62.28-.62.62-.62h0ZM102.67,121.3c.34,0,.62.28.62.62s-.28.62-.62.62-.62-.28-.62-.62.28-.62.62-.62h0ZM107.8,121.3c.34,0,.62.28.62.62s-.28.62-.62.62-.62-.28-.62-.62.28-.62.62-.62h0ZM112.93,121.3c.34,0,.62.28.62.62s-.28.62-.62.62-.62-.28-.62-.62.28-.62.62-.62h0ZM118.07,121.3c.34,0,.62.28.62.62s-.28.62-.62.62-.62-.28-.62-.62.28-.62.62-.62h0ZM123.2,121.3c.34,0,.62.28.62.62s-.28.62-.62.62-.62-.28-.62-.62.28-.62.62-.62h0ZM56.49,132.55c.34,0,.62.28.62.62s-.28.62-.62.62-.62-.28-.62-.62.28-.62.62-.62h0ZM61.62,132.55c.34,0,.62.28.62.62s-.28.62-.62.62-.62-.28-.62-.62.28-.62.62-.62h0ZM66.76,132.55c.34,0,.62.28.62.62s-.28.62-.62.62-.62-.28-.62-.62.28-.62.62-.62h0ZM71.89,132.55c.34,0,.62.28.62.62s-.28.62-.62.62-.62-.28-.62-.62.28-.62.62-.62h0ZM77.02,132.55c.34,0,.62.28.62.62s-.28.62-.62.62-.62-.28-.62-.62.28-.62.62-.62h0ZM82.15,132.55c.34,0,.62.28.62.62s-.28.62-.62.62-.62-.28-.62-.62.28-.62.62-.62h0ZM97.54,132.55c.34,0,.62.28.62.62s-.28.62-.62.62-.62-.28-.62-.62.28-.62.62-.62h0ZM102.67,132.55c.34,0,.62.28.62.62s-.28.62-.62.62-.62-.28-.62-.62.28-.62.62-.62h0ZM107.8,132.55c.34,0,.62.28.62.62s-.28.62-.62.62-.62-.28-.62-.62.28-.62.62-.62h0ZM112.93,132.55c.34,0,.62.28.62.62s-.28.62-.62.62-.62-.28-.62-.62.28-.62.62-.62h0ZM118.07,132.55c.34,0,.62.28.62.62s-.28.62-.62.62-.62-.28-.62-.62.28-.62.62-.62h0ZM123.2,132.55c.34,0,.62.28.62.62s-.28.62-.62.62-.62-.28-.62-.62.28-.62.62-.62h0ZM56.49,143.8c.34,0,.62.28.62.62s-.28.62-.62.62-.62-.28-.62-.62.28-.62.62-.62h0ZM61.62,143.8c.34,0,.62.28.62.62s-.28.62-.62.62-.62-.28-.62-.62.28-.62.62-.62h0ZM66.76,143.8c.34,0,.62.28.62.62s-.28.62-.62.62-.62-.28-.62-.62.28-.62.62-.62h0ZM71.89,143.8c.34,0,.62.28.62.62s-.28.62-.62.62-.62-.28-.62-.62.28-.62.62-.62h0ZM77.02,143.8c.34,0,.62.28.62.62s-.28.62-.62.62-.62-.28-.62-.62.28-.62.62-.62h0ZM82.15,143.8c.34,0,.62.28.62.62s-.28.62-.62.62-.62-.28-.62-.62.28-.62.62-.62h0ZM97.54,143.8c.34,0,.62.28.62.62s-.28.62-.62.62-.62-.28-.62-.62.28-.62.62-.62h0ZM102.67,143.8c.34,0,.62.28.62.62s-.28.62-.62.62-.62-.28-.62-.62.28-.62.62-.62h0ZM107.8,143.8c.34,0,.62.28.62.62s-.28.62-.62.62-.62-.28-.62-.62.28-.62.62-.62h0ZM112.93,143.8c.34,0,.62.28.62.62s-.28.62-.62.62-.62-.28-.62-.62.28-.62.62-.62h0ZM118.07,143.8c.34,0,.62.28.62.62s-.28.62-.62.62-.62-.28-.62-.62.28-.62.62-.62h0ZM123.2,143.8c.34,0,.62.28.62.62s-.28.62-.62.62-.62-.28-.62-.62.28-.62.62-.62h0ZM56.49,155.04c.34,0,.62.28.62.62s-.28.62-.62.62-.62-.28-.62-.62.28-.62.62-.62h0ZM61.62,155.04c.34,0,.62.28.62.62s-.28.62-.62.62-.62-.28-.62-.62.28-.62.62-.62h0ZM66.76,155.04c.34,0,.62.28.62.62s-.28.62-.62.62-.62-.28-.62-.62.28-.62.62-.62h0ZM71.89,155.04c.34,0,.62.28.62.62s-.28.62-.62.62-.62-.28-.62-.62.28-.62.62-.62h0ZM77.02,155.04c.34,0,.62.28.62.62s-.28.62-.62.62-.62-.28-.62-.62.28-.62.62-.62h0ZM82.15,155.04c.34,0,.62.28.62.62s-.28.62-.62.62-.62-.28-.62-.62.28-.62.62-.62h0ZM97.54,155.04c.34,0,.62.28.62.62s-.28.62-.62.62-.62-.28-.62-.62.28-.62.62-.62h0ZM102.67,155.04c.34,0,.62.28.62.62s-.28.62-.62.62-.62-.28-.62-.62.28-.62.62-.62h0ZM107.8,155.04c.34,0,.62.28.62.62s-.28.62-.62.62-.62-.28-.62-.62.28-.62.62-.62h0ZM112.93,155.04c.34,0,.62.28.62.62s-.28.62-.62.62-.62-.28-.62-.62.28-.62.62-.62h0ZM118.07,155.04c.34,0,.62.28.62.62s-.28.62-.62.62-.62-.28-.62-.62.28-.62.62-.62h0ZM123.2,155.04c.34,0,.62.28.62.62s-.28.62-.62.62-.62-.28-.62-.62.28-.62.62-.62h0ZM56.49,166.29c.34,0,.62.28.62.62s-.28.62-.62.62-.62-.28-.62-.62.28-.62.62-.62h0ZM61.62,166.29c.34,0,.62.28.62.62s-.28.62-.62.62-.62-.28-.62-.62.28-.62.62-.62h0ZM66.76,166.29c.34,0,.62.28.62.62s-.28.62-.62.62-.62-.28-.62-.62.28-.62.62-.62h0ZM71.89,166.29c.34,0,.62.28.62.62s-.28.62-.62.62-.62-.28-.62-.62.28-.62.62-.62h0ZM77.02,166.29c.34,0,.62.28.62.62s-.28.62-.62.62-.62-.28-.62-.62.28-.62.62-.62h0ZM82.15,166.29c.34,0,.62.28.62.62s-.28.62-.62.62-.62-.28-.62-.62.28-.62.62-.62h0ZM97.54,166.29c.34,0,.62.28.62.62s-.28.62-.62.62-.62-.28-.62-.62.28-.62.62-.62h0ZM102.67,166.29c.34,0,.62.28.62.62s-.28.62-.62.62-.62-.28-.62-.62.28-.62.62-.62h0ZM107.8,166.29c.34,0,.62.28.62.62s-.28.62-.62.62-.62-.28-.62-.62.28-.62.62-.62h0ZM112.93,166.29c.34,0,.62.28.62.62s-.28.62-.62.62-.62-.28-.62-.62.28-.62.62-.62h0ZM118.07,166.29c.34,0,.62.28.62.62s-.28.62-.62.62-.62-.28-.62-.62.28-.62.62-.62h0ZM123.2,166.29c.34,0,.62.28.62.62s-.28.62-.62.62-.62-.28-.62-.62.28-.62.62-.62h0ZM56.49,177.54c.34,0,.62.28.62.62s-.28.62-.62.62-.62-.28-.62-.62.28-.62.62-.62h0ZM61.62,177.54c.34,0,.62.28.62.62s-.28.62-.62.62-.62-.28-.62-.62.28-.62.62-.62h0ZM66.76,177.54c.34,0,.62.28.62.62s-.28.62-.62.62-.62-.28-.62-.62.28-.62.62-.62h0ZM71.89,177.54c.34,0,.62.28.62.62s-.28.62-.62.62-.62-.28-.62-.62.28-.62.62-.62h0ZM77.02,177.54c.34,0,.62.28.62.62s-.28.62-.62.62-.62-.28-.62-.62.28-.62.62-.62h0ZM82.15,177.54c.34,0,.62.28.62.62s-.28.62-.62.62-.62-.28-.62-.62.28-.62.62-.62h0ZM97.54,177.54c.34,0,.62.28.62.62s-.28.62-.62.62-.62-.28-.62-.62.28-.62.62-.62h0ZM102.67,177.54c.34,0,.62.28.62.62s-.28.62-.62.62-.62-.28-.62-.62.28-.62.62-.62h0ZM107.8,177.54c.34,0,.62.28.62.62s-.28.62-.62.62-.62-.28-.62-.62.28-.62.62-.62h0ZM112.93,177.54c.34,0,.62.28.62.62s-.28.62-.62.62-.62-.28-.62-.62.28-.62.62-.62h0ZM118.07,177.54c.34,0,.62.28.62.62s-.28.62-.62.62-.62-.28-.62-.62.28-.62.62-.62h0ZM123.2,177.54c.34,0,.62.28.62.62s-.28.62-.62.62-.62-.28-.62-.62.28-.62.62-.62h0ZM56.49,188.79c.34,0,.62.28.62.62s-.28.62-.62.62-.62-.28-.62-.62.28-.62.62-.62h0ZM61.62,188.79c.34,0,.62.28.62.62s-.28.62-.62.62-.62-.28-.62-.62.28-.62.62-.62h0ZM66.76,188.79c.34,0,.62.28.62.62s-.28.62-.62.62-.62-.28-.62-.62.28-.62.62-.62h0ZM71.89,188.79c.34,0,.62.28.62.62s-.28.62-.62.62-.62-.28-.62-.62.28-.62.62-.62h0ZM77.02,188.79c.34,0,.62.28.62.62s-.28.62-.62.62-.62-.28-.62-.62.28-.62.62-.62h0ZM82.15,188.79c.34,0,.62.28.62.62s-.28.62-.62.62-.62-.28-.62-.62.28-.62.62-.62h0ZM97.54,188.79c.34,0,.62.28.62.62s-.28.62-.62.62-.62-.28-.62-.62.28-.62.62-.62h0ZM102.67,188.79c.34,0,.62.28.62.62s-.28.62-.62.62-.62-.28-.62-.62.28-.62.62-.62h0ZM107.8,188.79c.34,0,.62.28.62.62s-.28.62-.62.62-.62-.28-.62-.62.28-.62.62-.62h0ZM112.93,188.79c.34,0,.62.28.62.62s-.28.62-.62.62-.62-.28-.62-.62.28-.62.62-.62h0ZM118.07,188.79c.34,0,.62.28.62.62s-.28.62-.62.62-.62-.28-.62-.62.28-.62.62-.62h0ZM123.2,188.79c.34,0,.62.28.62.62s-.28.62-.62.62-.62-.28-.62-.62.28-.62.62-.62h0ZM56.49,200.03c.34,0,.62.28.62.62s-.28.62-.62.62-.62-.28-.62-.62.28-.62.62-.62h0ZM61.62,200.03c.34,0,.62.28.62.62s-.28.62-.62.62-.62-.28-.62-.62.28-.62.62-.62h0ZM66.76,200.03c.34,0,.62.28.62.62s-.28.62-.62.62-.62-.28-.62-.62.28-.62.62-.62h0ZM71.89,200.03c.34,0,.62.28.62.62s-.28.62-.62.62-.62-.28-.62-.62.28-.62.62-.62h0ZM77.02,200.03c.34,0,.62.28.62.62s-.28.62-.62.62-.62-.28-.62-.62.28-.62.62-.62h0ZM82.15,200.03c.34,0,.62.28.62.62s-.28.62-.62.62-.62-.28-.62-.62.28-.62.62-.62h0ZM97.54,200.03c.34,0,.62.28.62.62s-.28.62-.62.62-.62-.28-.62-.62.28-.62.62-.62h0ZM102.67,200.03c.34,0,.62.28.62.62s-.28.62-.62.62-.62-.28-.62-.62.28-.62.62-.62h0ZM107.8,200.03c.34,0,.62.28.62.62s-.28.62-.62.62-.62-.28-.62-.62.28-.62.62-.62h0ZM112.93,200.03c.34,0,.62.28.62.62s-.28.62-.62.62-.62-.28-.62-.62.28-.62.62-.62h0ZM118.07,200.03c.34,0,.62.28.62.62s-.28.62-.62.62-.62-.28-.62-.62.28-.62.62-.62h0ZM123.2,200.03c.34,0,.62.28.62.62s-.28.62-.62.62-.62-.28-.62-.62.28-.62.62-.62h0ZM56.49,211.28c.34,0,.62.28.62.62s-.28.62-.62.62-.62-.28-.62-.62.28-.62.62-.62h0ZM61.62,211.28c.34,0,.62.28.62.62s-.28.62-.62.62-.62-.28-.62-.62.28-.62.62-.62h0ZM66.76,211.28c.34,0,.62.28.62.62s-.28.62-.62.62-.62-.28-.62-.62.28-.62.62-.62h0ZM71.89,211.28c.34,0,.62.28.62.62s-.28.62-.62.62-.62-.28-.62-.62.28-.62.62-.62h0ZM77.02,211.28c.34,0,.62.28.62.62s-.28.62-.62.62-.62-.28-.62-.62.28-.62.62-.62h0ZM82.15,211.28c.34,0,.62.28.62.62s-.28.62-.62.62-.62-.28-.62-.62.28-.62.62-.62h0ZM97.54,211.28c.34,0,.62.28.62.62s-.28.62-.62.62-.62-.28-.62-.62.28-.62.62-.62h0ZM102.67,211.28c.34,0,.62.28.62.62s-.28.62-.62.62-.62-.28-.62-.62.28-.62.62-.62h0ZM107.8,211.28c.34,0,.62.28.62.62s-.28.62-.62.62-.62-.28-.62-.62.28-.62.62-.62h0ZM112.93,211.28c.34,0,.62.28.62.62s-.28.62-.62.62-.62-.28-.62-.62.28-.62.62-.62h0ZM118.07,211.28c.34,0,.62.28.62.62s-.28.62-.62.62-.62-.28-.62-.62.28-.62.62-.62h0ZM123.2,211.28c.34,0,.62.28.62.62s-.28.62-.62.62-.62-.28-.62-.62.28-.62.62-.62h0ZM56.49,222.53c.34,0,.62.28.62.62s-.28.62-.62.62-.62-.28-.62-.62.28-.62.62-.62h0ZM61.62,222.53c.34,0,.62.28.62.62s-.28.62-.62.62-.62-.28-.62-.62.28-.62.62-.62h0ZM66.76,222.53c.34,0,.62.28.62.62s-.28.62-.62.62-.62-.28-.62-.62.28-.62.62-.62h0ZM71.89,222.53c.34,0,.62.28.62.62s-.28.62-.62.62-.62-.28-.62-.62.28-.62.62-.62h0ZM77.02,222.53c.34,0,.62.28.62.62s-.28.62-.62.62-.62-.28-.62-.62.28-.62.62-.62h0ZM82.15,222.53c.34,0,.62.28.62.62s-.28.62-.62.62-.62-.28-.62-.62.28-.62.62-.62h0ZM97.54,222.53c.34,0,.62.28.62.62s-.28.62-.62.62-.62-.28-.62-.62.28-.62.62-.62h0ZM102.67,222.53c.34,0,.62.28.62.62s-.28.62-.62.62-.62-.28-.62-.62.28-.62.62-.62h0ZM107.8,222.53c.34,0,.62.28.62.62s-.28.62-.62.62-.62-.28-.62-.62.28-.62.62-.62h0ZM112.93,222.53c.34,0,.62.28.62.62s-.28.62-.62.62-.62-.28-.62-.62.28-.62.62-.62h0ZM118.07,222.53c.34,0,.62.28.62.62s-.28.62-.62.62-.62-.28-.62-.62.28-.62.62-.62h0ZM123.2,222.53c.34,0,.62.28.62.62s-.28.62-.62.62-.62-.28-.62-.62.28-.62.62-.62h0ZM56.49,233.78c.34,0,.62.28.62.62s-.28.62-.62.62-.62-.28-.62-.62.28-.62.62-.62h0ZM61.62,233.78c.34,0,.62.28.62.62s-.28.62-.62.62-.62-.28-.62-.62.28-.62.62-.62h0ZM66.76,233.78c.34,0,.62.28.62.62s-.28.62-.62.62-.62-.28-.62-.62.28-.62.62-.62h0ZM71.89,233.78c.34,0,.62.28.62.62s-.28.62-.62.62-.62-.28-.62-.62.28-.62.62-.62h0ZM77.02,233.78c.34,0,.62.28.62.62s-.28.62-.62.62-.62-.28-.62-.62.28-.62.62-.62h0ZM82.15,233.78c.34,0,.62.28.62.62s-.28.62-.62.62-.62-.28-.62-.62.28-.62.62-.62h0ZM97.54,233.78c.34,0,.62.28.62.62s-.28.62-.62.62-.62-.28-.62-.62.28-.62.62-.62h0ZM102.67,233.78c.34,0,.62.28.62.62s-.28.62-.62.62-.62-.28-.62-.62.28-.62.62-.62h0ZM107.8,233.78c.34,0,.62.28.62.62s-.28.62-.62.62-.62-.28-.62-.62.28-.62.62-.62h0ZM112.93,233.78c.34,0,.62.28.62.62s-.28.62-.62.62-.62-.28-.62-.62.28-.62.62-.62h0ZM118.07,233.78c.34,0,.62.28.62.62s-.28.62-.62.62-.62-.28-.62-.62.28-.62.62-.62h0ZM123.2,233.78c.34,0,.62.28.62.62s-.28.62-.62.62-.62-.28-.62-.62.28-.62.62-.62h0ZM120.5,115.68c.34,0,.62.28.62.62s-.28.62-.62.62-.62-.28-.62-.62.28-.62.62-.62h0ZM120.5,126.92c.34,0,.62.28.62.62s-.28.62-.62.62-.62-.28-.62-.62.28-.62.62-.62h0ZM120.5,138.17c.34,0,.62.28.62.62s-.28.62-.62.62-.62-.28-.62-.62.28-.62.62-.62h0ZM120.5,149.42c.34,0,.62.28.62.62s-.28.62-.62.62-.62-.28-.62-.62.28-.62.62-.62h0ZM120.5,160.67c.34,0,.62.28.62.62s-.28.62-.62.62-.62-.28-.62-.62.28-.62.62-.62h0ZM120.5,171.92c.34,0,.62.28.62.62s-.28.62-.62.62-.62-.28-.62-.62.28-.62.62-.62h0ZM120.5,183.16c.34,0,.62.28.62.62s-.28.62-.62.62-.62-.28-.62-.62.28-.62.62-.62h0ZM120.5,194.41c.34,0,.62.28.62.62s-.28.62-.62.62-.62-.28-.62-.62.28-.62.62-.62h0ZM120.5,205.66c.34,0,.62.28.62.62s-.28.62-.62.62-.62-.28-.62-.62.28-.62.62-.62h0ZM120.5,216.91c.34,0,.62.28.62.62s-.28.62-.62.62-.62-.28-.62-.62.28-.62.62-.62h0ZM120.5,228.16c.34,0,.62.28.62.62s-.28.62-.62.62-.62-.28-.62-.62.28-.62.62-.62h0ZM115.37,115.68c.34,0,.62.28.62.62s-.28.62-.62.62-.62-.28-.62-.62.28-.62.62-.62h0ZM115.37,126.92c.34,0,.62.28.62.62s-.28.62-.62.62-.62-.28-.62-.62.28-.62.62-.62h0ZM115.37,138.17c.34,0,.62.28.62.62s-.28.62-.62.62-.62-.28-.62-.62.28-.62.62-.62h0ZM115.37,149.42c.34,0,.62.28.62.62s-.28.62-.62.62-.62-.28-.62-.62.28-.62.62-.62h0ZM115.37,160.67c.34,0,.62.28.62.62s-.28.62-.62.62-.62-.28-.62-.62.28-.62.62-.62h0ZM115.37,171.92c.34,0,.62.28.62.62s-.28.62-.62.62-.62-.28-.62-.62.28-.62.62-.62h0ZM115.37,183.16c.34,0,.62.28.62.62s-.28.62-.62.62-.62-.28-.62-.62.28-.62.62-.62h0ZM115.37,194.41c.34,0,.62.28.62.62s-.28.62-.62.62-.62-.28-.62-.62.28-.62.62-.62h0ZM115.37,205.66c.34,0,.62.28.62.62s-.28.62-.62.62-.62-.28-.62-.62.28-.62.62-.62h0ZM115.37,216.91c.34,0,.62.28.62.62s-.28.62-.62.62-.62-.28-.62-.62.28-.62.62-.62h0ZM115.37,228.16c.34,0,.62.28.62.62s-.28.62-.62.62-.62-.28-.62-.62.28-.62.62-.62h0ZM110.24,115.68c.34,0,.62.28.62.62s-.28.62-.62.62-.62-.28-.62-.62.28-.62.62-.62h0ZM110.24,126.92c.34,0,.62.28.62.62s-.28.62-.62.62-.62-.28-.62-.62.28-.62.62-.62h0ZM110.24,138.17c.34,0,.62.28.62.62s-.28.62-.62.62-.62-.28-.62-.62.28-.62.62-.62h0ZM110.24,149.42c.34,0,.62.28.62.62s-.28.62-.62.62-.62-.28-.62-.62.28-.62.62-.62h0ZM110.24,160.67c.34,0,.62.28.62.62s-.28.62-.62.62-.62-.28-.62-.62.28-.62.62-.62h0ZM110.24,171.92c.34,0,.62.28.62.62s-.28.62-.62.62-.62-.28-.62-.62.28-.62.62-.62h0ZM110.24,183.16c.34,0,.62.28.62.62s-.28.62-.62.62-.62-.28-.62-.62.28-.62.62-.62h0ZM110.24,194.41c.34,0,.62.28.62.62s-.28.62-.62.62-.62-.28-.62-.62.28-.62.62-.62h0ZM110.24,205.66c.34,0,.62.28.62.62s-.28.62-.62.62-.62-.28-.62-.62.28-.62.62-.62h0ZM110.24,216.91c.34,0,.62.28.62.62s-.28.62-.62.62-.62-.28-.62-.62.28-.62.62-.62h0ZM110.24,228.16c.34,0,.62.28.62.62s-.28.62-.62.62-.62-.28-.62-.62.28-.62.62-.62h0ZM105.11,115.68c.34,0,.62.28.62.62s-.28.62-.62.62-.62-.28-.62-.62.28-.62.62-.62h0ZM105.11,126.92c.34,0,.62.28.62.62s-.28.62-.62.62-.62-.28-.62-.62.28-.62.62-.62h0ZM105.11,138.17c.34,0,.62.28.62.62s-.28.62-.62.62-.62-.28-.62-.62.28-.62.62-.62h0ZM105.11,149.42c.34,0,.62.28.62.62s-.28.62-.62.62-.62-.28-.62-.62.28-.62.62-.62h0ZM105.11,160.67c.34,0,.62.28.62.62s-.28.62-.62.62-.62-.28-.62-.62.28-.62.62-.62h0ZM105.11,171.92c.34,0,.62.28.62.62s-.28.62-.62.62-.62-.28-.62-.62.28-.62.62-.62h0ZM105.11,183.16c.34,0,.62.28.62.62s-.28.62-.62.62-.62-.28-.62-.62.28-.62.62-.62h0ZM105.11,194.41c.34,0,.62.28.62.62s-.28.62-.62.62-.62-.28-.62-.62.28-.62.62-.62h0ZM105.11,205.66c.34,0,.62.28.62.62s-.28.62-.62.62-.62-.28-.62-.62.28-.62.62-.62h0ZM105.11,216.91c.34,0,.62.28.62.62s-.28.62-.62.62-.62-.28-.62-.62.28-.62.62-.62h0ZM105.11,228.16c.34,0,.62.28.62.62s-.28.62-.62.62-.62-.28-.62-.62.28-.62.62-.62h0ZM99.98,115.68c.34,0,.62.28.62.62s-.28.62-.62.62-.62-.28-.62-.62.28-.62.62-.62h0ZM99.98,126.92c.34,0,.62.28.62.62s-.28.62-.62.62-.62-.28-.62-.62.28-.62.62-.62h0ZM99.98,138.17c.34,0,.62.28.62.62s-.28.62-.62.62-.62-.28-.62-.62.28-.62.62-.62h0ZM99.98,149.42c.34,0,.62.28.62.62s-.28.62-.62.62-.62-.28-.62-.62.28-.62.62-.62h0ZM99.98,160.67c.34,0,.62.28.62.62s-.28.62-.62.62-.62-.28-.62-.62.28-.62.62-.62h0ZM99.98,171.92c.34,0,.62.28.62.62s-.28.62-.62.62-.62-.28-.62-.62.28-.62.62-.62h0ZM99.98,183.16c.34,0,.62.28.62.62s-.28.62-.62.62-.62-.28-.62-.62.28-.62.62-.62h0ZM99.98,194.41c.34,0,.62.28.62.62s-.28.62-.62.62-.62-.28-.62-.62.28-.62.62-.62h0ZM99.98,205.66c.34,0,.62.28.62.62s-.28.62-.62.62-.62-.28-.62-.62.28-.62.62-.62h0ZM99.98,216.91c.34,0,.62.28.62.62s-.28.62-.62.62-.62-.28-.62-.62.28-.62.62-.62h0ZM99.98,228.16c.34,0,.62.28.62.62s-.28.62-.62.62-.62-.28-.62-.62.28-.62.62-.62h0ZM94.85,115.68c.34,0,.62.28.62.62s-.28.62-.62.62-.62-.28-.62-.62.28-.62.62-.62h0ZM94.85,126.92c.34,0,.62.28.62.62s-.28.62-.62.62-.62-.28-.62-.62.28-.62.62-.62h0ZM94.85,138.17c.34,0,.62.28.62.62s-.28.62-.62.62-.62-.28-.62-.62.28-.62.62-.62h0ZM94.85,149.42c.34,0,.62.28.62.62s-.28.62-.62.62-.62-.28-.62-.62.28-.62.62-.62h0ZM94.85,160.67c.34,0,.62.28.62.62s-.28.62-.62.62-.62-.28-.62-.62.28-.62.62-.62h0ZM94.85,171.92c.34,0,.62.28.62.62s-.28.62-.62.62-.62-.28-.62-.62.28-.62.62-.62h0ZM94.85,183.16c.34,0,.62.28.62.62s-.28.62-.62.62-.62-.28-.62-.62.28-.62.62-.62h0ZM94.85,194.41c.34,0,.62.28.62.62s-.28.62-.62.62-.62-.28-.62-.62.28-.62.62-.62h0ZM94.85,205.66c.34,0,.62.28.62.62s-.28.62-.62.62-.62-.28-.62-.62.28-.62.62-.62h0ZM94.85,216.91c.34,0,.62.28.62.62s-.28.62-.62.62-.62-.28-.62-.62.28-.62.62-.62h0ZM94.85,228.16c.34,0,.62.28.62.62s-.28.62-.62.62-.62-.28-.62-.62.28-.62.62-.62h0ZM84.58,115.68c.34,0,.62.28.62.62s-.28.62-.62.62-.62-.28-.62-.62.28-.62.62-.62h0ZM84.58,126.92c.34,0,.62.28.62.62s-.28.62-.62.62-.62-.28-.62-.62.28-.62.62-.62h0ZM84.58,138.17c.34,0,.62.28.62.62s-.28.62-.62.62-.62-.28-.62-.62.28-.62.62-.62h0ZM84.58,149.42c.34,0,.62.28.62.62s-.28.62-.62.62-.62-.28-.62-.62.28-.62.62-.62h0ZM84.58,160.67c.34,0,.62.28.62.62s-.28.62-.62.62-.62-.28-.62-.62.28-.62.62-.62h0ZM84.58,171.92c.34,0,.62.28.62.62s-.28.62-.62.62-.62-.28-.62-.62.28-.62.62-.62h0ZM84.58,183.16c.34,0,.62.28.62.62s-.28.62-.62.62-.62-.28-.62-.62.28-.62.62-.62h0ZM84.58,194.41c.34,0,.62.28.62.62s-.28.62-.62.62-.62-.28-.62-.62.28-.62.62-.62h0ZM84.58,205.66c.34,0,.62.28.62.62s-.28.62-.62.62-.62-.28-.62-.62.28-.62.62-.62h0ZM84.58,216.91c.34,0,.62.28.62.62s-.28.62-.62.62-.62-.28-.62-.62.28-.62.62-.62h0ZM84.58,228.16c.34,0,.62.28.62.62s-.28.62-.62.62-.62-.28-.62-.62.28-.62.62-.62h0ZM79.45,115.68c.34,0,.62.28.62.62s-.28.62-.62.62-.62-.28-.62-.62.28-.62.62-.62h0ZM79.45,126.92c.34,0,.62.28.62.62s-.28.62-.62.62-.62-.28-.62-.62.28-.62.62-.62h0ZM79.45,138.17c.34,0,.62.28.62.62s-.28.62-.62.62-.62-.28-.62-.62.28-.62.62-.62h0ZM79.45,149.42c.34,0,.62.28.62.62s-.28.62-.62.62-.62-.28-.62-.62.28-.62.62-.62h0ZM79.45,160.67c.34,0,.62.28.62.62s-.28.62-.62.62-.62-.28-.62-.62.28-.62.62-.62h0ZM79.45,171.92c.34,0,.62.28.62.62s-.28.62-.62.62-.62-.28-.62-.62.28-.62.62-.62h0ZM79.45,183.16c.34,0,.62.28.62.62s-.28.62-.62.62-.62-.28-.62-.62.28-.62.62-.62h0ZM79.45,194.41c.34,0,.62.28.62.62s-.28.62-.62.62-.62-.28-.62-.62.28-.62.62-.62h0ZM79.45,205.66c.34,0,.62.28.62.62s-.28.62-.62.62-.62-.28-.62-.62.28-.62.62-.62h0ZM79.45,216.91c.34,0,.62.28.62.62s-.28.62-.62.62-.62-.28-.62-.62.28-.62.62-.62h0ZM79.45,228.16c.34,0,.62.28.62.62s-.28.62-.62.62-.62-.28-.62-.62.28-.62.62-.62h0ZM74.32,115.68c.34,0,.62.28.62.62s-.28.62-.62.62-.62-.28-.62-.62.28-.62.62-.62h0ZM74.32,126.92c.34,0,.62.28.62.62s-.28.62-.62.62-.62-.28-.62-.62.28-.62.62-.62h0ZM74.32,138.17c.34,0,.62.28.62.62s-.28.62-.62.62-.62-.28-.62-.62.28-.62.62-.62h0ZM74.32,149.42c.34,0,.62.28.62.62s-.28.62-.62.62-.62-.28-.62-.62.28-.62.62-.62h0ZM74.32,160.67c.34,0,.62.28.62.62s-.28.62-.62.62-.62-.28-.62-.62.28-.62.62-.62h0ZM74.32,171.92c.34,0,.62.28.62.62s-.28.62-.62.62-.62-.28-.62-.62.28-.62.62-.62h0ZM74.32,183.16c.34,0,.62.28.62.62s-.28.62-.62.62-.62-.28-.62-.62.28-.62.62-.62h0ZM74.32,194.41c.34,0,.62.28.62.62s-.28.62-.62.62-.62-.28-.62-.62.28-.62.62-.62h0ZM74.32,205.66c.34,0,.62.28.62.62s-.28.62-.62.62-.62-.28-.62-.62.28-.62.62-.62h0ZM74.32,216.91c.34,0,.62.28.62.62s-.28.62-.62.62-.62-.28-.62-.62.28-.62.62-.62h0ZM74.32,228.16c.34,0,.62.28.62.62s-.28.62-.62.62-.62-.28-.62-.62.28-.62.62-.62h0ZM69.19,115.68c.34,0,.62.28.62.62s-.28.62-.62.62-.62-.28-.62-.62.28-.62.62-.62h0ZM69.19,126.92c.34,0,.62.28.62.62s-.28.62-.62.62-.62-.28-.62-.62.28-.62.62-.62h0ZM69.19,138.17c.34,0,.62.28.62.62s-.28.62-.62.62-.62-.28-.62-.62.28-.62.62-.62h0ZM69.19,149.42c.34,0,.62.28.62.62s-.28.62-.62.62-.62-.28-.62-.62.28-.62.62-.62h0ZM69.19,160.67c.34,0,.62.28.62.62s-.28.62-.62.62-.62-.28-.62-.62.28-.62.62-.62h0ZM69.19,171.92c.34,0,.62.28.62.62s-.28.62-.62.62-.62-.28-.62-.62.28-.62.62-.62h0ZM69.19,183.16c.34,0,.62.28.62.62s-.28.62-.62.62-.62-.28-.62-.62.28-.62.62-.62h0ZM69.19,194.41c.34,0,.62.28.62.62s-.28.62-.62.62-.62-.28-.62-.62.28-.62.62-.62h0ZM69.19,205.66c.34,0,.62.28.62.62s-.28.62-.62.62-.62-.28-.62-.62.28-.62.62-.62h0ZM69.19,216.91c.34,0,.62.28.62.62s-.28.62-.62.62-.62-.28-.62-.62.28-.62.62-.62h0ZM69.19,228.16c.34,0,.62.28.62.62s-.28.62-.62.62-.62-.28-.62-.62.28-.62.62-.62h0ZM64.06,115.68c.34,0,.62.28.62.62s-.28.62-.62.62-.62-.28-.62-.62.28-.62.62-.62h0ZM64.06,126.92c.34,0,.62.28.62.62s-.28.62-.62.62-.62-.28-.62-.62.28-.62.62-.62h0ZM64.06,138.17c.34,0,.62.28.62.62s-.28.62-.62.62-.62-.28-.62-.62.28-.62.62-.62h0ZM64.06,149.42c.34,0,.62.28.62.62s-.28.62-.62.62-.62-.28-.62-.62.28-.62.62-.62h0ZM64.06,160.67c.34,0,.62.28.62.62s-.28.62-.62.62-.62-.28-.62-.62.28-.62.62-.62h0ZM64.06,171.92c.34,0,.62.28.62.62s-.28.62-.62.62-.62-.28-.62-.62.28-.62.62-.62h0ZM64.06,183.16c.34,0,.62.28.62.62s-.28.62-.62.62-.62-.28-.62-.62.28-.62.62-.62h0ZM64.06,194.41c.34,0,.62.28.62.62s-.28.62-.62.62-.62-.28-.62-.62.28-.62.62-.62h0ZM64.06,205.66c.34,0,.62.28.62.62s-.28.62-.62.62-.62-.28-.62-.62.28-.62.62-.62h0ZM64.06,216.91c.34,0,.62.28.62.62s-.28.62-.62.62-.62-.28-.62-.62.28-.62.62-.62h0ZM64.06,228.16c.34,0,.62.28.62.62s-.28.62-.62.62-.62-.28-.62-.62.28-.62.62-.62h0ZM58.93,115.68c.34,0,.62.28.62.62s-.28.62-.62.62-.62-.28-.62-.62.28-.62.62-.62h0ZM58.93,126.92c.34,0,.62.28.62.62s-.28.62-.62.62-.62-.28-.62-.62.28-.62.62-.62h0ZM58.93,138.17c.34,0,.62.28.62.62s-.28.62-.62.62-.62-.28-.62-.62.28-.62.62-.62h0ZM58.93,149.42c.34,0,.62.28.62.62s-.28.62-.62.62-.62-.28-.62-.62.28-.62.62-.62h0ZM58.93,160.67c.34,0,.62.28.62.62s-.28.62-.62.62-.62-.28-.62-.62.28-.62.62-.62h0ZM58.93,171.92c.34,0,.62.28.62.62s-.28.62-.62.62-.62-.28-.62-.62.28-.62.62-.62h0ZM58.93,183.16c.34,0,.62.28.62.62s-.28.62-.62.62-.62-.28-.62-.62.28-.62.62-.62h0ZM58.93,194.41c.34,0,.62.28.62.62s-.28.62-.62.62-.62-.28-.62-.62.28-.62.62-.62h0ZM58.93,205.66c.34,0,.62.28.62.62s-.28.62-.62.62-.62-.28-.62-.62.28-.62.62-.62h0ZM58.93,216.91c.34,0,.62.28.62.62s-.28.62-.62.62-.62-.28-.62-.62.28-.62.62-.62h0ZM58.93,228.16c.34,0,.62.28.62.62s-.28.62-.62.62-.62-.28-.62-.62.28-.62.62-.62h0ZM56.49,245.03c.34,0,.62.28.62.62s-.28.62-.62.62-.62-.28-.62-.62.28-.62.62-.62h0ZM61.62,245.03c.34,0,.62.28.62.62s-.28.62-.62.62-.62-.28-.62-.62.28-.62.62-.62h0ZM66.76,245.03c.34,0,.62.28.62.62s-.28.62-.62.62-.62-.28-.62-.62.28-.62.62-.62h0ZM71.89,245.03c.34,0,.62.28.62.62s-.28.62-.62.62-.62-.28-.62-.62.28-.62.62-.62h0ZM77.02,245.03c.34,0,.62.28.62.62s-.28.62-.62.62-.62-.28-.62-.62.28-.62.62-.62h0ZM82.15,245.03c.34,0,.62.28.62.62s-.28.62-.62.62-.62-.28-.62-.62.28-.62.62-.62h0ZM97.54,245.03c.34,0,.62.28.62.62s-.28.62-.62.62-.62-.28-.62-.62.28-.62.62-.62h0ZM102.67,245.03c.34,0,.62.28.62.62s-.28.62-.62.62-.62-.28-.62-.62.28-.62.62-.62h0ZM107.8,245.03c.34,0,.62.28.62.62s-.28.62-.62.62-.62-.28-.62-.62.28-.62.62-.62h0ZM112.93,245.03c.34,0,.62.28.62.62s-.28.62-.62.62-.62-.28-.62-.62.28-.62.62-.62h0ZM118.07,245.03c.34,0,.62.28.62.62s-.28.62-.62.62-.62-.28-.62-.62.28-.62.62-.62h0ZM123.2,245.03c.34,0,.62.28.62.62s-.28.62-.62.62-.62-.28-.62-.62.28-.62.62-.62h0ZM56.49,256.28c.34,0,.62.28.62.62s-.28.62-.62.62-.62-.28-.62-.62.28-.62.62-.62h0ZM61.62,256.28c.34,0,.62.28.62.62s-.28.62-.62.62-.62-.28-.62-.62.28-.62.62-.62h0ZM66.76,256.28c.34,0,.62.28.62.62s-.28.62-.62.62-.62-.28-.62-.62.28-.62.62-.62h0ZM71.89,256.28c.34,0,.62.28.62.62s-.28.62-.62.62-.62-.28-.62-.62.28-.62.62-.62h0ZM77.02,256.28c.34,0,.62.28.62.62s-.28.62-.62.62-.62-.28-.62-.62.28-.62.62-.62h0ZM82.15,256.28c.34,0,.62.28.62.62s-.28.62-.62.62-.62-.28-.62-.62.28-.62.62-.62h0ZM97.54,256.28c.34,0,.62.28.62.62s-.28.62-.62.62-.62-.28-.62-.62.28-.62.62-.62h0ZM102.67,256.28c.34,0,.62.28.62.62s-.28.62-.62.62-.62-.28-.62-.62.28-.62.62-.62h0ZM107.8,256.28c.34,0,.62.28.62.62s-.28.62-.62.62-.62-.28-.62-.62.28-.62.62-.62h0ZM112.93,256.28c.34,0,.62.28.62.62s-.28.62-.62.62-.62-.28-.62-.62.28-.62.62-.62h0ZM118.07,256.28c.34,0,.62.28.62.62s-.28.62-.62.62-.62-.28-.62-.62.28-.62.62-.62h0ZM123.2,256.28c.34,0,.62.28.62.62s-.28.62-.62.62-.62-.28-.62-.62.28-.62.62-.62h0ZM56.49,267.52c.34,0,.62.28.62.62s-.28.62-.62.62-.62-.28-.62-.62.28-.62.62-.62h0ZM61.62,267.52c.34,0,.62.28.62.62s-.28.62-.62.62-.62-.28-.62-.62.28-.62.62-.62h0ZM66.76,267.52c.34,0,.62.28.62.62s-.28.62-.62.62-.62-.28-.62-.62.28-.62.62-.62h0ZM71.89,267.52c.34,0,.62.28.62.62s-.28.62-.62.62-.62-.28-.62-.62.28-.62.62-.62h0ZM77.02,267.52c.34,0,.62.28.62.62s-.28.62-.62.62-.62-.28-.62-.62.28-.62.62-.62h0ZM82.15,267.52c.34,0,.62.28.62.62s-.28.62-.62.62-.62-.28-.62-.62.28-.62.62-.62h0ZM97.54,267.52c.34,0,.62.28.62.62s-.28.62-.62.62-.62-.28-.62-.62.28-.62.62-.62h0ZM102.67,267.52c.34,0,.62.28.62.62s-.28.62-.62.62-.62-.28-.62-.62.28-.62.62-.62h0ZM107.8,267.52c.34,0,.62.28.62.62s-.28.62-.62.62-.62-.28-.62-.62.28-.62.62-.62h0ZM112.93,267.52c.34,0,.62.28.62.62s-.28.62-.62.62-.62-.28-.62-.62.28-.62.62-.62h0ZM118.07,267.52c.34,0,.62.28.62.62s-.28.62-.62.62-.62-.28-.62-.62.28-.62.62-.62h0ZM123.2,267.52c.34,0,.62.28.62.62s-.28.62-.62.62-.62-.28-.62-.62.28-.62.62-.62h0ZM56.49,278.77c.34,0,.62.28.62.62s-.28.62-.62.62-.62-.28-.62-.62.28-.62.62-.62h0ZM61.62,278.77c.34,0,.62.28.62.62s-.28.62-.62.62-.62-.28-.62-.62.28-.62.62-.62h0ZM66.76,278.77c.34,0,.62.28.62.62s-.28.62-.62.62-.62-.28-.62-.62.28-.62.62-.62h0ZM71.89,278.77c.34,0,.62.28.62.62s-.28.62-.62.62-.62-.28-.62-.62.28-.62.62-.62h0ZM77.02,278.77c.34,0,.62.28.62.62s-.28.62-.62.62-.62-.28-.62-.62.28-.62.62-.62h0ZM82.15,278.77c.34,0,.62.28.62.62s-.28.62-.62.62-.62-.28-.62-.62.28-.62.62-.62h0ZM97.54,278.77c.34,0,.62.28.62.62s-.28.62-.62.62-.62-.28-.62-.62.28-.62.62-.62h0ZM102.67,278.77c.34,0,.62.28.62.62s-.28.62-.62.62-.62-.28-.62-.62.28-.62.62-.62h0ZM107.8,278.77c.34,0,.62.28.62.62s-.28.62-.62.62-.62-.28-.62-.62.28-.62.62-.62h0ZM112.93,278.77c.34,0,.62.28.62.62s-.28.62-.62.62-.62-.28-.62-.62.28-.62.62-.62h0ZM118.07,278.77c.34,0,.62.28.62.62s-.28.62-.62.62-.62-.28-.62-.62.28-.62.62-.62h0ZM123.2,278.77c.34,0,.62.28.62.62s-.28.62-.62.62-.62-.28-.62-.62.28-.62.62-.62h0ZM56.49,290.02c.34,0,.62.28.62.62s-.28.62-.62.62-.62-.28-.62-.62.28-.62.62-.62h0ZM61.62,290.02c.34,0,.62.28.62.62s-.28.62-.62.62-.62-.28-.62-.62.28-.62.62-.62h0ZM66.76,290.02c.34,0,.62.28.62.62s-.28.62-.62.62-.62-.28-.62-.62.28-.62.62-.62h0ZM71.89,290.02c.34,0,.62.28.62.62s-.28.62-.62.62-.62-.28-.62-.62.28-.62.62-.62h0ZM77.02,290.02c.34,0,.62.28.62.62s-.28.62-.62.62-.62-.28-.62-.62.28-.62.62-.62h0ZM82.15,290.02c.34,0,.62.28.62.62s-.28.62-.62.62-.62-.28-.62-.62.28-.62.62-.62h0ZM97.54,290.02c.34,0,.62.28.62.62s-.28.62-.62.62-.62-.28-.62-.62.28-.62.62-.62h0ZM102.67,290.02c.34,0,.62.28.62.62s-.28.62-.62.62-.62-.28-.62-.62.28-.62.62-.62h0ZM107.8,290.02c.34,0,.62.28.62.62s-.28.62-.62.62-.62-.28-.62-.62.28-.62.62-.62h0ZM112.93,290.02c.34,0,.62.28.62.62s-.28.62-.62.62-.62-.28-.62-.62.28-.62.62-.62h0ZM118.07,290.02c.34,0,.62.28.62.62s-.28.62-.62.62-.62-.28-.62-.62.28-.62.62-.62h0ZM123.2,290.02c.34,0,.62.28.62.62s-.28.62-.62.62-.62-.28-.62-.62.28-.62.62-.62h0ZM56.49,301.27c.34,0,.62.28.62.62s-.28.62-.62.62-.62-.28-.62-.62.28-.62.62-.62h0ZM61.62,301.27c.34,0,.62.28.62.62s-.28.62-.62.62-.62-.28-.62-.62.28-.62.62-.62h0ZM66.76,301.27c.34,0,.62.28.62.62s-.28.62-.62.62-.62-.28-.62-.62.28-.62.62-.62h0ZM71.89,301.27c.34,0,.62.28.62.62s-.28.62-.62.62-.62-.28-.62-.62.28-.62.62-.62h0ZM77.02,301.27c.34,0,.62.28.62.62s-.28.62-.62.62-.62-.28-.62-.62.28-.62.62-.62h0ZM82.15,301.27c.34,0,.62.28.62.62s-.28.62-.62.62-.62-.28-.62-.62.28-.62.62-.62h0ZM97.54,301.27c.34,0,.62.28.62.62s-.28.62-.62.62-.62-.28-.62-.62.28-.62.62-.62h0ZM102.67,301.27c.34,0,.62.28.62.62s-.28.62-.62.62-.62-.28-.62-.62.28-.62.62-.62h0ZM107.8,301.27c.34,0,.62.28.62.62s-.28.62-.62.62-.62-.28-.62-.62.28-.62.62-.62h0ZM112.93,301.27c.34,0,.62.28.62.62s-.28.62-.62.62-.62-.28-.62-.62.28-.62.62-.62h0ZM118.07,301.27c.34,0,.62.28.62.62s-.28.62-.62.62-.62-.28-.62-.62.28-.62.62-.62h0ZM123.2,301.27c.34,0,.62.28.62.62s-.28.62-.62.62-.62-.28-.62-.62.28-.62.62-.62h0ZM56.49,312.52c.34,0,.62.28.62.62s-.28.62-.62.62-.62-.28-.62-.62.28-.62.62-.62h0ZM61.62,312.52c.34,0,.62.28.62.62s-.28.62-.62.62-.62-.28-.62-.62.28-.62.62-.62h0ZM66.76,312.52c.34,0,.62.28.62.62s-.28.62-.62.62-.62-.28-.62-.62.28-.62.62-.62h0ZM71.89,312.52c.34,0,.62.28.62.62s-.28.62-.62.62-.62-.28-.62-.62.28-.62.62-.62h0ZM107.8,312.52c.34,0,.62.28.62.62s-.28.62-.62.62-.62-.28-.62-.62.28-.62.62-.62h0ZM112.93,312.52c.34,0,.62.28.62.62s-.28.62-.62.62-.62-.28-.62-.62.28-.62.62-.62h0ZM118.07,312.52c.34,0,.62.28.62.62s-.28.62-.62.62-.62-.28-.62-.62.28-.62.62-.62h0ZM123.2,312.52c.34,0,.62.28.62.62s-.28.62-.62.62-.62-.28-.62-.62.28-.62.62-.62h0ZM56.49,323.76c.34,0,.62.28.62.62s-.28.62-.62.62-.62-.28-.62-.62.28-.62.62-.62h0ZM61.62,323.76c.34,0,.62.28.62.62s-.28.62-.62.62-.62-.28-.62-.62.28-.62.62-.62h0ZM66.76,323.76c.34,0,.62.28.62.62s-.28.62-.62.62-.62-.28-.62-.62.28-.62.62-.62h0ZM71.89,323.76c.34,0,.62.28.62.62s-.28.62-.62.62-.62-.28-.62-.62.28-.62.62-.62h0ZM107.8,323.76c.34,0,.62.28.62.62s-.28.62-.62.62-.62-.28-.62-.62.28-.62.62-.62h0ZM112.93,323.76c.34,0,.62.28.62.62s-.28.62-.62.62-.62-.28-.62-.62.28-.62.62-.62h0ZM118.07,323.76c.34,0,.62.28.62.62s-.28.62-.62.62-.62-.28-.62-.62.28-.62.62-.62h0ZM123.2,323.76c.34,0,.62.28.62.62s-.28.62-.62.62-.62-.28-.62-.62.28-.62.62-.62h0ZM56.49,335.01c.34,0,.62.28.62.62s-.28.62-.62.62-.62-.28-.62-.62.28-.62.62-.62h0ZM61.62,335.01c.34,0,.62.28.62.62s-.28.62-.62.62-.62-.28-.62-.62.28-.62.62-.62h0ZM66.76,335.01c.34,0,.62.28.62.62s-.28.62-.62.62-.62-.28-.62-.62.28-.62.62-.62h0ZM71.89,335.01c.34,0,.62.28.62.62s-.28.62-.62.62-.62-.28-.62-.62.28-.62.62-.62h0ZM107.8,335.01c.34,0,.62.28.62.62s-.28.62-.62.62-.62-.28-.62-.62.28-.62.62-.62h0ZM112.93,335.01c.34,0,.62.28.62.62s-.28.62-.62.62-.62-.28-.62-.62.28-.62.62-.62h0ZM118.07,335.01c.34,0,.62.28.62.62s-.28.62-.62.62-.62-.28-.62-.62.28-.62.62-.62h0ZM123.2,335.01c.34,0,.62.28.62.62s-.28.62-.62.62-.62-.28-.62-.62.28-.62.62-.62h0ZM56.49,346.26c.34,0,.62.28.62.62s-.28.62-.62.62-.62-.28-.62-.62.28-.62.62-.62h0ZM61.62,346.26c.34,0,.62.28.62.62s-.28.62-.62.62-.62-.28-.62-.62.28-.62.62-.62h0ZM66.76,346.26c.34,0,.62.28.62.62s-.28.62-.62.62-.62-.28-.62-.62.28-.62.62-.62h0ZM71.89,346.26c.34,0,.62.28.62.62s-.28.62-.62.62-.62-.28-.62-.62.28-.62.62-.62h0ZM77.02,346.26c.34,0,.62.28.62.62s-.28.62-.62.62-.62-.28-.62-.62.28-.62.62-.62h0ZM82.15,346.26c.34,0,.62.28.62.62s-.28.62-.62.62-.62-.28-.62-.62.28-.62.62-.62h0ZM87.28,346.26c.34,0,.62.28.62.62s-.28.62-.62.62-.62-.28-.62-.62.28-.62.62-.62h0ZM92.41,346.26c.34,0,.62.28.62.62s-.28.62-.62.62-.62-.28-.62-.62.28-.62.62-.62h0ZM97.54,346.26c.34,0,.62.28.62.62s-.28.62-.62.62-.62-.28-.62-.62.28-.62.62-.62h0ZM102.67,346.26c.34,0,.62.28.62.62s-.28.62-.62.62-.62-.28-.62-.62.28-.62.62-.62h0ZM107.8,346.26c.34,0,.62.28.62.62s-.28.62-.62.62-.62-.28-.62-.62.28-.62.62-.62h0ZM112.93,346.26c.34,0,.62.28.62.62s-.28.62-.62.62-.62-.28-.62-.62.28-.62.62-.62h0ZM118.07,346.26c.34,0,.62.28.62.62s-.28.62-.62.62-.62-.28-.62-.62.28-.62.62-.62h0ZM123.2,346.26c.34,0,.62.28.62.62s-.28.62-.62.62-.62-.28-.62-.62.28-.62.62-.62h0ZM120.5,239.4c.34,0,.62.28.62.62s-.28.62-.62.62-.62-.28-.62-.62.28-.62.62-.62h0ZM120.5,250.65c.34,0,.62.28.62.62s-.28.62-.62.62-.62-.28-.62-.62.28-.62.62-.62h0ZM120.5,261.9c.34,0,.62.28.62.62s-.28.62-.62.62-.62-.28-.62-.62.28-.62.62-.62h0ZM120.5,273.15c.34,0,.62.28.62.62s-.28.62-.62.62-.62-.28-.62-.62.28-.62.62-.62h0ZM120.5,284.4c.34,0,.62.28.62.62s-.28.62-.62.62-.62-.28-.62-.62.28-.62.62-.62h0ZM120.5,295.64c.34,0,.62.28.62.62s-.28.62-.62.62-.62-.28-.62-.62.28-.62.62-.62h0ZM120.5,306.89c.34,0,.62.28.62.62s-.28.62-.62.62-.62-.28-.62-.62.28-.62.62-.62h0ZM120.5,318.14c.34,0,.62.28.62.62s-.28.62-.62.62-.62-.28-.62-.62.28-.62.62-.62h0ZM120.5,329.39c.34,0,.62.28.62.62s-.28.62-.62.62-.62-.28-.62-.62.28-.62.62-.62h0ZM120.5,340.64c.34,0,.62.28.62.62s-.28.62-.62.62-.62-.28-.62-.62.28-.62.62-.62h0ZM120.5,351.88c.34,0,.62.28.62.62s-.28.62-.62.62-.62-.28-.62-.62.28-.62.62-.62h0ZM115.37,239.4c.34,0,.62.28.62.62s-.28.62-.62.62-.62-.28-.62-.62.28-.62.62-.62h0ZM115.37,250.65c.34,0,.62.28.62.62s-.28.62-.62.62-.62-.28-.62-.62.28-.62.62-.62h0ZM115.37,261.9c.34,0,.62.28.62.62s-.28.62-.62.62-.62-.28-.62-.62.28-.62.62-.62h0ZM115.37,273.15c.34,0,.62.28.62.62s-.28.62-.62.62-.62-.28-.62-.62.28-.62.62-.62h0ZM115.37,284.4c.34,0,.62.28.62.62s-.28.62-.62.62-.62-.28-.62-.62.28-.62.62-.62h0ZM115.37,295.64c.34,0,.62.28.62.62s-.28.62-.62.62-.62-.28-.62-.62.28-.62.62-.62h0ZM115.37,306.89c.34,0,.62.28.62.62s-.28.62-.62.62-.62-.28-.62-.62.28-.62.62-.62h0ZM115.37,318.14c.34,0,.62.28.62.62s-.28.62-.62.62-.62-.28-.62-.62.28-.62.62-.62h0ZM115.37,329.39c.34,0,.62.28.62.62s-.28.62-.62.62-.62-.28-.62-.62.28-.62.62-.62h0ZM115.37,340.64c.34,0,.62.28.62.62s-.28.62-.62.62-.62-.28-.62-.62.28-.62.62-.62h0ZM115.37,351.88c.34,0,.62.28.62.62s-.28.62-.62.62-.62-.28-.62-.62.28-.62.62-.62h0ZM110.24,239.4c.34,0,.62.28.62.62s-.28.62-.62.62-.62-.28-.62-.62.28-.62.62-.62h0ZM110.24,250.65c.34,0,.62.28.62.62s-.28.62-.62.62-.62-.28-.62-.62.28-.62.62-.62h0ZM110.24,261.9c.34,0,.62.28.62.62s-.28.62-.62.62-.62-.28-.62-.62.28-.62.62-.62h0ZM110.24,273.15c.34,0,.62.28.62.62s-.28.62-.62.62-.62-.28-.62-.62.28-.62.62-.62h0ZM110.24,284.4c.34,0,.62.28.62.62s-.28.62-.62.62-.62-.28-.62-.62.28-.62.62-.62h0ZM110.24,295.64c.34,0,.62.28.62.62s-.28.62-.62.62-.62-.28-.62-.62.28-.62.62-.62h0ZM110.24,306.89c.34,0,.62.28.62.62s-.28.62-.62.62-.62-.28-.62-.62.28-.62.62-.62h0ZM110.24,318.14c.34,0,.62.28.62.62s-.28.62-.62.62-.62-.28-.62-.62.28-.62.62-.62h0ZM110.24,329.39c.34,0,.62.28.62.62s-.28.62-.62.62-.62-.28-.62-.62.28-.62.62-.62h0ZM110.24,340.64c.34,0,.62.28.62.62s-.28.62-.62.62-.62-.28-.62-.62.28-.62.62-.62h0ZM110.24,351.88c.34,0,.62.28.62.62s-.28.62-.62.62-.62-.28-.62-.62.28-.62.62-.62h0ZM105.11,239.4c.34,0,.62.28.62.62s-.28.62-.62.62-.62-.28-.62-.62.28-.62.62-.62h0ZM105.11,250.65c.34,0,.62.28.62.62s-.28.62-.62.62-.62-.28-.62-.62.28-.62.62-.62h0ZM105.11,261.9c.34,0,.62.28.62.62s-.28.62-.62.62-.62-.28-.62-.62.28-.62.62-.62h0ZM105.11,273.15c.34,0,.62.28.62.62s-.28.62-.62.62-.62-.28-.62-.62.28-.62.62-.62h0ZM105.11,284.4c.34,0,.62.28.62.62s-.28.62-.62.62-.62-.28-.62-.62.28-.62.62-.62h0ZM105.11,295.64c.34,0,.62.28.62.62s-.28.62-.62.62-.62-.28-.62-.62.28-.62.62-.62h0ZM105.11,306.89c.34,0,.62.28.62.62s-.28.62-.62.62-.62-.28-.62-.62.28-.62.62-.62h0ZM105.11,340.64c.34,0,.62.28.62.62s-.28.62-.62.62-.62-.28-.62-.62.28-.62.62-.62h0ZM105.11,351.88c.34,0,.62.28.62.62s-.28.62-.62.62-.62-.28-.62-.62.28-.62.62-.62h0ZM99.98,239.4c.34,0,.62.28.62.62s-.28.62-.62.62-.62-.28-.62-.62.28-.62.62-.62h0ZM99.98,250.65c.34,0,.62.28.62.62s-.28.62-.62.62-.62-.28-.62-.62.28-.62.62-.62h0ZM99.98,261.9c.34,0,.62.28.62.62s-.28.62-.62.62-.62-.28-.62-.62.28-.62.62-.62h0ZM99.98,273.15c.34,0,.62.28.62.62s-.28.62-.62.62-.62-.28-.62-.62.28-.62.62-.62h0ZM99.98,284.4c.34,0,.62.28.62.62s-.28.62-.62.62-.62-.28-.62-.62.28-.62.62-.62h0ZM99.98,295.64c.34,0,.62.28.62.62s-.28.62-.62.62-.62-.28-.62-.62.28-.62.62-.62h0ZM99.98,306.89c.34,0,.62.28.62.62s-.28.62-.62.62-.62-.28-.62-.62.28-.62.62-.62h0ZM99.98,351.88c.34,0,.62.28.62.62s-.28.62-.62.62-.62-.28-.62-.62.28-.62.62-.62h0ZM94.85,239.4c.34,0,.62.28.62.62s-.28.62-.62.62-.62-.28-.62-.62.28-.62.62-.62h0ZM94.85,250.65c.34,0,.62.28.62.62s-.28.62-.62.62-.62-.28-.62-.62.28-.62.62-.62h0ZM94.85,261.9c.34,0,.62.28.62.62s-.28.62-.62.62-.62-.28-.62-.62.28-.62.62-.62h0ZM94.85,273.15c.34,0,.62.28.62.62s-.28.62-.62.62-.62-.28-.62-.62.28-.62.62-.62h0ZM94.85,284.4c.34,0,.62.28.62.62s-.28.62-.62.62-.62-.28-.62-.62.28-.62.62-.62h0ZM94.85,295.64c.34,0,.62.28.62.62s-.28.62-.62.62-.62-.28-.62-.62.28-.62.62-.62h0ZM94.85,306.89c.34,0,.62.28.62.62s-.28.62-.62.62-.62-.28-.62-.62.28-.62.62-.62h0ZM94.85,351.88c.34,0,.62.28.62.62s-.28.62-.62.62-.62-.28-.62-.62.28-.62.62-.62h0ZM89.72,306.89c.34,0,.62.28.62.62s-.28.62-.62.62-.62-.28-.62-.62.28-.62.62-.62h0ZM89.72,351.88c.34,0,.62.28.62.62s-.28.62-.62.62-.62-.28-.62-.62.28-.62.62-.62h0ZM84.58,239.4c.34,0,.62.28.62.62s-.28.62-.62.62-.62-.28-.62-.62.28-.62.62-.62h0ZM84.58,250.65c.34,0,.62.28.62.62s-.28.62-.62.62-.62-.28-.62-.62.28-.62.62-.62h0ZM84.58,261.9c.34,0,.62.28.62.62s-.28.62-.62.62-.62-.28-.62-.62.28-.62.62-.62h0ZM84.58,273.15c.34,0,.62.28.62.62s-.28.62-.62.62-.62-.28-.62-.62.28-.62.62-.62h0ZM84.58,284.4c.34,0,.62.28.62.62s-.28.62-.62.62-.62-.28-.62-.62.28-.62.62-.62h0ZM84.58,295.64c.34,0,.62.28.62.62s-.28.62-.62.62-.62-.28-.62-.62.28-.62.62-.62h0ZM84.58,306.89c.34,0,.62.28.62.62s-.28.62-.62.62-.62-.28-.62-.62.28-.62.62-.62h0ZM84.58,351.88c.34,0,.62.28.62.62s-.28.62-.62.62-.62-.28-.62-.62.28-.62.62-.62h0ZM79.45,239.4c.34,0,.62.28.62.62s-.28.62-.62.62-.62-.28-.62-.62.28-.62.62-.62h0ZM79.45,250.65c.34,0,.62.28.62.62s-.28.62-.62.62-.62-.28-.62-.62.28-.62.62-.62h0ZM79.45,261.9c.34,0,.62.28.62.62s-.28.62-.62.62-.62-.28-.62-.62.28-.62.62-.62h0ZM79.45,273.15c.34,0,.62.28.62.62s-.28.62-.62.62-.62-.28-.62-.62.28-.62.62-.62h0ZM79.45,284.4c.34,0,.62.28.62.62s-.28.62-.62.62-.62-.28-.62-.62.28-.62.62-.62h0ZM79.45,295.64c.34,0,.62.28.62.62s-.28.62-.62.62-.62-.28-.62-.62.28-.62.62-.62h0ZM79.45,306.89c.34,0,.62.28.62.62s-.28.62-.62.62-.62-.28-.62-.62.28-.62.62-.62h0ZM79.45,351.88c.34,0,.62.28.62.62s-.28.62-.62.62-.62-.28-.62-.62.28-.62.62-.62h0ZM74.32,239.4c.34,0,.62.28.62.62s-.28.62-.62.62-.62-.28-.62-.62.28-.62.62-.62h0ZM74.32,250.65c.34,0,.62.28.62.62s-.28.62-.62.62-.62-.28-.62-.62.28-.62.62-.62h0ZM74.32,261.9c.34,0,.62.28.62.62s-.28.62-.62.62-.62-.28-.62-.62.28-.62.62-.62h0ZM74.32,273.15c.34,0,.62.28.62.62s-.28.62-.62.62-.62-.28-.62-.62.28-.62.62-.62h0ZM74.32,284.4c.34,0,.62.28.62.62s-.28.62-.62.62-.62-.28-.62-.62.28-.62.62-.62h0ZM74.32,295.64c.34,0,.62.28.62.62s-.28.62-.62.62-.62-.28-.62-.62.28-.62.62-.62h0ZM74.32,306.89c.34,0,.62.28.62.62s-.28.62-.62.62-.62-.28-.62-.62.28-.62.62-.62h0ZM74.32,340.64c.34,0,.62.28.62.62s-.28.62-.62.62-.62-.28-.62-.62.28-.62.62-.62h0ZM74.32,351.88c.34,0,.62.28.62.62s-.28.62-.62.62-.62-.28-.62-.62.28-.62.62-.62h0ZM69.19,239.4c.34,0,.62.28.62.62s-.28.62-.62.62-.62-.28-.62-.62.28-.62.62-.62h0ZM69.19,250.65c.34,0,.62.28.62.62s-.28.62-.62.62-.62-.28-.62-.62.28-.62.62-.62h0ZM69.19,261.9c.34,0,.62.28.62.62s-.28.62-.62.62-.62-.28-.62-.62.28-.62.62-.62h0ZM69.19,273.15c.34,0,.62.28.62.62s-.28.62-.62.62-.62-.28-.62-.62.28-.62.62-.62h0ZM69.19,284.4c.34,0,.62.28.62.62s-.28.62-.62.62-.62-.28-.62-.62.28-.62.62-.62h0ZM69.19,295.64c.34,0,.62.28.62.62s-.28.62-.62.62-.62-.28-.62-.62.28-.62.62-.62h0ZM69.19,306.89c.34,0,.62.28.62.62s-.28.62-.62.62-.62-.28-.62-.62.28-.62.62-.62h0ZM69.19,318.14c.34,0,.62.28.62.62s-.28.62-.62.62-.62-.28-.62-.62.28-.62.62-.62h0ZM69.19,329.39c.34,0,.62.28.62.62s-.28.62-.62.62-.62-.28-.62-.62.28-.62.62-.62h0ZM69.19,340.64c.34,0,.62.28.62.62s-.28.62-.62.62-.62-.28-.62-.62.28-.62.62-.62h0ZM69.19,351.88c.34,0,.62.28.62.62s-.28.62-.62.62-.62-.28-.62-.62.28-.62.62-.62h0ZM64.06,239.4c.34,0,.62.28.62.62s-.28.62-.62.62-.62-.28-.62-.62.28-.62.62-.62h0ZM64.06,250.65c.34,0,.62.28.62.62s-.28.62-.62.62-.62-.28-.62-.62.28-.62.62-.62h0ZM64.06,261.9c.34,0,.62.28.62.62s-.28.62-.62.62-.62-.28-.62-.62.28-.62.62-.62h0ZM64.06,273.15c.34,0,.62.28.62.62s-.28.62-.62.62-.62-.28-.62-.62.28-.62.62-.62h0ZM64.06,284.4c.34,0,.62.28.62.62s-.28.62-.62.62-.62-.28-.62-.62.28-.62.62-.62h0ZM64.06,295.64c.34,0,.62.28.62.62s-.28.62-.62.62-.62-.28-.62-.62.28-.62.62-.62h0ZM64.06,306.89c.34,0,.62.28.62.62s-.28.62-.62.62-.62-.28-.62-.62.28-.62.62-.62h0ZM64.06,318.14c.34,0,.62.28.62.62s-.28.62-.62.62-.62-.28-.62-.62.28-.62.62-.62h0ZM64.06,329.39c.34,0,.62.28.62.62s-.28.62-.62.62-.62-.28-.62-.62.28-.62.62-.62h0ZM64.06,340.64c.34,0,.62.28.62.62s-.28.62-.62.62-.62-.28-.62-.62.28-.62.62-.62h0ZM64.06,351.88c.34,0,.62.28.62.62s-.28.62-.62.62-.62-.28-.62-.62.28-.62.62-.62h0ZM58.93,239.4c.34,0,.62.28.62.62s-.28.62-.62.62-.62-.28-.62-.62.28-.62.62-.62h0ZM58.93,250.65c.34,0,.62.28.62.62s-.28.62-.62.62-.62-.28-.62-.62.28-.62.62-.62h0ZM58.93,261.9c.34,0,.62.28.62.62s-.28.62-.62.62-.62-.28-.62-.62.28-.62.62-.62h0ZM58.93,273.15c.34,0,.62.28.62.62s-.28.62-.62.62-.62-.28-.62-.62.28-.62.62-.62h0ZM58.93,284.4c.34,0,.62.28.62.62s-.28.62-.62.62-.62-.28-.62-.62.28-.62.62-.62h0ZM58.93,295.64c.34,0,.62.28.62.62s-.28.62-.62.62-.62-.28-.62-.62.28-.62.62-.62h0ZM58.93,306.89c.34,0,.62.28.62.62s-.28.62-.62.62-.62-.28-.62-.62.28-.62.62-.62h0ZM58.93,318.14c.34,0,.62.28.62.62s-.28.62-.62.62-.62-.28-.62-.62.28-.62.62-.62h0ZM58.93,329.39c.34,0,.62.28.62.62s-.28.62-.62.62-.62-.28-.62-.62.28-.62.62-.62h0ZM58.93,340.64c.34,0,.62.28.62.62s-.28.62-.62.62-.62-.28-.62-.62.28-.62.62-.62h0ZM58.93,351.88c.34,0,.62.28.62.62s-.28.62-.62.62-.62-.28-.62-.62.28-.62.62-.62h0ZM79.97,320.77c-.06-1.46-.49-2.84-1.23-4.1l-.12-.2.23.03c1.05.15,2.11.21,3.16.09,1.1-.13,2.13-.45,3.1-.98l.06-.03.06.03c1.31.77,2.73,1.24,4.26,1.24,1.57,0,3.04-.5,4.39-1.27l.06-.03.06.04c.8.5,1.63.79,2.56.94,1.18.19,2.45.13,3.63.03l.22-.02-.11.19c-.73,1.27-1.15,2.68-1.21,4.14-.06,1.51.27,2.99.88,4.37l.07.16h-20.99s.07-.17.07-.17c.59-1.41.93-2.92.86-4.46h0ZM98.43,325.17v-8.29c.52,0,1.04-.03,1.55-.07-.69,1.25-1.07,2.63-1.13,4.06-.06,1.48.25,2.95.83,4.31h-1.25ZM96.23,325.17v-8.46c.09.02.19.03.28.05.23.04.46.06.69.08v8.33h-.97ZM94.01,325.17v-9.3c.32.19.64.35.99.48v8.82h-.99ZM91.81,325.17v-8.43c.33-.1.65-.22.97-.35v8.78h-.97ZM89.44,317.08v2.19h-3.13v-2.86c1,.42,2.04.66,3.13.67h0ZM89.67,325.17v-8.08c.3,0,.61-.03.91-.07v8.16h-.91ZM86.31,325.16v-2.68h3.13v2.68h-3.13ZM80.11,322.49h2.98v2.67h-3.71c.35-.86.6-1.76.73-2.67h0ZM79.05,316.76c.99.13,1.99.18,2.99.06.36-.04.71-.1,1.06-.19v2.64h-3.09c-.19-.88-.52-1.73-.96-2.51h0ZM77.88,314.54c1.96.86,5.18.76,7.34-.87,3.02,2.21,5.92,1.98,8.69,0,1.85,1.34,4.69,1.9,7.36.9l1.2,1.66c-3.12,4.17-1.96,8.15,1.25,11.66l-1.35,1.37c.31,8.99-6.66,11.13-10.65,11.36l-2.15,1.76-2.13-1.73c-7.14-.62-10.9-4.38-10.67-11.36l-1.39-1.4c2.71-2.94,4.75-6.95,1.27-11.65l1.24-1.69h0ZM85.2,314.38s4.1,3.33,8.73.02c1.73,1.25,4.61,1.71,7.13.88l.69.94c-2.84,3.94-1.83,8.41,1.11,11.67l-1.16,1.2c.76,8.65-6.26,10.89-10.27,10.96l-1.86,1.58-1.86-1.56c-6.88-.4-10.79-4.27-10.32-10.98l-1.15-1.22c2.51-2.74,4.32-7.21,1.16-11.66l.74-.95c1.84.74,5.04.59,7.07-.9h0ZM78.4,329.08h22.35v.03c.25,2.63-.25,5.24-2.16,7.18-1.87,1.89-4.58,2.64-7.17,2.78h-3.77c-.25.01-.51-.03-.75-.06-2.3-.26-4.69-1.03-6.37-2.68-1.98-1.95-2.44-4.55-2.13-7.22v-.03h0ZM91.16,331.25c-.97-.58-2.2-.59-3.18-.02v-1.92h3.18v1.94h0ZM91.16,336.61v2.24h-3.18s0-2.21,0-2.21c.98.57,2.21.56,3.18-.02h0ZM89.56,333.74c-.19-.17-.39-.35-.4-.63-.01-.3.2-.61.38-.84,1.2-.28,2.36.87,2.91,1.81-.02.32-.09.63-.21.93-.1-.18-.26-.34-.44-.45-.24-.14-.51-.19-.78-.12-.23-.73-.73-1.13-1.46-.71h0ZM92.12,335.26c-.78,1.5-2.71,2.02-4.13,1.11.62-.08,1.28-.22,1.84-.5.54-.27.96-.66,1.2-1.21.23-.07.45-.04.65.09.18.11.34.29.42.48,0,.01,0,.02.01.04h0ZM87.74,336.19c-.33-.26-.6-.6-.78-.97.53-.04.82-.16,1.14-.61.28.22.68.28.99.07.26-.17.47-.49.59-.77.65-.36,1,.07,1.16.68-.22.5-.61.85-1.1,1.09-.6.3-1.33.44-2,.51h0ZM87.94,334.48c-.31.44-.55.51-1.07.54-.46-1.14-.14-2.46.78-3.27-.13.49-.24,1.04-.21,1.54.02.46.16.87.5,1.19h0ZM87.92,331.54c.39-.26.83-.43,1.29-.48-.26.38-.15.78.12,1.14-.2.25-.4.58-.4.9,0,.37.26.6.51.82-.11.22-.27.46-.47.59-.45.3-.96-.15-1.16-.54-.11-.21-.15-.45-.17-.69-.03-.57.12-1.2.27-1.74h0ZM89.5,331.04c.79-.01,1.54.29,2.1.85.49.49.78,1.12.84,1.81-.64-.92-1.75-1.89-2.94-1.62-.26-.36-.34-.7,0-1.03h0ZM97.6,329.31v7.54c-.95.71-2.04,1.2-3.18,1.52v-9.06h3.18ZM84.69,329.31v9.04c-1.13-.32-2.23-.8-3.18-1.49v-7.55h3.18ZM91.9,325.8h1.49c.82.17.87.94.46,1.3.77.64.11,1.47-.39,1.54h-1.55s-.01-2.84-.01-2.84h0ZM92.49,326.36h.77c.34.1.24.42.01.48h-.78v-.48h0ZM92.5,327.39h.81c.4.13.31.59.01.67h-.82s0-.67,0-.67h0ZM84.84,325.8h2.05v.6h-1.45v.46h.84v.6h-.84v1.18h-.59v-2.84h0ZM89.35,325.8c.44,0,.83.23,1.07.59l-.52.28c-.13-.17-.33-.28-.55-.28-.4,0-.73.37-.73.83s.33.83.73.83c.23,0,.44-.13.58-.32l.51.3c-.24.37-.63.61-1.08.61-.73,0-1.32-.64-1.32-1.42s.59-1.42,1.32-1.42h0ZM84.7,32.65l7.14-9.69v277.56h-3.06V32.65h-4.08Z"/>
  </g>
</svg>