<?xml version="1.0" encoding="UTF-8"?>
<svg id="Layer_2" data-name="Layer 2" xmlns="http://www.w3.org/2000/svg" viewBox="0 0 193.69 358.17">
  <defs>
    <style>
      .cls-1 {
        fill: #f0b53f;
        fill-rule: evenodd;
      }
    </style>
  </defs>
  <g id="_" data-name="ͼ">
    <path class="cls-1" d="M89.03,274.83v28.53l-7.51-9.67h4.44v-18.28c0-20.05,2.37-39.02,6.6-57.5,5.1-22.26,12.9-43.8,22.54-65.66,6.69-15.17,13.89-29.88,21.59-45.79l17.84-36.88h3.07l-19.34,40.37c-4.45,9.29-9.06,18.84-13.62,28.56-.02.08-.06.16-.1.22-2.7,5.78-5.39,11.62-8,17.5-8.89,20.01-16.45,41.52-21.25,63.48-3.99,18.26-6.25,36.84-6.25,55.11h0ZM3.59,8.4c.34,0,.62.28.62.62s-.28.62-.62.62-.62-.28-.62-.62.28-.62.62-.62h0ZM8.72,8.4c.34,0,.62.28.62.62s-.28.62-.62.62-.62-.28-.62-.62.28-.62.62-.62h0ZM13.85,8.4c.34,0,.62.28.62.62s-.28.62-.62.62-.62-.28-.62-.62.28-.62.62-.62h0ZM18.98,8.4c.34,0,.62.28.62.62s-.28.62-.62.62-.62-.28-.62-.62.28-.62.62-.62h0ZM24.11,8.4c.34,0,.62.28.62.62s-.28.62-.62.62-.62-.28-.62-.62.28-.62.62-.62h0ZM29.24,8.4c.34,0,.62.28.62.62s-.28.62-.62.62-.62-.28-.62-.62.28-.62.62-.62h0ZM34.37,8.4c.34,0,.62.28.62.62s-.28.62-.62.62-.62-.28-.62-.62.28-.62.62-.62h0ZM39.5,8.4c.34,0,.62.28.62.62s-.28.62-.62.62-.62-.28-.62-.62.28-.62.62-.62h0ZM44.63,8.4c.34,0,.62.28.62.62s-.28.62-.62.62-.62-.28-.62-.62.28-.62.62-.62h0ZM49.77,8.4c.34,0,.62.28.62.62s-.28.62-.62.62-.62-.28-.62-.62.28-.62.62-.62h0ZM54.9,8.4c.34,0,.62.28.62.62s-.28.62-.62.62-.62-.28-.62-.62.28-.62.62-.62h0ZM60.03,8.4c.34,0,.62.28.62.62s-.28.62-.62.62-.62-.28-.62-.62.28-.62.62-.62h0ZM65.16,8.4c.34,0,.62.28.62.62s-.28.62-.62.62-.62-.28-.62-.62.28-.62.62-.62h0ZM70.29,8.4c.34,0,.62.28.62.62s-.28.62-.62.62-.62-.28-.62-.62.28-.62.62-.62h0ZM75.42,8.4c.34,0,.62.28.62.62s-.28.62-.62.62-.62-.28-.62-.62.28-.62.62-.62h0ZM80.55,8.4c.34,0,.62.28.62.62s-.28.62-.62.62-.62-.28-.62-.62.28-.62.62-.62h0ZM85.68,8.4c.34,0,.62.28.62.62s-.28.62-.62.62-.62-.28-.62-.62.28-.62.62-.62h0ZM90.81,8.4c.34,0,.62.28.62.62s-.28.62-.62.62-.62-.28-.62-.62.28-.62.62-.62h0ZM95.94,8.4c.34,0,.62.28.62.62s-.28.62-.62.62-.62-.28-.62-.62.28-.62.62-.62h0ZM101.08,8.4c.34,0,.62.28.62.62s-.28.62-.62.62-.62-.28-.62-.62.28-.62.62-.62h0ZM106.21,8.4c.34,0,.62.28.62.62s-.28.62-.62.62-.62-.28-.62-.62.28-.62.62-.62h0ZM111.34,8.4c.34,0,.62.28.62.62s-.28.62-.62.62-.62-.28-.62-.62.28-.62.62-.62h0ZM116.47,8.4c.34,0,.62.28.62.62s-.28.62-.62.62-.62-.28-.62-.62.28-.62.62-.62h0ZM121.6,8.4c.34,0,.62.28.62.62s-.28.62-.62.62-.62-.28-.62-.62.28-.62.62-.62h0ZM126.73,8.4c.34,0,.62.28.62.62s-.28.62-.62.62-.62-.28-.62-.62.28-.62.62-.62h0ZM131.86,8.4c.34,0,.62.28.62.62s-.28.62-.62.62-.62-.28-.62-.62.28-.62.62-.62h0ZM136.99,8.4c.34,0,.62.28.62.62s-.28.62-.62.62-.62-.28-.62-.62.28-.62.62-.62h0ZM142.12,8.4c.34,0,.62.28.62.62s-.28.62-.62.62-.62-.28-.62-.62.28-.62.62-.62h0ZM147.25,8.4c.34,0,.62.28.62.62s-.28.62-.62.62-.62-.28-.62-.62.28-.62.62-.62h0ZM152.39,8.4c.34,0,.62.28.62.62s-.28.62-.62.62-.62-.28-.62-.62.28-.62.62-.62h0ZM157.52,8.4c.34,0,.62.28.62.62s-.28.62-.62.62-.62-.28-.62-.62.28-.62.62-.62h0ZM162.65,8.4c.34,0,.62.28.62.62s-.28.62-.62.62-.62-.28-.62-.62.28-.62.62-.62h0ZM167.78,8.4c.34,0,.62.28.62.62s-.28.62-.62.62-.62-.28-.62-.62.28-.62.62-.62h0ZM172.91,8.4c.34,0,.62.28.62.62s-.28.62-.62.62-.62-.28-.62-.62.28-.62.62-.62h0ZM178.04,8.4c.34,0,.62.28.62.62s-.28.62-.62.62-.62-.28-.62-.62.28-.62.62-.62h0ZM183.17,8.4c.34,0,.62.28.62.62s-.28.62-.62.62-.62-.28-.62-.62.28-.62.62-.62h0ZM3.59,19.65c.34,0,.62.28.62.62s-.28.62-.62.62-.62-.28-.62-.62.28-.62.62-.62h0ZM8.72,19.65c.34,0,.62.28.62.62s-.28.62-.62.62-.62-.28-.62-.62.28-.62.62-.62h0ZM13.85,19.65c.34,0,.62.28.62.62s-.28.62-.62.62-.62-.28-.62-.62.28-.62.62-.62h0ZM18.98,19.65c.34,0,.62.28.62.62s-.28.62-.62.62-.62-.28-.62-.62.28-.62.62-.62h0ZM24.11,19.65c.34,0,.62.28.62.62s-.28.62-.62.62-.62-.28-.62-.62.28-.62.62-.62h0ZM29.24,19.65c.34,0,.62.28.62.62s-.28.62-.62.62-.62-.28-.62-.62.28-.62.62-.62h0ZM34.37,19.65c.34,0,.62.28.62.62s-.28.62-.62.62-.62-.28-.62-.62.28-.62.62-.62h0ZM39.5,19.65c.34,0,.62.28.62.62s-.28.62-.62.62-.62-.28-.62-.62.28-.62.62-.62h0ZM44.63,19.65c.34,0,.62.28.62.62s-.28.62-.62.62-.62-.28-.62-.62.28-.62.62-.62h0ZM49.77,19.65c.34,0,.62.28.62.62s-.28.62-.62.62-.62-.28-.62-.62.28-.62.62-.62h0ZM54.9,19.65c.34,0,.62.28.62.62s-.28.62-.62.62-.62-.28-.62-.62.28-.62.62-.62h0ZM60.03,19.65c.34,0,.62.28.62.62s-.28.62-.62.62-.62-.28-.62-.62.28-.62.62-.62h0ZM65.16,19.65c.34,0,.62.28.62.62s-.28.62-.62.62-.62-.28-.62-.62.28-.62.62-.62h0ZM70.29,19.65c.34,0,.62.28.62.62s-.28.62-.62.62-.62-.28-.62-.62.28-.62.62-.62h0ZM75.42,19.65c.34,0,.62.28.62.62s-.28.62-.62.62-.62-.28-.62-.62.28-.62.62-.62h0ZM80.55,19.65c.34,0,.62.28.62.62s-.28.62-.62.62-.62-.28-.62-.62.28-.62.62-.62h0ZM85.68,19.65c.34,0,.62.28.62.62s-.28.62-.62.62-.62-.28-.62-.62.28-.62.62-.62h0ZM90.81,19.65c.34,0,.62.28.62.62s-.28.62-.62.62-.62-.28-.62-.62.28-.62.62-.62h0ZM95.94,19.65c.34,0,.62.28.62.62s-.28.62-.62.62-.62-.28-.62-.62.28-.62.62-.62h0ZM101.08,19.65c.34,0,.62.28.62.62s-.28.62-.62.62-.62-.28-.62-.62.28-.62.62-.62h0ZM106.21,19.65c.34,0,.62.28.62.62s-.28.62-.62.62-.62-.28-.62-.62.28-.62.62-.62h0ZM111.34,19.65c.34,0,.62.28.62.62s-.28.62-.62.62-.62-.28-.62-.62.28-.62.62-.62h0ZM116.47,19.65c.34,0,.62.28.62.62s-.28.62-.62.62-.62-.28-.62-.62.28-.62.62-.62h0ZM121.6,19.65c.34,0,.62.28.62.62s-.28.62-.62.62-.62-.28-.62-.62.28-.62.62-.62h0ZM126.73,19.65c.34,0,.62.28.62.62s-.28.62-.62.62-.62-.28-.62-.62.28-.62.62-.62h0ZM131.86,19.65c.34,0,.62.28.62.62s-.28.62-.62.62-.62-.28-.62-.62.28-.62.62-.62h0ZM136.99,19.65c.34,0,.62.28.62.62s-.28.62-.62.62-.62-.28-.62-.62.28-.62.62-.62h0ZM142.12,19.65c.34,0,.62.28.62.62s-.28.62-.62.62-.62-.28-.62-.62.28-.62.62-.62h0ZM147.25,19.65c.34,0,.62.28.62.62s-.28.62-.62.62-.62-.28-.62-.62.28-.62.62-.62h0ZM152.39,19.65c.34,0,.62.28.62.62s-.28.62-.62.62-.62-.28-.62-.62.28-.62.62-.62h0ZM157.52,19.65c.34,0,.62.28.62.62s-.28.62-.62.62-.62-.28-.62-.62.28-.62.62-.62h0ZM162.65,19.65c.34,0,.62.28.62.62s-.28.62-.62.62-.62-.28-.62-.62.28-.62.62-.62h0ZM167.78,19.65c.34,0,.62.28.62.62s-.28.62-.62.62-.62-.28-.62-.62.28-.62.62-.62h0ZM172.91,19.65c.34,0,.62.28.62.62s-.28.62-.62.62-.62-.28-.62-.62.28-.62.62-.62h0ZM178.04,19.65c.34,0,.62.28.62.62s-.28.62-.62.62-.62-.28-.62-.62.28-.62.62-.62h0ZM183.17,19.65c.34,0,.62.28.62.62s-.28.62-.62.62-.62-.28-.62-.62.28-.62.62-.62h0ZM3.59,30.9c.34,0,.62.28.62.62s-.28.62-.62.62-.62-.28-.62-.62.28-.62.62-.62h0ZM8.72,30.9c.34,0,.62.28.62.62s-.28.62-.62.62-.62-.28-.62-.62.28-.62.62-.62h0ZM13.85,30.9c.34,0,.62.28.62.62s-.28.62-.62.62-.62-.28-.62-.62.28-.62.62-.62h0ZM18.98,30.9c.34,0,.62.28.62.62s-.28.62-.62.62-.62-.28-.62-.62.28-.62.62-.62h0ZM24.11,30.9c.34,0,.62.28.62.62s-.28.62-.62.62-.62-.28-.62-.62.28-.62.62-.62h0ZM29.24,30.9c.34,0,.62.28.62.62s-.28.62-.62.62-.62-.28-.62-.62.28-.62.62-.62h0ZM34.37,30.9c.34,0,.62.28.62.62s-.28.62-.62.62-.62-.28-.62-.62.28-.62.62-.62h0ZM39.5,30.9c.34,0,.62.28.62.62s-.28.62-.62.62-.62-.28-.62-.62.28-.62.62-.62h0ZM44.63,30.9c.34,0,.62.28.62.62s-.28.62-.62.62-.62-.28-.62-.62.28-.62.62-.62h0ZM49.77,30.9c.34,0,.62.28.62.62s-.28.62-.62.62-.62-.28-.62-.62.28-.62.62-.62h0ZM54.9,30.9c.34,0,.62.28.62.62s-.28.62-.62.62-.62-.28-.62-.62.28-.62.62-.62h0ZM60.03,30.9c.34,0,.62.28.62.62s-.28.62-.62.62-.62-.28-.62-.62.28-.62.62-.62h0ZM65.16,30.9c.34,0,.62.28.62.62s-.28.62-.62.62-.62-.28-.62-.62.28-.62.62-.62h0ZM70.29,30.9c.34,0,.62.28.62.62s-.28.62-.62.62-.62-.28-.62-.62.28-.62.62-.62h0ZM75.42,30.9c.34,0,.62.28.62.62s-.28.62-.62.62-.62-.28-.62-.62.28-.62.62-.62h0ZM80.55,30.9c.34,0,.62.28.62.62s-.28.62-.62.62-.62-.28-.62-.62.28-.62.62-.62h0ZM85.68,30.9c.34,0,.62.28.62.62s-.28.62-.62.62-.62-.28-.62-.62.28-.62.62-.62h0ZM90.81,30.9c.34,0,.62.28.62.62s-.28.62-.62.62-.62-.28-.62-.62.28-.62.62-.62h0ZM95.94,30.9c.34,0,.62.28.62.62s-.28.62-.62.62-.62-.28-.62-.62.28-.62.62-.62h0ZM101.08,30.9c.34,0,.62.28.62.62s-.28.62-.62.62-.62-.28-.62-.62.28-.62.62-.62h0ZM106.21,30.9c.34,0,.62.28.62.62s-.28.62-.62.62-.62-.28-.62-.62.28-.62.62-.62h0ZM111.34,30.9c.34,0,.62.28.62.62s-.28.62-.62.62-.62-.28-.62-.62.28-.62.62-.62h0ZM116.47,30.9c.34,0,.62.28.62.62s-.28.62-.62.62-.62-.28-.62-.62.28-.62.62-.62h0ZM121.6,30.9c.34,0,.62.28.62.62s-.28.62-.62.62-.62-.28-.62-.62.28-.62.62-.62h0ZM126.73,30.9c.34,0,.62.28.62.62s-.28.62-.62.62-.62-.28-.62-.62.28-.62.62-.62h0ZM131.86,30.9c.34,0,.62.28.62.62s-.28.62-.62.62-.62-.28-.62-.62.28-.62.62-.62h0ZM136.99,30.9c.34,0,.62.28.62.62s-.28.62-.62.62-.62-.28-.62-.62.28-.62.62-.62h0ZM142.12,30.9c.34,0,.62.28.62.62s-.28.62-.62.62-.62-.28-.62-.62.28-.62.62-.62h0ZM147.25,30.9c.34,0,.62.28.62.62s-.28.62-.62.62-.62-.28-.62-.62.28-.62.62-.62h0ZM152.39,30.9c.34,0,.62.28.62.62s-.28.62-.62.62-.62-.28-.62-.62.28-.62.62-.62h0ZM157.52,30.9c.34,0,.62.28.62.62s-.28.62-.62.62-.62-.28-.62-.62.28-.62.62-.62h0ZM167.78,30.9c.34,0,.62.28.62.62s-.28.62-.62.62-.62-.28-.62-.62.28-.62.62-.62h0ZM172.91,30.9c.34,0,.62.28.62.62s-.28.62-.62.62-.62-.28-.62-.62.28-.62.62-.62h0ZM178.04,30.9c.34,0,.62.28.62.62s-.28.62-.62.62-.62-.28-.62-.62.28-.62.62-.62h0ZM183.17,30.9c.34,0,.62.28.62.62s-.28.62-.62.62-.62-.28-.62-.62.28-.62.62-.62h0ZM3.59,42.15c.34,0,.62.28.62.62s-.28.62-.62.62-.62-.28-.62-.62.28-.62.62-.62h0ZM8.72,42.15c.34,0,.62.28.62.62s-.28.62-.62.62-.62-.28-.62-.62.28-.62.62-.62h0ZM13.85,42.15c.34,0,.62.28.62.62s-.28.62-.62.62-.62-.28-.62-.62.28-.62.62-.62h0ZM18.98,42.15c.34,0,.62.28.62.62s-.28.62-.62.62-.62-.28-.62-.62.28-.62.62-.62h0ZM24.11,42.15c.34,0,.62.28.62.62s-.28.62-.62.62-.62-.28-.62-.62.28-.62.62-.62h0ZM29.24,42.15c.34,0,.62.28.62.62s-.28.62-.62.62-.62-.28-.62-.62.28-.62.62-.62h0ZM34.37,42.15c.34,0,.62.28.62.62s-.28.62-.62.62-.62-.28-.62-.62.28-.62.62-.62h0ZM39.5,42.15c.34,0,.62.28.62.62s-.28.62-.62.62-.62-.28-.62-.62.28-.62.62-.62h0ZM44.63,42.15c.34,0,.62.28.62.62s-.28.62-.62.62-.62-.28-.62-.62.28-.62.62-.62h0ZM49.77,42.15c.34,0,.62.28.62.62s-.28.62-.62.62-.62-.28-.62-.62.28-.62.62-.62h0ZM54.9,42.15c.34,0,.62.28.62.62s-.28.62-.62.62-.62-.28-.62-.62.28-.62.62-.62h0ZM60.03,42.15c.34,0,.62.28.62.62s-.28.62-.62.62-.62-.28-.62-.62.28-.62.62-.62h0ZM65.16,42.15c.34,0,.62.28.62.62s-.28.62-.62.62-.62-.28-.62-.62.28-.62.62-.62h0ZM70.29,42.15c.34,0,.62.28.62.62s-.28.62-.62.62-.62-.28-.62-.62.28-.62.62-.62h0ZM75.42,42.15c.34,0,.62.28.62.62s-.28.62-.62.62-.62-.28-.62-.62.28-.62.62-.62h0ZM80.55,42.15c.34,0,.62.28.62.62s-.28.62-.62.62-.62-.28-.62-.62.28-.62.62-.62h0ZM85.68,42.15c.34,0,.62.28.62.62s-.28.62-.62.62-.62-.28-.62-.62.28-.62.62-.62h0ZM90.81,42.15c.34,0,.62.28.62.62s-.28.62-.62.62-.62-.28-.62-.62.28-.62.62-.62h0ZM95.94,42.15c.34,0,.62.28.62.62s-.28.62-.62.62-.62-.28-.62-.62.28-.62.62-.62h0ZM101.08,42.15c.34,0,.62.28.62.62s-.28.62-.62.62-.62-.28-.62-.62.28-.62.62-.62h0ZM106.21,42.15c.34,0,.62.28.62.62s-.28.62-.62.62-.62-.28-.62-.62.28-.62.62-.62h0ZM111.34,42.15c.34,0,.62.28.62.62s-.28.62-.62.62-.62-.28-.62-.62.28-.62.62-.62h0ZM116.47,42.15c.34,0,.62.28.62.62s-.28.62-.62.62-.62-.28-.62-.62.28-.62.62-.62h0ZM121.6,42.15c.34,0,.62.28.62.62s-.28.62-.62.62-.62-.28-.62-.62.28-.62.62-.62h0ZM126.73,42.15c.34,0,.62.28.62.62s-.28.62-.62.62-.62-.28-.62-.62.28-.62.62-.62h0ZM131.86,42.15c.34,0,.62.28.62.62s-.28.62-.62.62-.62-.28-.62-.62.28-.62.62-.62h0ZM136.99,42.15c.34,0,.62.28.62.62s-.28.62-.62.62-.62-.28-.62-.62.28-.62.62-.62h0ZM142.12,42.15c.34,0,.62.28.62.62s-.28.62-.62.62-.62-.28-.62-.62.28-.62.62-.62h0ZM147.25,42.15c.34,0,.62.28.62.62s-.28.62-.62.62-.62-.28-.62-.62.28-.62.62-.62h0ZM152.39,42.15c.34,0,.62.28.62.62s-.28.62-.62.62-.62-.28-.62-.62.28-.62.62-.62h0ZM157.52,42.15c.34,0,.62.28.62.62s-.28.62-.62.62-.62-.28-.62-.62.28-.62.62-.62h0ZM162.65,42.15c.34,0,.62.28.62.62s-.28.62-.62.62-.62-.28-.62-.62.28-.62.62-.62h0ZM167.78,42.15c.34,0,.62.28.62.62s-.28.62-.62.62-.62-.28-.62-.62.28-.62.62-.62h0ZM172.91,42.15c.34,0,.62.28.62.62s-.28.62-.62.62-.62-.28-.62-.62.28-.62.62-.62h0ZM178.04,42.15c.34,0,.62.28.62.62s-.28.62-.62.62-.62-.28-.62-.62.28-.62.62-.62h0ZM183.17,42.15c.34,0,.62.28.62.62s-.28.62-.62.62-.62-.28-.62-.62.28-.62.62-.62h0ZM3.59,53.4c.34,0,.62.28.62.62s-.28.62-.62.62-.62-.28-.62-.62.28-.62.62-.62h0ZM8.72,53.4c.34,0,.62.28.62.62s-.28.62-.62.62-.62-.28-.62-.62.28-.62.62-.62h0ZM13.85,53.4c.34,0,.62.28.62.62s-.28.62-.62.62-.62-.28-.62-.62.28-.62.62-.62h0ZM18.98,53.4c.34,0,.62.28.62.62s-.28.62-.62.62-.62-.28-.62-.62.28-.62.62-.62h0ZM24.11,53.4c.34,0,.62.28.62.62s-.28.62-.62.62-.62-.28-.62-.62.28-.62.62-.62h0ZM29.24,53.4c.34,0,.62.28.62.62s-.28.62-.62.62-.62-.28-.62-.62.28-.62.62-.62h0ZM34.37,53.4c.34,0,.62.28.62.62s-.28.62-.62.62-.62-.28-.62-.62.28-.62.62-.62h0ZM39.5,53.4c.34,0,.62.28.62.62s-.28.62-.62.62-.62-.28-.62-.62.28-.62.62-.62h0ZM44.63,53.4c.34,0,.62.28.62.62s-.28.62-.62.62-.62-.28-.62-.62.28-.62.62-.62h0ZM49.77,53.4c.34,0,.62.28.62.62s-.28.62-.62.62-.62-.28-.62-.62.28-.62.62-.62h0ZM54.9,53.4c.34,0,.62.28.62.62s-.28.62-.62.62-.62-.28-.62-.62.28-.62.62-.62h0ZM60.03,53.4c.34,0,.62.28.62.62s-.28.62-.62.62-.62-.28-.62-.62.28-.62.62-.62h0ZM65.16,53.4c.34,0,.62.28.62.62s-.28.62-.62.62-.62-.28-.62-.62.28-.62.62-.62h0ZM70.29,53.4c.34,0,.62.28.62.62s-.28.62-.62.62-.62-.28-.62-.62.28-.62.62-.62h0ZM75.42,53.4c.34,0,.62.28.62.62s-.28.62-.62.62-.62-.28-.62-.62.28-.62.62-.62h0ZM80.55,53.4c.34,0,.62.28.62.62s-.28.62-.62.62-.62-.28-.62-.62.28-.62.62-.62h0ZM85.68,53.4c.34,0,.62.28.62.62s-.28.62-.62.62-.62-.28-.62-.62.28-.62.62-.62h0ZM90.81,53.4c.34,0,.62.28.62.62s-.28.62-.62.62-.62-.28-.62-.62.28-.62.62-.62h0ZM95.94,53.4c.34,0,.62.28.62.62s-.28.62-.62.62-.62-.28-.62-.62.28-.62.62-.62h0ZM101.08,53.4c.34,0,.62.28.62.62s-.28.62-.62.62-.62-.28-.62-.62.28-.62.62-.62h0ZM106.21,53.4c.34,0,.62.28.62.62s-.28.62-.62.62-.62-.28-.62-.62.28-.62.62-.62h0ZM111.34,53.4c.34,0,.62.28.62.62s-.28.62-.62.62-.62-.28-.62-.62.28-.62.62-.62h0ZM116.47,53.4c.34,0,.62.28.62.62s-.28.62-.62.62-.62-.28-.62-.62.28-.62.62-.62h0ZM121.6,53.4c.34,0,.62.28.62.62s-.28.62-.62.62-.62-.28-.62-.62.28-.62.62-.62h0ZM126.73,53.4c.34,0,.62.28.62.62s-.28.62-.62.62-.62-.28-.62-.62.28-.62.62-.62h0ZM131.86,53.4c.34,0,.62.28.62.62s-.28.62-.62.62-.62-.28-.62-.62.28-.62.62-.62h0ZM136.99,53.4c.34,0,.62.28.62.62s-.28.62-.62.62-.62-.28-.62-.62.28-.62.62-.62h0ZM142.12,53.4c.34,0,.62.28.62.62s-.28.62-.62.62-.62-.28-.62-.62.28-.62.62-.62h0ZM147.25,53.4c.34,0,.62.28.62.62s-.28.62-.62.62-.62-.28-.62-.62.28-.62.62-.62h0ZM152.39,53.4c.34,0,.62.28.62.62s-.28.62-.62.62-.62-.28-.62-.62.28-.62.62-.62h0ZM157.52,53.4c.34,0,.62.28.62.62s-.28.62-.62.62-.62-.28-.62-.62.28-.62.62-.62h0ZM162.65,53.4c.34,0,.62.28.62.62s-.28.62-.62.62-.62-.28-.62-.62.28-.62.62-.62h0ZM167.78,53.4c.34,0,.62.28.62.62s-.28.62-.62.62-.62-.28-.62-.62.28-.62.62-.62h0ZM172.91,53.4c.34,0,.62.28.62.62s-.28.62-.62.62-.62-.28-.62-.62.28-.62.62-.62h0ZM178.04,53.4c.34,0,.62.28.62.62s-.28.62-.62.62-.62-.28-.62-.62.28-.62.62-.62h0ZM183.17,53.4c.34,0,.62.28.62.62s-.28.62-.62.62-.62-.28-.62-.62.28-.62.62-.62h0ZM3.59,64.64c.34,0,.62.28.62.62s-.28.62-.62.62-.62-.28-.62-.62.28-.62.62-.62h0ZM8.72,64.64c.34,0,.62.28.62.62s-.28.62-.62.62-.62-.28-.62-.62.28-.62.62-.62h0ZM13.85,64.64c.34,0,.62.28.62.62s-.28.62-.62.62-.62-.28-.62-.62.28-.62.62-.62h0ZM18.98,64.64c.34,0,.62.28.62.62s-.28.62-.62.62-.62-.28-.62-.62.28-.62.62-.62h0ZM24.11,64.64c.34,0,.62.28.62.62s-.28.62-.62.62-.62-.28-.62-.62.28-.62.62-.62h0ZM29.24,64.64c.34,0,.62.28.62.62s-.28.62-.62.62-.62-.28-.62-.62.28-.62.62-.62h0ZM34.37,64.64c.34,0,.62.28.62.62s-.28.62-.62.62-.62-.28-.62-.62.28-.62.62-.62h0ZM39.5,64.64c.34,0,.62.28.62.62s-.28.62-.62.62-.62-.28-.62-.62.28-.62.62-.62h0ZM44.63,64.64c.34,0,.62.28.62.62s-.28.62-.62.62-.62-.28-.62-.62.28-.62.62-.62h0ZM49.77,64.64c.34,0,.62.28.62.62s-.28.62-.62.62-.62-.28-.62-.62.28-.62.62-.62h0ZM54.9,64.64c.34,0,.62.28.62.62s-.28.62-.62.62-.62-.28-.62-.62.28-.62.62-.62h0ZM60.03,64.64c.34,0,.62.28.62.62s-.28.62-.62.62-.62-.28-.62-.62.28-.62.62-.62h0ZM65.16,64.64c.34,0,.62.28.62.62s-.28.62-.62.62-.62-.28-.62-.62.28-.62.62-.62h0ZM70.29,64.64c.34,0,.62.28.62.62s-.28.62-.62.62-.62-.28-.62-.62.28-.62.62-.62h0ZM75.42,64.64c.34,0,.62.28.62.62s-.28.62-.62.62-.62-.28-.62-.62.28-.62.62-.62h0ZM80.55,64.64c.34,0,.62.28.62.62s-.28.62-.62.62-.62-.28-.62-.62.28-.62.62-.62h0ZM85.68,64.64c.34,0,.62.28.62.62s-.28.62-.62.62-.62-.28-.62-.62.28-.62.62-.62h0ZM90.81,64.64c.34,0,.62.28.62.62s-.28.62-.62.62-.62-.28-.62-.62.28-.62.62-.62h0ZM95.94,64.64c.34,0,.62.28.62.62s-.28.62-.62.62-.62-.28-.62-.62.28-.62.62-.62h0ZM101.08,64.64c.34,0,.62.28.62.62s-.28.62-.62.62-.62-.28-.62-.62.28-.62.62-.62h0ZM106.21,64.64c.34,0,.62.28.62.62s-.28.62-.62.62-.62-.28-.62-.62.28-.62.62-.62h0ZM111.34,64.64c.34,0,.62.28.62.62s-.28.62-.62.62-.62-.28-.62-.62.28-.62.62-.62h0ZM116.47,64.64c.34,0,.62.28.62.62s-.28.62-.62.62-.62-.28-.62-.62.28-.62.62-.62h0ZM121.6,64.64c.34,0,.62.28.62.62s-.28.62-.62.62-.62-.28-.62-.62.28-.62.62-.62h0ZM126.73,64.64c.34,0,.62.28.62.62s-.28.62-.62.62-.62-.28-.62-.62.28-.62.62-.62h0ZM131.86,64.64c.34,0,.62.28.62.62s-.28.62-.62.62-.62-.28-.62-.62.28-.62.62-.62h0ZM136.99,64.64c.34,0,.62.28.62.62s-.28.62-.62.62-.62-.28-.62-.62.28-.62.62-.62h0ZM142.12,64.64c.34,0,.62.28.62.62s-.28.62-.62.62-.62-.28-.62-.62.28-.62.62-.62h0ZM147.25,64.64c.34,0,.62.28.62.62s-.28.62-.62.62-.62-.28-.62-.62.28-.62.62-.62h0ZM152.39,64.64c.34,0,.62.28.62.62s-.28.62-.62.62-.62-.28-.62-.62.28-.62.62-.62h0ZM157.52,64.64c.34,0,.62.28.62.62s-.28.62-.62.62-.62-.28-.62-.62.28-.62.62-.62h0ZM162.65,64.64c.34,0,.62.28.62.62s-.28.62-.62.62-.62-.28-.62-.62.28-.62.62-.62h0ZM167.78,64.64c.34,0,.62.28.62.62s-.28.62-.62.62-.62-.28-.62-.62.28-.62.62-.62h0ZM172.91,64.64c.34,0,.62.28.62.62s-.28.62-.62.62-.62-.28-.62-.62.28-.62.62-.62h0ZM178.04,64.64c.34,0,.62.28.62.62s-.28.62-.62.62-.62-.28-.62-.62.28-.62.62-.62h0ZM183.17,64.64c.34,0,.62.28.62.62s-.28.62-.62.62-.62-.28-.62-.62.28-.62.62-.62h0ZM121.6,75.89c-.34,0-.62.28-.62.62s.28.62.62.62.62-.28.62-.62-.28-.62-.62-.62h0ZM126.73,75.89c-.34,0-.62.28-.62.62s.28.62.62.62.62-.28.62-.62-.28-.62-.62-.62h0ZM131.86,75.89c-.34,0-.62.28-.62.62s.28.62.62.62.62-.28.62-.62-.28-.62-.62-.62h0ZM136.99,75.89c-.34,0-.62.28-.62.62s.28.62.62.62.62-.28.62-.62-.28-.62-.62-.62h0ZM142.12,75.89c-.34,0-.62.28-.62.62s.28.62.62.62.62-.28.62-.62-.28-.62-.62-.62h0ZM147.25,75.89c-.34,0-.62.28-.62.62s.28.62.62.62.62-.28.62-.62-.28-.62-.62-.62h0ZM157.52,75.89c-.34,0-.62.28-.62.62s.28.62.62.62.62-.28.62-.62-.28-.62-.62-.62h0ZM162.65,75.89c.34,0,.62.28.62.62s-.28.62-.62.62-.62-.28-.62-.62.28-.62.62-.62h0ZM167.78,75.89c.34,0,.62.28.62.62s-.28.62-.62.62-.62-.28-.62-.62.28-.62.62-.62h0ZM172.91,75.89c.34,0,.62.28.62.62s-.28.62-.62.62-.62-.28-.62-.62.28-.62.62-.62h0ZM178.04,75.89c.34,0,.62.28.62.62s-.28.62-.62.62-.62-.28-.62-.62.28-.62.62-.62h0ZM183.17,75.89c.34,0,.62.28.62.62s-.28.62-.62.62-.62-.28-.62-.62.28-.62.62-.62h0ZM185.61,2.78c.34,0,.62.28.62.62s-.28.62-.62.62-.62-.28-.62-.62.28-.62.62-.62h0ZM185.61,14.03c.34,0,.62.28.62.62s-.28.62-.62.62-.62-.28-.62-.62.28-.62.62-.62h0ZM185.61,25.28c.34,0,.62.28.62.62s-.28.62-.62.62-.62-.28-.62-.62.28-.62.62-.62h0ZM185.61,36.52c.34,0,.62.28.62.62s-.28.62-.62.62-.62-.28-.62-.62.28-.62.62-.62h0ZM185.61,47.77c.34,0,.62.28.62.62s-.28.62-.62.62-.62-.28-.62-.62.28-.62.62-.62h0ZM185.61,59.02c.34,0,.62.28.62.62s-.28.62-.62.62-.62-.28-.62-.62.28-.62.62-.62h0ZM185.61,70.27c.34,0,.62.28.62.62s-.28.62-.62.62-.62-.28-.62-.62.28-.62.62-.62h0ZM185.61,81.52c.34,0,.62.28.62.62s-.28.62-.62.62-.62-.28-.62-.62.28-.62.62-.62h0ZM180.48,2.78c.34,0,.62.28.62.62s-.28.62-.62.62-.62-.28-.62-.62.28-.62.62-.62h0ZM180.48,14.03c.34,0,.62.28.62.62s-.28.62-.62.62-.62-.28-.62-.62.28-.62.62-.62h0ZM180.48,25.28c.34,0,.62.28.62.62s-.28.62-.62.62-.62-.28-.62-.62.28-.62.62-.62h0ZM180.48,36.52c.34,0,.62.28.62.62s-.28.62-.62.62-.62-.28-.62-.62.28-.62.62-.62h0ZM180.48,47.77c.34,0,.62.28.62.62s-.28.62-.62.62-.62-.28-.62-.62.28-.62.62-.62h0ZM180.48,59.02c.34,0,.62.28.62.62s-.28.62-.62.62-.62-.28-.62-.62.28-.62.62-.62h0ZM180.48,70.27c.34,0,.62.28.62.62s-.28.62-.62.62-.62-.28-.62-.62.28-.62.62-.62h0ZM180.48,81.52c.34,0,.62.28.62.62s-.28.62-.62.62-.62-.28-.62-.62.28-.62.62-.62h0ZM175.35,2.78c.34,0,.62.28.62.62s-.28.62-.62.62-.62-.28-.62-.62.28-.62.62-.62h0ZM175.35,14.03c.34,0,.62.28.62.62s-.28.62-.62.62-.62-.28-.62-.62.28-.62.62-.62h0ZM175.35,25.28c.34,0,.62.28.62.62s-.28.62-.62.62-.62-.28-.62-.62.28-.62.62-.62h0ZM175.35,36.52c.34,0,.62.28.62.62s-.28.62-.62.62-.62-.28-.62-.62.28-.62.62-.62h0ZM175.35,47.77c.34,0,.62.28.62.62s-.28.62-.62.62-.62-.28-.62-.62.28-.62.62-.62h0ZM175.35,59.02c.34,0,.62.28.62.62s-.28.62-.62.62-.62-.28-.62-.62.28-.62.62-.62h0ZM175.35,70.27c.34,0,.62.28.62.62s-.28.62-.62.62-.62-.28-.62-.62.28-.62.62-.62h0ZM175.35,81.52c.34,0,.62.28.62.62s-.28.62-.62.62-.62-.28-.62-.62.28-.62.62-.62h0ZM170.21,2.78c.34,0,.62.28.62.62s-.28.62-.62.62-.62-.28-.62-.62.28-.62.62-.62h0ZM170.21,14.03c.34,0,.62.28.62.62s-.28.62-.62.62-.62-.28-.62-.62.28-.62.62-.62h0ZM170.21,25.28c.34,0,.62.28.62.62s-.28.62-.62.62-.62-.28-.62-.62.28-.62.62-.62h0ZM170.21,47.77c.34,0,.62.28.62.62s-.28.62-.62.62-.62-.28-.62-.62.28-.62.62-.62h0ZM170.21,59.02c.34,0,.62.28.62.62s-.28.62-.62.62-.62-.28-.62-.62.28-.62.62-.62h0ZM170.21,70.27c.34,0,.62.28.62.62s-.28.62-.62.62-.62-.28-.62-.62.28-.62.62-.62h0ZM170.21,81.52c.34,0,.62.28.62.62s-.28.62-.62.62-.62-.28-.62-.62.28-.62.62-.62h0ZM165.08,2.78c.34,0,.62.28.62.62s-.28.62-.62.62-.62-.28-.62-.62.28-.62.62-.62h0ZM165.08,14.03c.34,0,.62.28.62.62s-.28.62-.62.62-.62-.28-.62-.62.28-.62.62-.62h0ZM165.08,25.28c.34,0,.62.28.62.62s-.28.62-.62.62-.62-.28-.62-.62.28-.62.62-.62h0ZM165.08,47.77c.34,0,.62.28.62.62s-.28.62-.62.62-.62-.28-.62-.62.28-.62.62-.62h0ZM165.08,59.02c.34,0,.62.28.62.62s-.28.62-.62.62-.62-.28-.62-.62.28-.62.62-.62h0ZM165.08,70.27c.34,0,.62.28.62.62s-.28.62-.62.62-.62-.28-.62-.62.28-.62.62-.62h0ZM165.08,81.52c.34,0,.62.28.62.62s-.28.62-.62.62-.62-.28-.62-.62.28-.62.62-.62h0ZM159.95,2.78c.34,0,.62.28.62.62s-.28.62-.62.62-.62-.28-.62-.62.28-.62.62-.62h0ZM159.95,14.03c.34,0,.62.28.62.62s-.28.62-.62.62-.62-.28-.62-.62.28-.62.62-.62h0ZM159.95,25.28c.34,0,.62.28.62.62s-.28.62-.62.62-.62-.28-.62-.62.28-.62.62-.62h0ZM159.95,47.77c.34,0,.62.28.62.62s-.28.62-.62.62-.62-.28-.62-.62.28-.62.62-.62h0ZM159.95,59.02c.34,0,.62.28.62.62s-.28.62-.62.62-.62-.28-.62-.62.28-.62.62-.62h0ZM159.95,70.27c.34,0,.62.28.62.62s-.28.62-.62.62-.62-.28-.62-.62.28-.62.62-.62h0ZM159.95,81.52c.34,0,.62.28.62.62s-.28.62-.62.62-.62-.28-.62-.62.28-.62.62-.62h0ZM154.82,2.78c.34,0,.62.28.62.62s-.28.62-.62.62-.62-.28-.62-.62.28-.62.62-.62h0ZM154.82,14.03c.34,0,.62.28.62.62s-.28.62-.62.62-.62-.28-.62-.62.28-.62.62-.62h0ZM154.82,25.28c.34,0,.62.28.62.62s-.28.62-.62.62-.62-.28-.62-.62.28-.62.62-.62h0ZM154.82,47.77c.34,0,.62.28.62.62s-.28.62-.62.62-.62-.28-.62-.62.28-.62.62-.62h0ZM154.82,59.02c.34,0,.62.28.62.62s-.28.62-.62.62-.62-.28-.62-.62.28-.62.62-.62h0ZM154.82,81.52c-.34,0-.62.28-.62.62s.28.62.62.62.62-.28.62-.62-.28-.62-.62-.62h0ZM149.69,2.78c.34,0,.62.28.62.62s-.28.62-.62.62-.62-.28-.62-.62.28-.62.62-.62h0ZM149.69,14.03c.34,0,.62.28.62.62s-.28.62-.62.62-.62-.28-.62-.62.28-.62.62-.62h0ZM149.69,25.28c.34,0,.62.28.62.62s-.28.62-.62.62-.62-.28-.62-.62.28-.62.62-.62h0ZM149.69,47.77c.34,0,.62.28.62.62s-.28.62-.62.62-.62-.28-.62-.62.28-.62.62-.62h0ZM149.69,59.02c.34,0,.62.28.62.62s-.28.62-.62.62-.62-.28-.62-.62.28-.62.62-.62h0ZM149.69,70.27c-.34,0-.62.28-.62.62s.28.62.62.62.62-.28.62-.62-.28-.62-.62-.62h0ZM144.56,2.78c.34,0,.62.28.62.62s-.28.62-.62.62-.62-.28-.62-.62.28-.62.62-.62h0ZM144.56,14.03c.34,0,.62.28.62.62s-.28.62-.62.62-.62-.28-.62-.62.28-.62.62-.62h0ZM144.56,25.28c.34,0,.62.28.62.62s-.28.62-.62.62-.62-.28-.62-.62.28-.62.62-.62h0ZM144.56,47.77c.34,0,.62.28.62.62s-.28.62-.62.62-.62-.28-.62-.62.28-.62.62-.62h0ZM144.56,59.02c.34,0,.62.28.62.62s-.28.62-.62.62-.62-.28-.62-.62.28-.62.62-.62h0ZM144.56,70.27c-.34,0-.62.28-.62.62s.28.62.62.62.62-.28.62-.62-.28-.62-.62-.62h0ZM144.56,81.52c-.34,0-.62.28-.62.62s.28.62.62.62.62-.28.62-.62-.28-.62-.62-.62h0ZM139.43,2.78c.34,0,.62.28.62.62s-.28.62-.62.62-.62-.28-.62-.62.28-.62.62-.62h0ZM139.43,14.03c.34,0,.62.28.62.62s-.28.62-.62.62-.62-.28-.62-.62.28-.62.62-.62h0ZM139.43,25.28c.34,0,.62.28.62.62s-.28.62-.62.62-.62-.28-.62-.62.28-.62.62-.62h0ZM139.43,47.77c.34,0,.62.28.62.62s-.28.62-.62.62-.62-.28-.62-.62.28-.62.62-.62h0ZM139.43,59.02c.34,0,.62.28.62.62s-.28.62-.62.62-.62-.28-.62-.62.28-.62.62-.62h0ZM139.43,70.27c-.34,0-.62.28-.62.62s.28.62.62.62.62-.28.62-.62-.28-.62-.62-.62h0ZM139.43,81.52c-.34,0-.62.28-.62.62s.28.62.62.62.62-.28.62-.62-.28-.62-.62-.62h0ZM134.3,2.78c.34,0,.62.28.62.62s-.28.62-.62.62-.62-.28-.62-.62.28-.62.62-.62h0ZM134.3,14.03c.34,0,.62.28.62.62s-.28.62-.62.62-.62-.28-.62-.62.28-.62.62-.62h0ZM134.3,25.28c.34,0,.62.28.62.62s-.28.62-.62.62-.62-.28-.62-.62.28-.62.62-.62h0ZM134.3,47.77c.34,0,.62.28.62.62s-.28.62-.62.62-.62-.28-.62-.62.28-.62.62-.62h0ZM134.3,59.02c.34,0,.62.28.62.62s-.28.62-.62.62-.62-.28-.62-.62.28-.62.62-.62h0ZM134.3,70.27c-.34,0-.62.28-.62.62s.28.62.62.62.62-.28.62-.62-.28-.62-.62-.62h0ZM134.3,81.52c-.34,0-.62.28-.62.62s.28.62.62.62.62-.28.62-.62-.28-.62-.62-.62h0ZM129.17,2.78c.34,0,.62.28.62.62s-.28.62-.62.62-.62-.28-.62-.62.28-.62.62-.62h0ZM129.17,14.03c.34,0,.62.28.62.62s-.28.62-.62.62-.62-.28-.62-.62.28-.62.62-.62h0ZM129.17,25.28c.34,0,.62.28.62.62s-.28.62-.62.62-.62-.28-.62-.62.28-.62.62-.62h0ZM129.17,47.77c.34,0,.62.28.62.62s-.28.62-.62.62-.62-.28-.62-.62.28-.62.62-.62h0ZM129.17,59.02c.34,0,.62.28.62.62s-.28.62-.62.62-.62-.28-.62-.62.28-.62.62-.62h0ZM129.17,70.27c-.34,0-.62.28-.62.62s.28.62.62.62.62-.28.62-.62-.28-.62-.62-.62h0ZM129.17,81.52c-.34,0-.62.28-.62.62s.28.62.62.62.62-.28.62-.62-.28-.62-.62-.62h0ZM124.04,2.78c.34,0,.62.28.62.62s-.28.62-.62.62-.62-.28-.62-.62.28-.62.62-.62h0ZM124.04,14.03c.34,0,.62.28.62.62s-.28.62-.62.62-.62-.28-.62-.62.28-.62.62-.62h0ZM124.04,25.28c.34,0,.62.28.62.62s-.28.62-.62.62-.62-.28-.62-.62.28-.62.62-.62h0ZM124.04,47.77c.34,0,.62.28.62.62s-.28.62-.62.62-.62-.28-.62-.62.28-.62.62-.62h0ZM124.04,59.02c.34,0,.62.28.62.62s-.28.62-.62.62-.62-.28-.62-.62.28-.62.62-.62h0ZM124.04,70.27c-.34,0-.62.28-.62.62s.28.62.62.62.62-.28.62-.62-.28-.62-.62-.62h0ZM124.04,81.52c-.34,0-.62.28-.62.62s.28.62.62.62.62-.28.62-.62-.28-.62-.62-.62h0ZM118.9,2.78c.34,0,.62.28.62.62s-.28.62-.62.62-.62-.28-.62-.62.28-.62.62-.62h0ZM118.9,14.03c.34,0,.62.28.62.62s-.28.62-.62.62-.62-.28-.62-.62.28-.62.62-.62h0ZM118.9,25.28c.34,0,.62.28.62.62s-.28.62-.62.62-.62-.28-.62-.62.28-.62.62-.62h0ZM118.9,47.77c.34,0,.62.28.62.62s-.28.62-.62.62-.62-.28-.62-.62.28-.62.62-.62h0ZM118.9,59.02c.34,0,.62.28.62.62s-.28.62-.62.62-.62-.28-.62-.62.28-.62.62-.62h0ZM118.9,81.52c-.34,0-.62.28-.62.62s.28.62.62.62.62-.28.62-.62-.28-.62-.62-.62h0ZM113.77,2.78c.34,0,.62.28.62.62s-.28.62-.62.62-.62-.28-.62-.62.28-.62.62-.62h0ZM113.77,14.03c.34,0,.62.28.62.62s-.28.62-.62.62-.62-.28-.62-.62.28-.62.62-.62h0ZM113.77,25.28c.34,0,.62.28.62.62s-.28.62-.62.62-.62-.28-.62-.62.28-.62.62-.62h0ZM113.77,47.77c.34,0,.62.28.62.62s-.28.62-.62.62-.62-.28-.62-.62.28-.62.62-.62h0ZM113.77,59.02c.34,0,.62.28.62.62s-.28.62-.62.62-.62-.28-.62-.62.28-.62.62-.62h0ZM108.64,2.78c.34,0,.62.28.62.62s-.28.62-.62.62-.62-.28-.62-.62.28-.62.62-.62h0ZM108.64,14.03c.34,0,.62.28.62.62s-.28.62-.62.62-.62-.28-.62-.62.28-.62.62-.62h0ZM108.64,25.28c.34,0,.62.28.62.62s-.28.62-.62.62-.62-.28-.62-.62.28-.62.62-.62h0ZM108.64,47.77c.34,0,.62.28.62.62s-.28.62-.62.62-.62-.28-.62-.62.28-.62.62-.62h0ZM108.64,59.02c.34,0,.62.28.62.62s-.28.62-.62.62-.62-.28-.62-.62.28-.62.62-.62h0ZM103.51,2.78c.34,0,.62.28.62.62s-.28.62-.62.62-.62-.28-.62-.62.28-.62.62-.62h0ZM103.51,14.03c.34,0,.62.28.62.62s-.28.62-.62.62-.62-.28-.62-.62.28-.62.62-.62h0ZM103.51,25.28c.34,0,.62.28.62.62s-.28.62-.62.62-.62-.28-.62-.62.28-.62.62-.62h0ZM103.51,47.77c.34,0,.62.28.62.62s-.28.62-.62.62-.62-.28-.62-.62.28-.62.62-.62h0ZM103.51,59.02c.34,0,.62.28.62.62s-.28.62-.62.62-.62-.28-.62-.62.28-.62.62-.62h0ZM98.38,2.78c.34,0,.62.28.62.62s-.28.62-.62.62-.62-.28-.62-.62.28-.62.62-.62h0ZM98.38,14.03c.34,0,.62.28.62.62s-.28.62-.62.62-.62-.28-.62-.62.28-.62.62-.62h0ZM98.38,25.28c.34,0,.62.28.62.62s-.28.62-.62.62-.62-.28-.62-.62.28-.62.62-.62h0ZM98.38,47.77c.34,0,.62.28.62.62s-.28.62-.62.62-.62-.28-.62-.62.28-.62.62-.62h0ZM98.38,59.02c.34,0,.62.28.62.62s-.28.62-.62.62-.62-.28-.62-.62.28-.62.62-.62h0ZM93.25,2.78c.34,0,.62.28.62.62s-.28.62-.62.62-.62-.28-.62-.62.28-.62.62-.62h0ZM93.25,14.03c.34,0,.62.28.62.62s-.28.62-.62.62-.62-.28-.62-.62.28-.62.62-.62h0ZM93.25,25.28c.34,0,.62.28.62.62s-.28.62-.62.62-.62-.28-.62-.62.28-.62.62-.62h0ZM93.25,47.77c.34,0,.62.28.62.62s-.28.62-.62.62-.62-.28-.62-.62.28-.62.62-.62h0ZM93.25,59.02c.34,0,.62.28.62.62s-.28.62-.62.62-.62-.28-.62-.62.28-.62.62-.62h0ZM88.12,2.78c.34,0,.62.28.62.62s-.28.62-.62.62-.62-.28-.62-.62.28-.62.62-.62h0ZM88.12,14.03c.34,0,.62.28.62.62s-.28.62-.62.62-.62-.28-.62-.62.28-.62.62-.62h0ZM88.12,25.28c.34,0,.62.28.62.62s-.28.62-.62.62-.62-.28-.62-.62.28-.62.62-.62h0ZM88.12,47.77c.34,0,.62.28.62.62s-.28.62-.62.62-.62-.28-.62-.62.28-.62.62-.62h0ZM88.12,59.02c.34,0,.62.28.62.62s-.28.62-.62.62-.62-.28-.62-.62.28-.62.62-.62h0ZM82.99,2.78c.34,0,.62.28.62.62s-.28.62-.62.62-.62-.28-.62-.62.28-.62.62-.62h0ZM82.99,14.03c.34,0,.62.28.62.62s-.28.62-.62.62-.62-.28-.62-.62.28-.62.62-.62h0ZM82.99,25.28c.34,0,.62.28.62.62s-.28.62-.62.62-.62-.28-.62-.62.28-.62.62-.62h0ZM82.99,47.77c.34,0,.62.28.62.62s-.28.62-.62.62-.62-.28-.62-.62.28-.62.62-.62h0ZM82.99,59.02c.34,0,.62.28.62.62s-.28.62-.62.62-.62-.28-.62-.62.28-.62.62-.62h0ZM77.86,2.78c.34,0,.62.28.62.62s-.28.62-.62.62-.62-.28-.62-.62.28-.62.62-.62h0ZM77.86,14.03c.34,0,.62.28.62.62s-.28.62-.62.62-.62-.28-.62-.62.28-.62.62-.62h0ZM77.86,25.28c.34,0,.62.28.62.62s-.28.62-.62.62-.62-.28-.62-.62.28-.62.62-.62h0ZM77.86,47.77c.34,0,.62.28.62.62s-.28.62-.62.62-.62-.28-.62-.62.28-.62.62-.62h0ZM77.86,59.02c.34,0,.62.28.62.62s-.28.62-.62.62-.62-.28-.62-.62.28-.62.62-.62h0ZM72.73,2.78c.34,0,.62.28.62.62s-.28.62-.62.62-.62-.28-.62-.62.28-.62.62-.62h0ZM72.73,14.03c.34,0,.62.28.62.62s-.28.62-.62.62-.62-.28-.62-.62.28-.62.62-.62h0ZM72.73,25.28c.34,0,.62.28.62.62s-.28.62-.62.62-.62-.28-.62-.62.28-.62.62-.62h0ZM72.73,47.77c.34,0,.62.28.62.62s-.28.62-.62.62-.62-.28-.62-.62.28-.62.62-.62h0ZM72.73,59.02c.34,0,.62.28.62.62s-.28.62-.62.62-.62-.28-.62-.62.28-.62.62-.62h0ZM67.59,2.78c.34,0,.62.28.62.62s-.28.62-.62.62-.62-.28-.62-.62.28-.62.62-.62h0ZM67.59,14.03c.34,0,.62.28.62.62s-.28.62-.62.62-.62-.28-.62-.62.28-.62.62-.62h0ZM67.59,25.28c.34,0,.62.28.62.62s-.28.62-.62.62-.62-.28-.62-.62.28-.62.62-.62h0ZM67.59,47.77c.34,0,.62.28.62.62s-.28.62-.62.62-.62-.28-.62-.62.28-.62.62-.62h0ZM67.59,59.02c.34,0,.62.28.62.62s-.28.62-.62.62-.62-.28-.62-.62.28-.62.62-.62h0ZM62.46,2.78c.34,0,.62.28.62.62s-.28.62-.62.62-.62-.28-.62-.62.28-.62.62-.62h0ZM62.46,14.03c.34,0,.62.28.62.62s-.28.62-.62.62-.62-.28-.62-.62.28-.62.62-.62h0ZM62.46,25.28c.34,0,.62.28.62.62s-.28.62-.62.62-.62-.28-.62-.62.28-.62.62-.62h0ZM62.46,47.77c.34,0,.62.28.62.62s-.28.62-.62.62-.62-.28-.62-.62.28-.62.62-.62h0ZM62.46,59.02c.34,0,.62.28.62.62s-.28.62-.62.62-.62-.28-.62-.62.28-.62.62-.62h0ZM57.33,2.78c.34,0,.62.28.62.62s-.28.62-.62.62-.62-.28-.62-.62.28-.62.62-.62h0ZM57.33,14.03c.34,0,.62.28.62.62s-.28.62-.62.62-.62-.28-.62-.62.28-.62.62-.62h0ZM57.33,25.28c.34,0,.62.28.62.62s-.28.62-.62.62-.62-.28-.62-.62.28-.62.62-.62h0ZM57.33,47.77c.34,0,.62.28.62.62s-.28.62-.62.62-.62-.28-.62-.62.28-.62.62-.62h0ZM57.33,59.02c.34,0,.62.28.62.62s-.28.62-.62.62-.62-.28-.62-.62.28-.62.62-.62h0ZM52.2,2.78c.34,0,.62.28.62.62s-.28.62-.62.62-.62-.28-.62-.62.28-.62.62-.62h0ZM52.2,14.03c.34,0,.62.28.62.62s-.28.62-.62.62-.62-.28-.62-.62.28-.62.62-.62h0ZM52.2,25.28c.34,0,.62.28.62.62s-.28.62-.62.62-.62-.28-.62-.62.28-.62.62-.62h0ZM52.2,47.77c.34,0,.62.28.62.62s-.28.62-.62.62-.62-.28-.62-.62.28-.62.62-.62h0ZM52.2,59.02c.34,0,.62.28.62.62s-.28.62-.62.62-.62-.28-.62-.62.28-.62.62-.62h0ZM47.07,2.78c.34,0,.62.28.62.62s-.28.62-.62.62-.62-.28-.62-.62.28-.62.62-.62h0ZM47.07,14.03c.34,0,.62.28.62.62s-.28.62-.62.62-.62-.28-.62-.62.28-.62.62-.62h0ZM47.07,25.28c.34,0,.62.28.62.62s-.28.62-.62.62-.62-.28-.62-.62.28-.62.62-.62h0ZM47.07,47.77c.34,0,.62.28.62.62s-.28.62-.62.62-.62-.28-.62-.62.28-.62.62-.62h0ZM47.07,59.02c.34,0,.62.28.62.62s-.28.62-.62.62-.62-.28-.62-.62.28-.62.62-.62h0ZM41.94,2.78c.34,0,.62.28.62.62s-.28.62-.62.62-.62-.28-.62-.62.28-.62.62-.62h0ZM41.94,14.03c.34,0,.62.28.62.62s-.28.62-.62.62-.62-.28-.62-.62.28-.62.62-.62h0ZM41.94,25.28c.34,0,.62.28.62.62s-.28.62-.62.62-.62-.28-.62-.62.28-.62.62-.62h0ZM41.94,47.77c.34,0,.62.28.62.62s-.28.62-.62.62-.62-.28-.62-.62.28-.62.62-.62h0ZM41.94,59.02c.34,0,.62.28.62.62s-.28.62-.62.62-.62-.28-.62-.62.28-.62.62-.62h0ZM36.81,2.78c.34,0,.62.28.62.62s-.28.62-.62.62-.62-.28-.62-.62.28-.62.62-.62h0ZM36.81,14.03c.34,0,.62.28.62.62s-.28.62-.62.62-.62-.28-.62-.62.28-.62.62-.62h0ZM36.81,25.28c.34,0,.62.28.62.62s-.28.62-.62.62-.62-.28-.62-.62.28-.62.62-.62h0ZM36.81,47.77c.34,0,.62.28.62.62s-.28.62-.62.62-.62-.28-.62-.62.28-.62.62-.62h0ZM36.81,59.02c.34,0,.62.28.62.62s-.28.62-.62.62-.62-.28-.62-.62.28-.62.62-.62h0ZM31.68,2.78c.34,0,.62.28.62.62s-.28.62-.62.62-.62-.28-.62-.62.28-.62.62-.62h0ZM31.68,14.03c.34,0,.62.28.62.62s-.28.62-.62.62-.62-.28-.62-.62.28-.62.62-.62h0ZM31.68,25.28c.34,0,.62.28.62.62s-.28.62-.62.62-.62-.28-.62-.62.28-.62.62-.62h0ZM31.68,47.77c.34,0,.62.28.62.62s-.28.62-.62.62-.62-.28-.62-.62.28-.62.62-.62h0ZM31.68,59.02c.34,0,.62.28.62.62s-.28.62-.62.62-.62-.28-.62-.62.28-.62.62-.62h0ZM26.55,2.78c.34,0,.62.28.62.62s-.28.62-.62.62-.62-.28-.62-.62.28-.62.62-.62h0ZM26.55,14.03c.34,0,.62.28.62.62s-.28.62-.62.62-.62-.28-.62-.62.28-.62.62-.62h0ZM26.55,25.28c.34,0,.62.28.62.62s-.28.62-.62.62-.62-.28-.62-.62.28-.62.62-.62h0ZM26.55,47.77c.34,0,.62.28.62.62s-.28.62-.62.62-.62-.28-.62-.62.28-.62.62-.62h0ZM26.55,59.02c.34,0,.62.28.62.62s-.28.62-.62.62-.62-.28-.62-.62.28-.62.62-.62h0ZM21.41,2.78c.34,0,.62.28.62.62s-.28.62-.62.62-.62-.28-.62-.62.28-.62.62-.62h0ZM21.41,14.03c.34,0,.62.28.62.62s-.28.62-.62.62-.62-.28-.62-.62.28-.62.62-.62h0ZM21.41,25.28c.34,0,.62.28.62.62s-.28.62-.62.62-.62-.28-.62-.62.28-.62.62-.62h0ZM21.41,47.77c.34,0,.62.28.62.62s-.28.62-.62.62-.62-.28-.62-.62.28-.62.62-.62h0ZM21.41,59.02c.34,0,.62.28.62.62s-.28.62-.62.62-.62-.28-.62-.62.28-.62.62-.62h0ZM16.28,2.78c.34,0,.62.28.62.62s-.28.62-.62.62-.62-.28-.62-.62.28-.62.62-.62h0ZM16.28,14.03c.34,0,.62.28.62.62s-.28.62-.62.62-.62-.28-.62-.62.28-.62.62-.62h0ZM16.28,25.28c.34,0,.62.28.62.62s-.28.62-.62.62-.62-.28-.62-.62.28-.62.62-.62h0ZM16.28,47.77c.34,0,.62.28.62.62s-.28.62-.62.62-.62-.28-.62-.62.28-.62.62-.62h0ZM16.28,59.02c.34,0,.62.28.62.62s-.28.62-.62.62-.62-.28-.62-.62.28-.62.62-.62h0ZM11.15,2.78c.34,0,.62.28.62.62s-.28.62-.62.62-.62-.28-.62-.62.28-.62.62-.62h0ZM11.15,14.03c.34,0,.62.28.62.62s-.28.62-.62.62-.62-.28-.62-.62.28-.62.62-.62h0ZM11.15,25.28c.34,0,.62.28.62.62s-.28.62-.62.62-.62-.28-.62-.62.28-.62.62-.62h0ZM11.15,47.77c.34,0,.62.28.62.62s-.28.62-.62.62-.62-.28-.62-.62.28-.62.62-.62h0ZM11.15,59.02c.34,0,.62.28.62.62s-.28.62-.62.62-.62-.28-.62-.62.28-.62.62-.62h0ZM6.02,2.78c.34,0,.62.28.62.62s-.28.62-.62.62-.62-.28-.62-.62.28-.62.62-.62h0ZM6.02,14.03c.34,0,.62.28.62.62s-.28.62-.62.62-.62-.28-.62-.62.28-.62.62-.62h0ZM6.02,25.28c.34,0,.62.28.62.62s-.28.62-.62.62-.62-.28-.62-.62.28-.62.62-.62h0ZM6.02,47.77c.34,0,.62.28.62.62s-.28.62-.62.62-.62-.28-.62-.62.28-.62.62-.62h0ZM6.02,59.02c.34,0,.62.28.62.62s-.28.62-.62.62-.62-.28-.62-.62.28-.62.62-.62h0ZM116.47,87.14c-.34,0-.62.28-.62.62s.28.62.62.62.62-.28.62-.62-.28-.62-.62-.62h0ZM121.6,87.14c-.34,0-.62.28-.62.62s.28.62.62.62.62-.28.62-.62-.28-.62-.62-.62h0ZM126.73,87.14c-.34,0-.62.28-.62.62s.28.62.62.62.62-.28.62-.62-.28-.62-.62-.62h0ZM131.86,87.14c-.34,0-.62.28-.62.62s.28.62.62.62.62-.28.62-.62-.28-.62-.62-.62h0ZM136.99,87.14c-.34,0-.62.28-.62.62s.28.62.62.62.62-.28.62-.62-.28-.62-.62-.62h0ZM142.12,87.14c-.34,0-.62.28-.62.62s.28.62.62.62.62-.28.62-.62-.28-.62-.62-.62h0ZM152.39,87.14c-.34,0-.62.28-.62.62s.28.62.62.62.62-.28.62-.62-.28-.62-.62-.62h0ZM157.52,87.14c-.34,0-.62.28-.62.62s.28.62.62.62.62-.28.62-.62-.28-.62-.62-.62h0ZM162.65,87.14c.34,0,.62.28.62.62s-.28.62-.62.62-.62-.28-.62-.62.28-.62.62-.62h0ZM167.78,87.14c.34,0,.62.28.62.62s-.28.62-.62.62-.62-.28-.62-.62.28-.62.62-.62h0ZM172.91,87.14c.34,0,.62.28.62.62s-.28.62-.62.62-.62-.28-.62-.62.28-.62.62-.62h0ZM178.04,87.14c.34,0,.62.28.62.62s-.28.62-.62.62-.62-.28-.62-.62.28-.62.62-.62h0ZM183.17,87.14c.34,0,.62.28.62.62s-.28.62-.62.62-.62-.28-.62-.62.28-.62.62-.62h0ZM111.34,98.39c-.34,0-.62.28-.62.62s.28.62.62.62.62-.28.62-.62-.28-.62-.62-.62h0ZM116.47,98.39c-.34,0-.62.28-.62.62s.28.62.62.62.62-.28.62-.62-.28-.62-.62-.62h0ZM121.6,98.39c-.34,0-.62.28-.62.62s.28.62.62.62.62-.28.62-.62-.28-.62-.62-.62h0ZM126.73,98.39c-.34,0-.62.28-.62.62s.28.62.62.62.62-.28.62-.62-.28-.62-.62-.62h0ZM131.86,98.39c-.34,0-.62.28-.62.62s.28.62.62.62.62-.28.62-.62-.28-.62-.62-.62h0ZM136.99,98.39c-.34,0-.62.28-.62.62s.28.62.62.62.62-.28.62-.62-.28-.62-.62-.62h0ZM147.25,98.39c-.34,0-.62.28-.62.62s.28.62.62.62.62-.28.62-.62-.28-.62-.62-.62h0ZM152.39,98.39c-.34,0-.62.28-.62.62s.28.62.62.62.62-.28.62-.62-.28-.62-.62-.62h0ZM157.52,98.39c-.34,0-.62.28-.62.62s.28.62.62.62.62-.28.62-.62-.28-.62-.62-.62h0ZM162.65,98.39c.34,0,.62.28.62.62s-.28.62-.62.62-.62-.28-.62-.62.28-.62.62-.62h0ZM167.78,98.39c.34,0,.62.28.62.62s-.28.62-.62.62-.62-.28-.62-.62.28-.62.62-.62h0ZM172.91,98.39c.34,0,.62.28.62.62s-.28.62-.62.62-.62-.28-.62-.62.28-.62.62-.62h0ZM178.04,98.39c.34,0,.62.28.62.62s-.28.62-.62.62-.62-.28-.62-.62.28-.62.62-.62h0ZM106.21,109.64c-.34,0-.62.28-.62.62s.28.62.62.62.62-.28.62-.62-.28-.62-.62-.62h0ZM111.34,109.64c-.34,0-.62.28-.62.62s.28.62.62.62.62-.28.62-.62-.28-.62-.62-.62h0ZM116.47,109.64c-.34,0-.62.28-.62.62s.28.62.62.62.62-.28.62-.62-.28-.62-.62-.62h0ZM121.6,109.64c-.34,0-.62.28-.62.62s.28.62.62.62.62-.28.62-.62-.28-.62-.62-.62h0ZM126.73,109.64c-.34,0-.62.28-.62.62s.28.62.62.62.62-.28.62-.62-.28-.62-.62-.62h0ZM131.86,109.64c-.34,0-.62.28-.62.62s.28.62.62.62.62-.28.62-.62-.28-.62-.62-.62h0ZM142.12,109.64c-.34,0-.62.28-.62.62s.28.62.62.62.62-.28.62-.62-.28-.62-.62-.62h0ZM147.25,109.64c-.34,0-.62.28-.62.62s.28.62.62.62.62-.28.62-.62-.28-.62-.62-.62h0ZM152.39,109.64c-.34,0-.62.28-.62.62s.28.62.62.62.62-.28.62-.62-.28-.62-.62-.62h0ZM157.52,109.64c-.34,0-.62.28-.62.62s.28.62.62.62.62-.28.62-.62-.28-.62-.62-.62h0ZM162.65,109.64c.34,0,.62.28.62.62s-.28.62-.62.62-.62-.28-.62-.62.28-.62.62-.62h0ZM167.78,109.64c.34,0,.62.28.62.62s-.28.62-.62.62-.62-.28-.62-.62.28-.62.62-.62h0ZM101.08,120.88c-.34,0-.62.28-.62.62s.28.62.62.62.62-.28.62-.62-.28-.62-.62-.62h0ZM106.21,120.88c-.34,0-.62.28-.62.62s.28.62.62.62.62-.28.62-.62-.28-.62-.62-.62h0ZM111.34,120.88c-.34,0-.62.28-.62.62s.28.62.62.62.62-.28.62-.62-.28-.62-.62-.62h0ZM116.47,120.88c-.34,0-.62.28-.62.62s.28.62.62.62.62-.28.62-.62-.28-.62-.62-.62h0ZM121.6,120.88c-.34,0-.62.28-.62.62s.28.62.62.62.62-.28.62-.62-.28-.62-.62-.62h0ZM126.73,120.88c-.34,0-.62.28-.62.62s.28.62.62.62.62-.28.62-.62-.28-.62-.62-.62h0ZM136.99,120.88c-.34,0-.62.28-.62.62s.28.62.62.62.62-.28.62-.62-.28-.62-.62-.62h0ZM142.12,120.88c-.34,0-.62.28-.62.62s.28.62.62.62.62-.28.62-.62-.28-.62-.62-.62h0ZM147.25,120.88c-.34,0-.62.28-.62.62s.28.62.62.62.62-.28.62-.62-.28-.62-.62-.62h0ZM152.39,120.88c-.34,0-.62.28-.62.62s.28.62.62.62.62-.28.62-.62-.28-.62-.62-.62h0ZM157.52,120.88c-.34,0-.62.28-.62.62s.28.62.62.62.62-.28.62-.62-.28-.62-.62-.62h0ZM162.65,120.88c.34,0,.62.28.62.62s-.28.62-.62.62-.62-.28-.62-.62.28-.62.62-.62h0ZM95.94,132.13c-.34,0-.62.28-.62.62s.28.62.62.62.62-.28.62-.62-.28-.62-.62-.62h0ZM101.08,132.13c-.34,0-.62.28-.62.62s.28.62.62.62.62-.28.62-.62-.28-.62-.62-.62h0ZM106.21,132.13c-.34,0-.62.28-.62.62s.28.62.62.62.62-.28.62-.62-.28-.62-.62-.62h0ZM111.34,132.13c-.34,0-.62.28-.62.62s.28.62.62.62.62-.28.62-.62-.28-.62-.62-.62h0ZM116.47,132.13c-.34,0-.62.28-.62.62s.28.62.62.62.62-.28.62-.62-.28-.62-.62-.62h0ZM121.6,132.13c-.34,0-.62.28-.62.62s.28.62.62.62.62-.28.62-.62-.28-.62-.62-.62h0ZM131.86,132.13c-.34,0-.62.28-.62.62s.28.62.62.62.62-.28.62-.62-.28-.62-.62-.62h0ZM136.99,132.13c-.34,0-.62.28-.62.62s.28.62.62.62.62-.28.62-.62-.28-.62-.62-.62h0ZM142.12,132.13c-.34,0-.62.28-.62.62s.28.62.62.62.62-.28.62-.62-.28-.62-.62-.62h0ZM147.25,132.13c-.34,0-.62.28-.62.62s.28.62.62.62.62-.28.62-.62-.28-.62-.62-.62h0ZM152.39,132.13c-.34,0-.62.28-.62.62s.28.62.62.62.62-.28.62-.62-.28-.62-.62-.62h0ZM157.52,132.13c-.34,0-.62.28-.62.62s.28.62.62.62.62-.28.62-.62-.28-.62-.62-.62h0ZM90.81,143.38c-.34,0-.62.28-.62.62s.28.62.62.62.62-.28.62-.62-.28-.62-.62-.62h0ZM95.94,143.38c-.34,0-.62.28-.62.62s.28.62.62.62.62-.28.62-.62-.28-.62-.62-.62h0ZM101.08,143.38c-.34,0-.62.28-.62.62s.28.62.62.62.62-.28.62-.62-.28-.62-.62-.62h0ZM106.21,143.38c-.34,0-.62.28-.62.62s.28.62.62.62.62-.28.62-.62-.28-.62-.62-.62h0ZM111.34,143.38c-.34,0-.62.28-.62.62s.28.62.62.62.62-.28.62-.62-.28-.62-.62-.62h0ZM116.47,143.38c-.34,0-.62.28-.62.62s.28.62.62.62.62-.28.62-.62-.28-.62-.62-.62h0ZM126.73,143.38c-.34,0-.62.28-.62.62s.28.62.62.62.62-.28.62-.62-.28-.62-.62-.62h0ZM131.86,143.38c-.34,0-.62.28-.62.62s.28.62.62.62.62-.28.62-.62-.28-.62-.62-.62h0ZM136.99,143.38c-.34,0-.62.28-.62.62s.28.62.62.62.62-.28.62-.62-.28-.62-.62-.62h0ZM142.12,143.38c-.34,0-.62.28-.62.62s.28.62.62.62.62-.28.62-.62-.28-.62-.62-.62h0ZM147.25,143.38c-.34,0-.62.28-.62.62s.28.62.62.62.62-.28.62-.62-.28-.62-.62-.62h0ZM152.39,143.38c-.34,0-.62.28-.62.62s.28.62.62.62.62-.28.62-.62-.28-.62-.62-.62h0ZM85.68,154.63c-.34,0-.62.28-.62.62s.28.62.62.62.62-.28.62-.62-.28-.62-.62-.62h0ZM90.81,154.63c-.34,0-.62.28-.62.62s.28.62.62.62.62-.28.62-.62-.28-.62-.62-.62h0ZM95.94,154.63c-.34,0-.62.28-.62.62s.28.62.62.62.62-.28.62-.62-.28-.62-.62-.62h0ZM101.08,154.63c-.34,0-.62.28-.62.62s.28.62.62.62.62-.28.62-.62-.28-.62-.62-.62h0ZM106.21,154.63c-.34,0-.62.28-.62.62s.28.62.62.62.62-.28.62-.62-.28-.62-.62-.62h0ZM111.34,154.63c-.34,0-.62.28-.62.62s.28.62.62.62.62-.28.62-.62-.28-.62-.62-.62h0ZM121.6,154.63c-.34,0-.62.28-.62.62s.28.62.62.62.62-.28.62-.62-.28-.62-.62-.62h0ZM126.73,154.63c-.34,0-.62.28-.62.62s.28.62.62.62.62-.28.62-.62-.28-.62-.62-.62h0ZM131.86,154.63c-.34,0-.62.28-.62.62s.28.62.62.62.62-.28.62-.62-.28-.62-.62-.62h0ZM136.99,154.63c-.34,0-.62.28-.62.62s.28.62.62.62.62-.28.62-.62-.28-.62-.62-.62h0ZM142.12,154.63c-.34,0-.62.28-.62.62s.28.62.62.62.62-.28.62-.62-.28-.62-.62-.62h0ZM147.25,154.63c-.34,0-.62.28-.62.62s.28.62.62.62.62-.28.62-.62-.28-.62-.62-.62h0ZM80.55,165.88c.34,0,.62.28.62.62s-.28.62-.62.62-.62-.28-.62-.62.28-.62.62-.62h0ZM85.68,165.88c-.34,0-.62.28-.62.62s.28.62.62.62.62-.28.62-.62-.28-.62-.62-.62h0ZM90.81,165.88c-.34,0-.62.28-.62.62s.28.62.62.62.62-.28.62-.62-.28-.62-.62-.62h0ZM95.94,165.88c-.34,0-.62.28-.62.62s.28.62.62.62.62-.28.62-.62-.28-.62-.62-.62h0ZM101.08,165.88c-.34,0-.62.28-.62.62s.28.62.62.62.62-.28.62-.62-.28-.62-.62-.62h0ZM106.21,165.88c-.34,0-.62.28-.62.62s.28.62.62.62.62-.28.62-.62-.28-.62-.62-.62h0ZM116.47,165.88c-.34,0-.62.28-.62.62s.28.62.62.62.62-.28.62-.62-.28-.62-.62-.62h0ZM121.6,165.88c-.34,0-.62.28-.62.62s.28.62.62.62.62-.28.62-.62-.28-.62-.62-.62h0ZM126.73,165.88c-.34,0-.62.28-.62.62s.28.62.62.62.62-.28.62-.62-.28-.62-.62-.62h0ZM131.86,165.88c-.34,0-.62.28-.62.62s.28.62.62.62.62-.28.62-.62-.28-.62-.62-.62h0ZM136.99,165.88c-.34,0-.62.28-.62.62s.28.62.62.62.62-.28.62-.62-.28-.62-.62-.62h0ZM142.12,165.88c-.34,0-.62.28-.62.62s.28.62.62.62.62-.28.62-.62-.28-.62-.62-.62h0ZM75.42,177.12c.34,0,.62.28.62.62s-.28.62-.62.62-.62-.28-.62-.62.28-.62.62-.62h0ZM80.55,177.12c.34,0,.62.28.62.62s-.28.62-.62.62-.62-.28-.62-.62.28-.62.62-.62h0ZM85.68,177.12c-.34,0-.62.28-.62.62s.28.62.62.62.62-.28.62-.62-.28-.62-.62-.62h0ZM90.81,177.12c-.34,0-.62.28-.62.62s.28.62.62.62.62-.28.62-.62-.28-.62-.62-.62h0ZM95.94,177.12c-.34,0-.62.28-.62.62s.28.62.62.62.62-.28.62-.62-.28-.62-.62-.62h0ZM101.08,177.12c-.34,0-.62.28-.62.62s.28.62.62.62.62-.28.62-.62-.28-.62-.62-.62h0ZM111.34,177.12c-.34,0-.62.28-.62.62s.28.62.62.62.62-.28.62-.62-.28-.62-.62-.62h0ZM116.47,177.12c-.34,0-.62.28-.62.62s.28.62.62.62.62-.28.62-.62-.28-.62-.62-.62h0ZM121.6,177.12c-.34,0-.62.28-.62.62s.28.62.62.62.62-.28.62-.62-.28-.62-.62-.62h0ZM126.73,177.12c-.34,0-.62.28-.62.62s.28.62.62.62.62-.28.62-.62-.28-.62-.62-.62h0ZM131.86,177.12c-.34,0-.62.28-.62.62s.28.62.62.62.62-.28.62-.62-.28-.62-.62-.62h0ZM136.99,177.12c-.34,0-.62.28-.62.62s.28.62.62.62.62-.28.62-.62-.28-.62-.62-.62h0ZM70.29,188.37c.34,0,.62.28.62.62s-.28.62-.62.62-.62-.28-.62-.62.28-.62.62-.62h0ZM75.42,188.37c.34,0,.62.28.62.62s-.28.62-.62.62-.62-.28-.62-.62.28-.62.62-.62h0ZM80.55,188.37c.34,0,.62.28.62.62s-.28.62-.62.62-.62-.28-.62-.62.28-.62.62-.62h0ZM85.68,188.37c-.34,0-.62.28-.62.62s.28.62.62.62.62-.28.62-.62-.28-.62-.62-.62h0ZM90.81,188.37c-.34,0-.62.28-.62.62s.28.62.62.62.62-.28.62-.62-.28-.62-.62-.62h0ZM95.94,188.37c-.34,0-.62.28-.62.62s.28.62.62.62.62-.28.62-.62-.28-.62-.62-.62h0ZM111.34,188.37c-.34,0-.62.28-.62.62s.28.62.62.62.62-.28.62-.62-.28-.62-.62-.62h0ZM116.47,188.37c-.34,0-.62.28-.62.62s.28.62.62.62.62-.28.62-.62-.28-.62-.62-.62h0ZM121.6,188.37c-.34,0-.62.28-.62.62s.28.62.62.62.62-.28.62-.62-.28-.62-.62-.62h0ZM126.73,188.37c-.34,0-.62.28-.62.62s.28.62.62.62.62-.28.62-.62-.28-.62-.62-.62h0ZM131.86,188.37c-.34,0-.62.28-.62.62s.28.62.62.62.62-.28.62-.62-.28-.62-.62-.62h0ZM136.99,188.37c-.34,0-.62.28-.62.62s.28.62.62.62.62-.28.62-.62-.28-.62-.62-.62h0ZM65.16,199.62c.34,0,.62.28.62.62s-.28.62-.62.62-.62-.28-.62-.62.28-.62.62-.62h0ZM70.29,199.62c.34,0,.62.28.62.62s-.28.62-.62.62-.62-.28-.62-.62.28-.62.62-.62h0ZM75.42,199.62c.34,0,.62.28.62.62s-.28.62-.62.62-.62-.28-.62-.62.28-.62.62-.62h0ZM80.55,199.62c.34,0,.62.28.62.62s-.28.62-.62.62-.62-.28-.62-.62.28-.62.62-.62h0ZM85.68,199.62c-.34,0-.62.28-.62.62s.28.62.62.62.62-.28.62-.62-.28-.62-.62-.62h0ZM90.81,199.62c-.34,0-.62.28-.62.62s.28.62.62.62.62-.28.62-.62-.28-.62-.62-.62h0ZM106.21,199.62c-.34,0-.62.28-.62.62s.28.62.62.62.62-.28.62-.62-.28-.62-.62-.62h0ZM111.34,199.62c-.34,0-.62.28-.62.62s.28.62.62.62.62-.28.62-.62-.28-.62-.62-.62h0ZM116.47,199.62c-.34,0-.62.28-.62.62s.28.62.62.62.62-.28.62-.62-.28-.62-.62-.62h0ZM121.6,199.62c-.34,0-.62.28-.62.62s.28.62.62.62.62-.28.62-.62-.28-.62-.62-.62h0ZM126.73,199.62c-.34,0-.62.28-.62.62s.28.62.62.62.62-.28.62-.62-.28-.62-.62-.62h0ZM131.86,199.62c-.34,0-.62.28-.62.62s.28.62.62.62.62-.28.62-.62-.28-.62-.62-.62h0ZM65.16,210.87c.34,0,.62.28.62.62s-.28.62-.62.62-.62-.28-.62-.62.28-.62.62-.62h0ZM70.29,210.87c.34,0,.62.28.62.62s-.28.62-.62.62-.62-.28-.62-.62.28-.62.62-.62h0ZM75.42,210.87c.34,0,.62.28.62.62s-.28.62-.62.62-.62-.28-.62-.62.28-.62.62-.62h0ZM80.55,210.87c.34,0,.62.28.62.62s-.28.62-.62.62-.62-.28-.62-.62.28-.62.62-.62h0ZM85.68,210.87c-.34,0-.62.28-.62.62s.28.62.62.62.62-.28.62-.62-.28-.62-.62-.62h0ZM90.81,210.87c-.34,0-.62.28-.62.62s.28.62.62.62.62-.28.62-.62-.28-.62-.62-.62h0ZM101.08,210.87c-.34,0-.62.28-.62.62s.28.62.62.62.62-.28.62-.62-.28-.62-.62-.62h0ZM106.21,210.87c-.34,0-.62.28-.62.62s.28.62.62.62.62-.28.62-.62-.28-.62-.62-.62h0ZM111.34,210.87c-.34,0-.62.28-.62.62s.28.62.62.62.62-.28.62-.62-.28-.62-.62-.62h0ZM116.47,210.87c-.34,0-.62.28-.62.62s.28.62.62.62.62-.28.62-.62-.28-.62-.62-.62h0ZM121.6,210.87c-.34,0-.62.28-.62.62s.28.62.62.62.62-.28.62-.62-.28-.62-.62-.62h0ZM126.73,210.87c-.34,0-.62.28-.62.62s.28.62.62.62.62-.28.62-.62-.28-.62-.62-.62h0ZM180.48,92.76c.34,0,.62.28.62.62s-.28.62-.62.62-.62-.28-.62-.62.28-.62.62-.62h0ZM175.35,92.76c.34,0,.62.28.62.62s-.28.62-.62.62-.62-.28-.62-.62.28-.62.62-.62h0ZM170.21,92.76c.34,0,.62.28.62.62s-.28.62-.62.62-.62-.28-.62-.62.28-.62.62-.62h0ZM170.21,104.01c.34,0,.62.28.62.62s-.28.62-.62.62-.62-.28-.62-.62.28-.62.62-.62h0ZM165.08,92.76c.34,0,.62.28.62.62s-.28.62-.62.62-.62-.28-.62-.62.28-.62.62-.62h0ZM165.08,104.01c.34,0,.62.28.62.62s-.28.62-.62.62-.62-.28-.62-.62.28-.62.62-.62h0ZM165.08,115.26c.34,0,.62.28.62.62s-.28.62-.62.62-.62-.28-.62-.62.28-.62.62-.62h0ZM159.95,92.76c.34,0,.62.28.62.62s-.28.62-.62.62-.62-.28-.62-.62.28-.62.62-.62h0ZM159.95,104.01c.34,0,.62.28.62.62s-.28.62-.62.62-.62-.28-.62-.62.28-.62.62-.62h0ZM159.95,115.26c.34,0,.62.28.62.62s-.28.62-.62.62-.62-.28-.62-.62.28-.62.62-.62h0ZM159.95,126.51c.34,0,.62.28.62.62s-.28.62-.62.62-.62-.28-.62-.62.28-.62.62-.62h0ZM154.82,92.76c-.34,0-.62.28-.62.62s.28.62.62.62.62-.28.62-.62-.28-.62-.62-.62h0ZM154.82,104.01c-.34,0-.62.28-.62.62s.28.62.62.62.62-.28.62-.62-.28-.62-.62-.62h0ZM154.82,115.26c-.34,0-.62.28-.62.62s.28.62.62.62.62-.28.62-.62-.28-.62-.62-.62h0ZM154.82,126.51c-.34,0-.62.28-.62.62s.28.62.62.62.62-.28.62-.62-.28-.62-.62-.62h0ZM154.82,137.76c-.34,0-.62.28-.62.62s.28.62.62.62.62-.28.62-.62-.28-.62-.62-.62h0ZM149.69,92.76c-.34,0-.62.28-.62.62s.28.62.62.62.62-.28.62-.62-.28-.62-.62-.62h0ZM149.69,104.01c-.34,0-.62.28-.62.62s.28.62.62.62.62-.28.62-.62-.28-.62-.62-.62h0ZM149.69,115.26c-.34,0-.62.28-.62.62s.28.62.62.62.62-.28.62-.62-.28-.62-.62-.62h0ZM149.69,126.51c-.34,0-.62.28-.62.62s.28.62.62.62.62-.28.62-.62-.28-.62-.62-.62h0ZM149.69,137.76c-.34,0-.62.28-.62.62s.28.62.62.62.62-.28.62-.62-.28-.62-.62-.62h0ZM149.69,149c-.34,0-.62.28-.62.62s.28.62.62.62.62-.28.62-.62-.28-.62-.62-.62h0ZM144.56,104.01c-.34,0-.62.28-.62.62s.28.62.62.62.62-.28.62-.62-.28-.62-.62-.62h0ZM144.56,115.26c-.34,0-.62.28-.62.62s.28.62.62.62.62-.28.62-.62-.28-.62-.62-.62h0ZM144.56,126.51c-.34,0-.62.28-.62.62s.28.62.62.62.62-.28.62-.62-.28-.62-.62-.62h0ZM144.56,137.76c-.34,0-.62.28-.62.62s.28.62.62.62.62-.28.62-.62-.28-.62-.62-.62h0ZM144.56,149c-.34,0-.62.28-.62.62s.28.62.62.62.62-.28.62-.62-.28-.62-.62-.62h0ZM144.56,160.25c-.34,0-.62.28-.62.62s.28.62.62.62.62-.28.62-.62-.28-.62-.62-.62h0ZM139.43,92.76c-.34,0-.62.28-.62.62s.28.62.62.62.62-.28.62-.62-.28-.62-.62-.62h0ZM139.43,115.26c-.34,0-.62.28-.62.62s.28.62.62.62.62-.28.62-.62-.28-.62-.62-.62h0ZM139.43,126.51c-.34,0-.62.28-.62.62s.28.62.62.62.62-.28.62-.62-.28-.62-.62-.62h0ZM139.43,137.76c-.34,0-.62.28-.62.62s.28.62.62.62.62-.28.62-.62-.28-.62-.62-.62h0ZM139.43,149c-.34,0-.62.28-.62.62s.28.62.62.62.62-.28.62-.62-.28-.62-.62-.62h0ZM139.43,160.25c-.34,0-.62.28-.62.62s.28.62.62.62.62-.28.62-.62-.28-.62-.62-.62h0ZM139.43,171.5c-.34,0-.62.28-.62.62s.28.62.62.62.62-.28.62-.62-.28-.62-.62-.62h0ZM134.3,92.76c-.34,0-.62.28-.62.62s.28.62.62.62.62-.28.62-.62-.28-.62-.62-.62h0ZM134.3,104.01c-.34,0-.62.28-.62.62s.28.62.62.62.62-.28.62-.62-.28-.62-.62-.62h0ZM134.3,126.51c-.34,0-.62.28-.62.62s.28.62.62.62.62-.28.62-.62-.28-.62-.62-.62h0ZM134.3,137.76c-.34,0-.62.28-.62.62s.28.62.62.62.62-.28.62-.62-.28-.62-.62-.62h0ZM134.3,149c-.34,0-.62.28-.62.62s.28.62.62.62.62-.28.62-.62-.28-.62-.62-.62h0ZM134.3,160.25c-.34,0-.62.28-.62.62s.28.62.62.62.62-.28.62-.62-.28-.62-.62-.62h0ZM134.3,171.5c-.34,0-.62.28-.62.62s.28.62.62.62.62-.28.62-.62-.28-.62-.62-.62h0ZM134.3,182.75c-.34,0-.62.28-.62.62s.28.62.62.62.62-.28.62-.62-.28-.62-.62-.62h0ZM134.3,194c-.34,0-.62.28-.62.62s.28.62.62.62.62-.28.62-.62-.28-.62-.62-.62h0ZM129.17,92.76c-.34,0-.62.28-.62.62s.28.62.62.62.62-.28.62-.62-.28-.62-.62-.62h0ZM129.17,104.01c-.34,0-.62.28-.62.62s.28.62.62.62.62-.28.62-.62-.28-.62-.62-.62h0ZM129.17,115.26c-.34,0-.62.28-.62.62s.28.62.62.62.62-.28.62-.62-.28-.62-.62-.62h0ZM129.17,137.76c-.34,0-.62.28-.62.62s.28.62.62.62.62-.28.62-.62-.28-.62-.62-.62h0ZM129.17,149c-.34,0-.62.28-.62.62s.28.62.62.62.62-.28.62-.62-.28-.62-.62-.62h0ZM129.17,160.25c-.34,0-.62.28-.62.62s.28.62.62.62.62-.28.62-.62-.28-.62-.62-.62h0ZM129.17,171.5c-.34,0-.62.28-.62.62s.28.62.62.62.62-.28.62-.62-.28-.62-.62-.62h0ZM129.17,182.75c-.34,0-.62.28-.62.62s.28.62.62.62.62-.28.62-.62-.28-.62-.62-.62h0ZM129.17,194c-.34,0-.62.28-.62.62s.28.62.62.62.62-.28.62-.62-.28-.62-.62-.62h0ZM129.17,205.24c-.34,0-.62.28-.62.62s.28.62.62.62.62-.28.62-.62-.28-.62-.62-.62h0ZM124.04,92.76c-.34,0-.62.28-.62.62s.28.62.62.62.62-.28.62-.62-.28-.62-.62-.62h0ZM124.04,104.01c-.34,0-.62.28-.62.62s.28.62.62.62.62-.28.62-.62-.28-.62-.62-.62h0ZM124.04,115.26c-.34,0-.62.28-.62.62s.28.62.62.62.62-.28.62-.62-.28-.62-.62-.62h0ZM124.04,126.51c-.34,0-.62.28-.62.62s.28.62.62.62.62-.28.62-.62-.28-.62-.62-.62h0ZM124.04,149c-.34,0-.62.28-.62.62s.28.62.62.62.62-.28.62-.62-.28-.62-.62-.62h0ZM124.04,160.25c-.34,0-.62.28-.62.62s.28.62.62.62.62-.28.62-.62-.28-.62-.62-.62h0ZM124.04,171.5c-.34,0-.62.28-.62.62s.28.62.62.62.62-.28.62-.62-.28-.62-.62-.62h0ZM124.04,182.75c-.34,0-.62.28-.62.62s.28.62.62.62.62-.28.62-.62-.28-.62-.62-.62h0ZM124.04,194c-.34,0-.62.28-.62.62s.28.62.62.62.62-.28.62-.62-.28-.62-.62-.62h0ZM124.04,205.24c-.34,0-.62.28-.62.62s.28.62.62.62.62-.28.62-.62-.28-.62-.62-.62h0ZM118.9,92.76c-.34,0-.62.28-.62.62s.28.62.62.62.62-.28.62-.62-.28-.62-.62-.62h0ZM118.9,104.01c-.34,0-.62.28-.62.62s.28.62.62.62.62-.28.62-.62-.28-.62-.62-.62h0ZM118.9,115.26c-.34,0-.62.28-.62.62s.28.62.62.62.62-.28.62-.62-.28-.62-.62-.62h0ZM118.9,126.51c-.34,0-.62.28-.62.62s.28.62.62.62.62-.28.62-.62-.28-.62-.62-.62h0ZM118.9,137.76c-.34,0-.62.28-.62.62s.28.62.62.62.62-.28.62-.62-.28-.62-.62-.62h0ZM118.9,160.25c-.34,0-.62.28-.62.62s.28.62.62.62.62-.28.62-.62-.28-.62-.62-.62h0ZM118.9,171.5c-.34,0-.62.28-.62.62s.28.62.62.62.62-.28.62-.62-.28-.62-.62-.62h0ZM118.9,182.75c-.34,0-.62.28-.62.62s.28.62.62.62.62-.28.62-.62-.28-.62-.62-.62h0ZM118.9,194c-.34,0-.62.28-.62.62s.28.62.62.62.62-.28.62-.62-.28-.62-.62-.62h0ZM118.9,205.24c-.34,0-.62.28-.62.62s.28.62.62.62.62-.28.62-.62-.28-.62-.62-.62h0ZM113.77,92.76c-.34,0-.62.28-.62.62s.28.62.62.62.62-.28.62-.62-.28-.62-.62-.62h0ZM113.77,104.01c-.34,0-.62.28-.62.62s.28.62.62.62.62-.28.62-.62-.28-.62-.62-.62h0ZM113.77,115.26c-.34,0-.62.28-.62.62s.28.62.62.62.62-.28.62-.62-.28-.62-.62-.62h0ZM113.77,126.51c-.34,0-.62.28-.62.62s.28.62.62.62.62-.28.62-.62-.28-.62-.62-.62h0ZM113.77,137.76c-.34,0-.62.28-.62.62s.28.62.62.62.62-.28.62-.62-.28-.62-.62-.62h0ZM113.77,149c-.34,0-.62.28-.62.62s.28.62.62.62.62-.28.62-.62-.28-.62-.62-.62h0ZM113.77,171.5c-.34,0-.62.28-.62.62s.28.62.62.62.62-.28.62-.62-.28-.62-.62-.62h0ZM113.77,182.75c-.34,0-.62.28-.62.62s.28.62.62.62.62-.28.62-.62-.28-.62-.62-.62h0ZM113.77,194c-.34,0-.62.28-.62.62s.28.62.62.62.62-.28.62-.62-.28-.62-.62-.62h0ZM113.77,205.24c-.34,0-.62.28-.62.62s.28.62.62.62.62-.28.62-.62-.28-.62-.62-.62h0ZM108.64,104.01c-.34,0-.62.28-.62.62s.28.62.62.62.62-.28.62-.62-.28-.62-.62-.62h0ZM108.64,115.26c-.34,0-.62.28-.62.62s.28.62.62.62.62-.28.62-.62-.28-.62-.62-.62h0ZM108.64,126.51c-.34,0-.62.28-.62.62s.28.62.62.62.62-.28.62-.62-.28-.62-.62-.62h0ZM108.64,137.76c-.34,0-.62.28-.62.62s.28.62.62.62.62-.28.62-.62-.28-.62-.62-.62h0ZM108.64,149c-.34,0-.62.28-.62.62s.28.62.62.62.62-.28.62-.62-.28-.62-.62-.62h0ZM108.64,160.25c-.34,0-.62.28-.62.62s.28.62.62.62.62-.28.62-.62-.28-.62-.62-.62h0ZM108.64,182.75c-.34,0-.62.28-.62.62s.28.62.62.62.62-.28.62-.62-.28-.62-.62-.62h0ZM108.64,194c-.34,0-.62.28-.62.62s.28.62.62.62.62-.28.62-.62-.28-.62-.62-.62h0ZM108.64,205.24c-.34,0-.62.28-.62.62s.28.62.62.62.62-.28.62-.62-.28-.62-.62-.62h0ZM103.51,115.26c-.34,0-.62.28-.62.62s.28.62.62.62.62-.28.62-.62-.28-.62-.62-.62h0ZM103.51,126.51c-.34,0-.62.28-.62.62s.28.62.62.62.62-.28.62-.62-.28-.62-.62-.62h0ZM103.51,137.76c-.34,0-.62.28-.62.62s.28.62.62.62.62-.28.62-.62-.28-.62-.62-.62h0ZM103.51,149c-.34,0-.62.28-.62.62s.28.62.62.62.62-.28.62-.62-.28-.62-.62-.62h0ZM103.51,160.25c-.34,0-.62.28-.62.62s.28.62.62.62.62-.28.62-.62-.28-.62-.62-.62h0ZM103.51,171.5c-.34,0-.62.28-.62.62s.28.62.62.62.62-.28.62-.62-.28-.62-.62-.62h0ZM103.51,205.24c-.34,0-.62.28-.62.62s.28.62.62.62.62-.28.62-.62-.28-.62-.62-.62h0ZM98.38,126.51c-.34,0-.62.28-.62.62s.28.62.62.62.62-.28.62-.62-.28-.62-.62-.62h0ZM98.38,137.76c-.34,0-.62.28-.62.62s.28.62.62.62.62-.28.62-.62-.28-.62-.62-.62h0ZM98.38,149c-.34,0-.62.28-.62.62s.28.62.62.62.62-.28.62-.62-.28-.62-.62-.62h0ZM98.38,160.25c-.34,0-.62.28-.62.62s.28.62.62.62.62-.28.62-.62-.28-.62-.62-.62h0ZM98.38,171.5c-.34,0-.62.28-.62.62s.28.62.62.62.62-.28.62-.62-.28-.62-.62-.62h0ZM98.38,182.75c-.34,0-.62.28-.62.62s.28.62.62.62.62-.28.62-.62-.28-.62-.62-.62h0ZM93.25,137.76c-.34,0-.62.28-.62.62s.28.62.62.62.62-.28.62-.62-.28-.62-.62-.62h0ZM93.25,149c-.34,0-.62.28-.62.62s.28.62.62.62.62-.28.62-.62-.28-.62-.62-.62h0ZM93.25,160.25c-.34,0-.62.28-.62.62s.28.62.62.62.62-.28.62-.62-.28-.62-.62-.62h0ZM93.25,171.5c-.34,0-.62.28-.62.62s.28.62.62.62.62-.28.62-.62-.28-.62-.62-.62h0ZM93.25,182.75c-.34,0-.62.28-.62.62s.28.62.62.62.62-.28.62-.62-.28-.62-.62-.62h0ZM93.25,194c-.34,0-.62.28-.62.62s.28.62.62.62.62-.28.62-.62-.28-.62-.62-.62h0ZM88.12,149c-.34,0-.62.28-.62.62s.28.62.62.62.62-.28.62-.62-.28-.62-.62-.62h0ZM88.12,160.25c-.34,0-.62.28-.62.62s.28.62.62.62.62-.28.62-.62-.28-.62-.62-.62h0ZM88.12,171.5c-.34,0-.62.28-.62.62s.28.62.62.62.62-.28.62-.62-.28-.62-.62-.62h0ZM88.12,182.75c-.34,0-.62.28-.62.62s.28.62.62.62.62-.28.62-.62-.28-.62-.62-.62h0ZM88.12,194c-.34,0-.62.28-.62.62s.28.62.62.62.62-.28.62-.62-.28-.62-.62-.62h0ZM88.12,205.24c-.34,0-.62.28-.62.62s.28.62.62.62.62-.28.62-.62-.28-.62-.62-.62h0ZM82.99,160.25c-.34,0-.62.28-.62.62s.28.62.62.62.62-.28.62-.62-.28-.62-.62-.62h0ZM82.99,171.5c-.34,0-.62.28-.62.62s.28.62.62.62.62-.28.62-.62-.28-.62-.62-.62h0ZM82.99,182.75c-.34,0-.62.28-.62.62s.28.62.62.62.62-.28.62-.62-.28-.62-.62-.62h0ZM82.99,194c-.34,0-.62.28-.62.62s.28.62.62.62.62-.28.62-.62-.28-.62-.62-.62h0ZM82.99,205.24c-.34,0-.62.28-.62.62s.28.62.62.62.62-.28.62-.62-.28-.62-.62-.62h0ZM77.86,171.5c.34,0,.62.28.62.62s-.28.62-.62.62-.62-.28-.62-.62.28-.62.62-.62h0ZM77.86,182.75c.34,0,.62.28.62.62s-.28.62-.62.62-.62-.28-.62-.62.28-.62.62-.62h0ZM77.86,194c.34,0,.62.28.62.62s-.28.62-.62.62-.62-.28-.62-.62.28-.62.62-.62h0ZM77.86,205.24c.34,0,.62.28.62.62s-.28.62-.62.62-.62-.28-.62-.62.28-.62.62-.62h0ZM72.73,182.75c.34,0,.62.28.62.62s-.28.62-.62.62-.62-.28-.62-.62.28-.62.62-.62h0ZM72.73,194c.34,0,.62.28.62.62s-.28.62-.62.62-.62-.28-.62-.62.28-.62.62-.62h0ZM72.73,205.24c.34,0,.62.28.62.62s-.28.62-.62.62-.62-.28-.62-.62.28-.62.62-.62h0ZM67.59,194c.34,0,.62.28.62.62s-.28.62-.62.62-.62-.28-.62-.62.28-.62.62-.62h0ZM67.59,205.24c.34,0,.62.28.62.62s-.28.62-.62.62-.62-.28-.62-.62.28-.62.62-.62h0ZM65.16,222.12c.34,0,.62.28.62.62s-.28.62-.62.62-.62-.28-.62-.62.28-.62.62-.62h0ZM70.29,222.12c.34,0,.62.28.62.62s-.28.62-.62.62-.62-.28-.62-.62.28-.62.62-.62h0ZM75.42,222.12c.34,0,.62.28.62.62s-.28.62-.62.62-.62-.28-.62-.62.28-.62.62-.62h0ZM80.55,222.12c.34,0,.62.28.62.62s-.28.62-.62.62-.62-.28-.62-.62.28-.62.62-.62h0ZM85.68,222.12c-.34,0-.62.28-.62.62s.28.62.62.62.62-.28.62-.62-.28-.62-.62-.62h0ZM101.08,222.12c-.34,0-.62.28-.62.62s.28.62.62.62.62-.28.62-.62-.28-.62-.62-.62h0ZM106.21,222.12c-.34,0-.62.28-.62.62s.28.62.62.62.62-.28.62-.62-.28-.62-.62-.62h0ZM111.34,222.12c-.34,0-.62.28-.62.62s.28.62.62.62.62-.28.62-.62-.28-.62-.62-.62h0ZM116.47,222.12c-.34,0-.62.28-.62.62s.28.62.62.62.62-.28.62-.62-.28-.62-.62-.62h0ZM121.6,222.12c-.34,0-.62.28-.62.62s.28.62.62.62.62-.28.62-.62-.28-.62-.62-.62h0ZM126.73,222.12c-.34,0-.62.28-.62.62s.28.62.62.62.62-.28.62-.62-.28-.62-.62-.62h0ZM60.03,233.36c.34,0,.62.28.62.62s-.28.62-.62.62-.62-.28-.62-.62.28-.62.62-.62h0ZM65.16,233.36c.34,0,.62.28.62.62s-.28.62-.62.62-.62-.28-.62-.62.28-.62.62-.62h0ZM70.29,233.36c.34,0,.62.28.62.62s-.28.62-.62.62-.62-.28-.62-.62.28-.62.62-.62h0ZM75.42,233.36c.34,0,.62.28.62.62s-.28.62-.62.62-.62-.28-.62-.62.28-.62.62-.62h0ZM80.55,233.36c.34,0,.62.28.62.62s-.28.62-.62.62-.62-.28-.62-.62.28-.62.62-.62h0ZM85.68,233.36c-.34,0-.62.28-.62.62s.28.62.62.62.62-.28.62-.62-.28-.62-.62-.62h0ZM95.94,233.36c-.34,0-.62.28-.62.62s.28.62.62.62.62-.28.62-.62-.28-.62-.62-.62h0ZM101.08,233.36c-.34,0-.62.28-.62.62s.28.62.62.62.62-.28.62-.62-.28-.62-.62-.62h0ZM106.21,233.36c-.34,0-.62.28-.62.62s.28.62.62.62.62-.28.62-.62-.28-.62-.62-.62h0ZM111.34,233.36c-.34,0-.62.28-.62.62s.28.62.62.62.62-.28.62-.62-.28-.62-.62-.62h0ZM116.47,233.36c-.34,0-.62.28-.62.62s.28.62.62.62.62-.28.62-.62-.28-.62-.62-.62h0ZM121.6,233.36c-.34,0-.62.28-.62.62s.28.62.62.62.62-.28.62-.62-.28-.62-.62-.62h0ZM126.73,233.36c-.34,0-.62.28-.62.62s.28.62.62.62.62-.28.62-.62-.28-.62-.62-.62h0ZM60.03,244.61c.34,0,.62.28.62.62s-.28.62-.62.62-.62-.28-.62-.62.28-.62.62-.62h0ZM65.16,244.61c.34,0,.62.28.62.62s-.28.62-.62.62-.62-.28-.62-.62.28-.62.62-.62h0ZM70.29,244.61c.34,0,.62.28.62.62s-.28.62-.62.62-.62-.28-.62-.62.28-.62.62-.62h0ZM75.42,244.61c.34,0,.62.28.62.62s-.28.62-.62.62-.62-.28-.62-.62.28-.62.62-.62h0ZM80.55,244.61c.34,0,.62.28.62.62s-.28.62-.62.62-.62-.28-.62-.62.28-.62.62-.62h0ZM95.94,244.61c-.34,0-.62.28-.62.62s.28.62.62.62.62-.28.62-.62-.28-.62-.62-.62h0ZM101.08,244.61c-.34,0-.62.28-.62.62s.28.62.62.62.62-.28.62-.62-.28-.62-.62-.62h0ZM106.21,244.61c-.34,0-.62.28-.62.62s.28.62.62.62.62-.28.62-.62-.28-.62-.62-.62h0ZM111.34,244.61c-.34,0-.62.28-.62.62s.28.62.62.62.62-.28.62-.62-.28-.62-.62-.62h0ZM116.47,244.61c-.34,0-.62.28-.62.62s.28.62.62.62.62-.28.62-.62-.28-.62-.62-.62h0ZM121.6,244.61c-.34,0-.62.28-.62.62s.28.62.62.62.62-.28.62-.62-.28-.62-.62-.62h0ZM60.03,255.86c.34,0,.62.28.62.62s-.28.62-.62.62-.62-.28-.62-.62.28-.62.62-.62h0ZM65.16,255.86c.34,0,.62.28.62.62s-.28.62-.62.62-.62-.28-.62-.62.28-.62.62-.62h0ZM70.29,255.86c.34,0,.62.28.62.62s-.28.62-.62.62-.62-.28-.62-.62.28-.62.62-.62h0ZM75.42,255.86c.34,0,.62.28.62.62s-.28.62-.62.62-.62-.28-.62-.62.28-.62.62-.62h0ZM80.55,255.86c.34,0,.62.28.62.62s-.28.62-.62.62-.62-.28-.62-.62.28-.62.62-.62h0ZM95.94,255.86c-.34,0-.62.28-.62.62s.28.62.62.62.62-.28.62-.62-.28-.62-.62-.62h0ZM101.08,255.86c-.34,0-.62.28-.62.62s.28.62.62.62.62-.28.62-.62-.28-.62-.62-.62h0ZM106.21,255.86c-.34,0-.62.28-.62.62s.28.62.62.62.62-.28.62-.62-.28-.62-.62-.62h0ZM111.34,255.86c-.34,0-.62.28-.62.62s.28.62.62.62.62-.28.62-.62-.28-.62-.62-.62h0ZM116.47,255.86c-.34,0-.62.28-.62.62s.28.62.62.62.62-.28.62-.62-.28-.62-.62-.62h0ZM121.6,255.86c-.34,0-.62.28-.62.62s.28.62.62.62.62-.28.62-.62-.28-.62-.62-.62h0ZM54.9,267.11c.34,0,.62.28.62.62s-.28.62-.62.62-.62-.28-.62-.62.28-.62.62-.62h0ZM60.03,267.11c.34,0,.62.28.62.62s-.28.62-.62.62-.62-.28-.62-.62.28-.62.62-.62h0ZM65.16,267.11c.34,0,.62.28.62.62s-.28.62-.62.62-.62-.28-.62-.62.28-.62.62-.62h0ZM70.29,267.11c.34,0,.62.28.62.62s-.28.62-.62.62-.62-.28-.62-.62.28-.62.62-.62h0ZM75.42,267.11c.34,0,.62.28.62.62s-.28.62-.62.62-.62-.28-.62-.62.28-.62.62-.62h0ZM80.55,267.11c.34,0,.62.28.62.62s-.28.62-.62.62-.62-.28-.62-.62.28-.62.62-.62h0ZM95.94,267.11c-.34,0-.62.28-.62.62s.28.62.62.62.62-.28.62-.62-.28-.62-.62-.62h0ZM101.08,267.11c-.34,0-.62.28-.62.62s.28.62.62.62.62-.28.62-.62-.28-.62-.62-.62h0ZM106.21,267.11c-.34,0-.62.28-.62.62s.28.62.62.62.62-.28.62-.62-.28-.62-.62-.62h0ZM111.34,267.11c-.34,0-.62.28-.62.62s.28.62.62.62.62-.28.62-.62-.28-.62-.62-.62h0ZM116.47,267.11c-.34,0-.62.28-.62.62s.28.62.62.62.62-.28.62-.62-.28-.62-.62-.62h0ZM121.6,267.11c-.34,0-.62.28-.62.62s.28.62.62.62.62-.28.62-.62-.28-.62-.62-.62h0ZM54.9,278.36c.34,0,.62.28.62.62s-.28.62-.62.62-.62-.28-.62-.62.28-.62.62-.62h0ZM60.03,278.36c.34,0,.62.28.62.62s-.28.62-.62.62-.62-.28-.62-.62.28-.62.62-.62h0ZM65.16,278.36c.34,0,.62.28.62.62s-.28.62-.62.62-.62-.28-.62-.62.28-.62.62-.62h0ZM70.29,278.36c.34,0,.62.28.62.62s-.28.62-.62.62-.62-.28-.62-.62.28-.62.62-.62h0ZM75.42,278.36c.34,0,.62.28.62.62s-.28.62-.62.62-.62-.28-.62-.62.28-.62.62-.62h0ZM80.55,278.36c.34,0,.62.28.62.62s-.28.62-.62.62-.62-.28-.62-.62.28-.62.62-.62h0ZM95.94,278.36c-.34,0-.62.28-.62.62s.28.62.62.62.62-.28.62-.62-.28-.62-.62-.62h0ZM101.08,278.36c-.34,0-.62.28-.62.62s.28.62.62.62.62-.28.62-.62-.28-.62-.62-.62h0ZM106.21,278.36c-.34,0-.62.28-.62.62s.28.62.62.62.62-.28.62-.62-.28-.62-.62-.62h0ZM111.34,278.36c-.34,0-.62.28-.62.62s.28.62.62.62.62-.28.62-.62-.28-.62-.62-.62h0ZM116.47,278.36c-.34,0-.62.28-.62.62s.28.62.62.62.62-.28.62-.62-.28-.62-.62-.62h0ZM54.9,289.6c.34,0,.62.28.62.62s-.28.62-.62.62-.62-.28-.62-.62.28-.62.62-.62h0ZM60.03,289.6c.34,0,.62.28.62.62s-.28.62-.62.62-.62-.28-.62-.62.28-.62.62-.62h0ZM65.16,289.6c.34,0,.62.28.62.62s-.28.62-.62.62-.62-.28-.62-.62.28-.62.62-.62h0ZM70.29,289.6c.34,0,.62.28.62.62s-.28.62-.62.62-.62-.28-.62-.62.28-.62.62-.62h0ZM75.42,289.6c.34,0,.62.28.62.62s-.28.62-.62.62-.62-.28-.62-.62.28-.62.62-.62h0ZM80.55,289.6c.34,0,.62.28.62.62s-.28.62-.62.62-.62-.28-.62-.62.28-.62.62-.62h0ZM95.94,289.6c-.34,0-.62.28-.62.62s.28.62.62.62.62-.28.62-.62-.28-.62-.62-.62h0ZM101.08,289.6c-.34,0-.62.28-.62.62s.28.62.62.62.62-.28.62-.62-.28-.62-.62-.62h0ZM106.21,289.6c-.34,0-.62.28-.62.62s.28.62.62.62.62-.28.62-.62-.28-.62-.62-.62h0ZM111.34,289.6c-.34,0-.62.28-.62.62s.28.62.62.62.62-.28.62-.62-.28-.62-.62-.62h0ZM116.47,289.6c-.34,0-.62.28-.62.62s.28.62.62.62.62-.28.62-.62-.28-.62-.62-.62h0ZM54.9,300.85c.34,0,.62.28.62.62s-.28.62-.62.62-.62-.28-.62-.62.28-.62.62-.62h0ZM60.03,300.85c.34,0,.62.28.62.62s-.28.62-.62.62-.62-.28-.62-.62.28-.62.62-.62h0ZM65.16,300.85c.34,0,.62.28.62.62s-.28.62-.62.62-.62-.28-.62-.62.28-.62.62-.62h0ZM70.29,300.85c.34,0,.62.28.62.62s-.28.62-.62.62-.62-.28-.62-.62.28-.62.62-.62h0ZM75.42,300.85c.34,0,.62.28.62.62s-.28.62-.62.62-.62-.28-.62-.62.28-.62.62-.62h0ZM80.55,300.85c.34,0,.62.28.62.62s-.28.62-.62.62-.62-.28-.62-.62.28-.62.62-.62h0ZM95.94,300.85c-.34,0-.62.28-.62.62s.28.62.62.62.62-.28.62-.62-.28-.62-.62-.62h0ZM101.08,300.85c-.34,0-.62.28-.62.62s.28.62.62.62.62-.28.62-.62-.28-.62-.62-.62h0ZM106.21,300.85c-.34,0-.62.28-.62.62s.28.62.62.62.62-.28.62-.62-.28-.62-.62-.62h0ZM111.34,300.85c-.34,0-.62.28-.62.62s.28.62.62.62.62-.28.62-.62-.28-.62-.62-.62h0ZM116.47,300.85c-.34,0-.62.28-.62.62s.28.62.62.62.62-.28.62-.62-.28-.62-.62-.62h0ZM54.9,312.1c.34,0,.62.28.62.62s-.28.62-.62.62-.62-.28-.62-.62.28-.62.62-.62h0ZM60.03,312.1c.34,0,.62.28.62.62s-.28.62-.62.62-.62-.28-.62-.62.28-.62.62-.62h0ZM65.16,312.1c.34,0,.62.28.62.62s-.28.62-.62.62-.62-.28-.62-.62.28-.62.62-.62h0ZM70.29,312.1c.34,0,.62.28.62.62s-.28.62-.62.62-.62-.28-.62-.62.28-.62.62-.62h0ZM75.42,312.1c.34,0,.62.28.62.62s-.28.62-.62.62-.62-.28-.62-.62.28-.62.62-.62h0ZM80.55,312.1c.34,0,.62.28.62.62s-.28.62-.62.62-.62-.28-.62-.62.28-.62.62-.62h0ZM85.68,312.1c.34,0,.62.28.62.62s-.28.62-.62.62-.62-.28-.62-.62.28-.62.62-.62h0ZM90.81,312.1c.34,0,.62.28.62.62s-.28.62-.62.62-.62-.28-.62-.62.28-.62.62-.62h0ZM95.94,312.1c.34,0,.62.28.62.62s-.28.62-.62.62-.62-.28-.62-.62.28-.62.62-.62h0ZM101.08,312.1c.34,0,.62.28.62.62s-.28.62-.62.62-.62-.28-.62-.62.28-.62.62-.62h0ZM106.21,312.1c.34,0,.62.28.62.62s-.28.62-.62.62-.62-.28-.62-.62.28-.62.62-.62h0ZM111.34,312.1c.34,0,.62.28.62.62s-.28.62-.62.62-.62-.28-.62-.62.28-.62.62-.62h0ZM116.47,312.1c.34,0,.62.28.62.62s-.28.62-.62.62-.62-.28-.62-.62.28-.62.62-.62h0ZM54.9,323.35c.34,0,.62.28.62.62s-.28.62-.62.62-.62-.28-.62-.62.28-.62.62-.62h0ZM60.03,323.35c.34,0,.62.28.62.62s-.28.62-.62.62-.62-.28-.62-.62.28-.62.62-.62h0ZM65.16,323.35c.34,0,.62.28.62.62s-.28.62-.62.62-.62-.28-.62-.62.28-.62.62-.62h0ZM70.29,323.35c.34,0,.62.28.62.62s-.28.62-.62.62-.62-.28-.62-.62.28-.62.62-.62h0ZM106.21,323.35c.34,0,.62.28.62.62s-.28.62-.62.62-.62-.28-.62-.62.28-.62.62-.62h0ZM111.34,323.35c.34,0,.62.28.62.62s-.28.62-.62.62-.62-.28-.62-.62.28-.62.62-.62h0ZM116.47,323.35c.34,0,.62.28.62.62s-.28.62-.62.62-.62-.28-.62-.62.28-.62.62-.62h0ZM54.9,334.6c.34,0,.62.28.62.62s-.28.62-.62.62-.62-.28-.62-.62.28-.62.62-.62h0ZM60.03,334.6c.34,0,.62.28.62.62s-.28.62-.62.62-.62-.28-.62-.62.28-.62.62-.62h0ZM65.16,334.6c.34,0,.62.28.62.62s-.28.62-.62.62-.62-.28-.62-.62.28-.62.62-.62h0ZM70.29,334.6c.34,0,.62.28.62.62s-.28.62-.62.62-.62-.28-.62-.62.28-.62.62-.62h0ZM106.21,334.6c.34,0,.62.28.62.62s-.28.62-.62.62-.62-.28-.62-.62.28-.62.62-.62h0ZM111.34,334.6c.34,0,.62.28.62.62s-.28.62-.62.62-.62-.28-.62-.62.28-.62.62-.62h0ZM116.47,334.6c.34,0,.62.28.62.62s-.28.62-.62.62-.62-.28-.62-.62.28-.62.62-.62h0ZM54.9,345.84c.34,0,.62.28.62.62s-.28.62-.62.62-.62-.28-.62-.62.28-.62.62-.62h0ZM60.03,345.84c.34,0,.62.28.62.62s-.28.62-.62.62-.62-.28-.62-.62.28-.62.62-.62h0ZM65.16,345.84c.34,0,.62.28.62.62s-.28.62-.62.62-.62-.28-.62-.62.28-.62.62-.62h0ZM70.29,345.84c.34,0,.62.28.62.62s-.28.62-.62.62-.62-.28-.62-.62.28-.62.62-.62h0ZM75.42,345.84c.34,0,.62.28.62.62s-.28.62-.62.62-.62-.28-.62-.62.28-.62.62-.62h0ZM80.55,345.84c.34,0,.62.28.62.62s-.28.62-.62.62-.62-.28-.62-.62.28-.62.62-.62h0ZM85.68,345.84c.34,0,.62.28.62.62s-.28.62-.62.62-.62-.28-.62-.62.28-.62.62-.62h0ZM90.81,345.84c.34,0,.62.28.62.62s-.28.62-.62.62-.62-.28-.62-.62.28-.62.62-.62h0ZM95.94,345.84c.34,0,.62.28.62.62s-.28.62-.62.62-.62-.28-.62-.62.28-.62.62-.62h0ZM101.08,345.84c.34,0,.62.28.62.62s-.28.62-.62.62-.62-.28-.62-.62.28-.62.62-.62h0ZM106.21,345.84c.34,0,.62.28.62.62s-.28.62-.62.62-.62-.28-.62-.62.28-.62.62-.62h0ZM111.34,345.84c.34,0,.62.28.62.62s-.28.62-.62.62-.62-.28-.62-.62.28-.62.62-.62h0ZM116.47,345.84c.34,0,.62.28.62.62s-.28.62-.62.62-.62-.28-.62-.62.28-.62.62-.62h0ZM129.17,216.49c-.34,0-.62.28-.62.62s.28.62.62.62.62-.28.62-.62-.28-.62-.62-.62h0ZM124.04,216.49c-.34,0-.62.28-.62.62s.28.62.62.62.62-.28.62-.62-.28-.62-.62-.62h0ZM124.04,227.74c-.34,0-.62.28-.62.62s.28.62.62.62.62-.28.62-.62-.28-.62-.62-.62h0ZM124.04,238.99c-.34,0-.62.28-.62.62s.28.62.62.62.62-.28.62-.62-.28-.62-.62-.62h0ZM124.04,250.24c-.34,0-.62.28-.62.62s.28.62.62.62.62-.28.62-.62-.28-.62-.62-.62h0ZM118.9,216.49c-.34,0-.62.28-.62.62s.28.62.62.62.62-.28.62-.62-.28-.62-.62-.62h0ZM118.9,227.74c-.34,0-.62.28-.62.62s.28.62.62.62.62-.28.62-.62-.28-.62-.62-.62h0ZM118.9,238.99c-.34,0-.62.28-.62.62s.28.62.62.62.62-.28.62-.62-.28-.62-.62-.62h0ZM118.9,250.24c-.34,0-.62.28-.62.62s.28.62.62.62.62-.28.62-.62-.28-.62-.62-.62h0ZM118.9,261.48c-.34,0-.62.28-.62.62s.28.62.62.62.62-.28.62-.62-.28-.62-.62-.62h0ZM118.9,272.73c-.34,0-.62.28-.62.62s.28.62.62.62.62-.28.62-.62-.28-.62-.62-.62h0ZM118.9,283.98c-.34,0-.62.28-.62.62s.28.62.62.62.62-.28.62-.62-.28-.62-.62-.62h0ZM118.9,295.23c-.34,0-.62.28-.62.62s.28.62.62.62.62-.28.62-.62-.28-.62-.62-.62h0ZM118.9,306.48c.34,0,.62.28.62.62s-.28.62-.62.62-.62-.28-.62-.62.28-.62.62-.62h0ZM118.9,317.72c.34,0,.62.28.62.62s-.28.62-.62.62-.62-.28-.62-.62.28-.62.62-.62h0ZM118.9,328.97c.34,0,.62.28.62.62s-.28.62-.62.62-.62-.28-.62-.62.28-.62.62-.62h0ZM118.9,340.22c.34,0,.62.28.62.62s-.28.62-.62.62-.62-.28-.62-.62.28-.62.62-.62h0ZM118.9,351.47c.34,0,.62.28.62.62s-.28.62-.62.62-.62-.28-.62-.62.28-.62.62-.62h0ZM113.77,216.49c-.34,0-.62.28-.62.62s.28.62.62.62.62-.28.62-.62-.28-.62-.62-.62h0ZM113.77,227.74c-.34,0-.62.28-.62.62s.28.62.62.62.62-.28.62-.62-.28-.62-.62-.62h0ZM113.77,238.99c-.34,0-.62.28-.62.62s.28.62.62.62.62-.28.62-.62-.28-.62-.62-.62h0ZM113.77,250.24c-.34,0-.62.28-.62.62s.28.62.62.62.62-.28.62-.62-.28-.62-.62-.62h0ZM113.77,261.48c-.34,0-.62.28-.62.62s.28.62.62.62.62-.28.62-.62-.28-.62-.62-.62h0ZM113.77,272.73c-.34,0-.62.28-.62.62s.28.62.62.62.62-.28.62-.62-.28-.62-.62-.62h0ZM113.77,283.98c-.34,0-.62.28-.62.62s.28.62.62.62.62-.28.62-.62-.28-.62-.62-.62h0ZM113.77,295.23c-.34,0-.62.28-.62.62s.28.62.62.62.62-.28.62-.62-.28-.62-.62-.62h0ZM113.77,306.48c.34,0,.62.28.62.62s-.28.62-.62.62-.62-.28-.62-.62.28-.62.62-.62h0ZM113.77,317.72c.34,0,.62.28.62.62s-.28.62-.62.62-.62-.28-.62-.62.28-.62.62-.62h0ZM113.77,328.97c.34,0,.62.28.62.62s-.28.62-.62.62-.62-.28-.62-.62.28-.62.62-.62h0ZM113.77,340.22c.34,0,.62.28.62.62s-.28.62-.62.62-.62-.28-.62-.62.28-.62.62-.62h0ZM113.77,351.47c.34,0,.62.28.62.62s-.28.62-.62.62-.62-.28-.62-.62.28-.62.62-.62h0ZM108.64,216.49c-.34,0-.62.28-.62.62s.28.62.62.62.62-.28.62-.62-.28-.62-.62-.62h0ZM108.64,227.74c-.34,0-.62.28-.62.62s.28.62.62.62.62-.28.62-.62-.28-.62-.62-.62h0ZM108.64,238.99c-.34,0-.62.28-.62.62s.28.62.62.62.62-.28.62-.62-.28-.62-.62-.62h0ZM108.64,250.24c-.34,0-.62.28-.62.62s.28.62.62.62.62-.28.62-.62-.28-.62-.62-.62h0ZM108.64,261.48c-.34,0-.62.28-.62.62s.28.62.62.62.62-.28.62-.62-.28-.62-.62-.62h0ZM108.64,272.73c-.34,0-.62.28-.62.62s.28.62.62.62.62-.28.62-.62-.28-.62-.62-.62h0ZM108.64,283.98c-.34,0-.62.28-.62.62s.28.62.62.62.62-.28.62-.62-.28-.62-.62-.62h0ZM108.64,295.23c-.34,0-.62.28-.62.62s.28.62.62.62.62-.28.62-.62-.28-.62-.62-.62h0ZM108.64,306.48c.34,0,.62.28.62.62s-.28.62-.62.62-.62-.28-.62-.62.28-.62.62-.62h0ZM108.64,317.72c.34,0,.62.28.62.62s-.28.62-.62.62-.62-.28-.62-.62.28-.62.62-.62h0ZM108.64,328.97c.34,0,.62.28.62.62s-.28.62-.62.62-.62-.28-.62-.62.28-.62.62-.62h0ZM108.64,340.22c.34,0,.62.28.62.62s-.28.62-.62.62-.62-.28-.62-.62.28-.62.62-.62h0ZM108.64,351.47c.34,0,.62.28.62.62s-.28.62-.62.62-.62-.28-.62-.62.28-.62.62-.62h0ZM103.51,216.49c-.34,0-.62.28-.62.62s.28.62.62.62.62-.28.62-.62-.28-.62-.62-.62h0ZM103.51,227.74c-.34,0-.62.28-.62.62s.28.62.62.62.62-.28.62-.62-.28-.62-.62-.62h0ZM103.51,238.99c-.34,0-.62.28-.62.62s.28.62.62.62.62-.28.62-.62-.28-.62-.62-.62h0ZM103.51,250.24c-.34,0-.62.28-.62.62s.28.62.62.62.62-.28.62-.62-.28-.62-.62-.62h0ZM103.51,261.48c-.34,0-.62.28-.62.62s.28.62.62.62.62-.28.62-.62-.28-.62-.62-.62h0ZM103.51,272.73c-.34,0-.62.28-.62.62s.28.62.62.62.62-.28.62-.62-.28-.62-.62-.62h0ZM103.51,283.98c-.34,0-.62.28-.62.62s.28.62.62.62.62-.28.62-.62-.28-.62-.62-.62h0ZM103.51,295.23c-.34,0-.62.28-.62.62s.28.62.62.62.62-.28.62-.62-.28-.62-.62-.62h0ZM103.51,306.48c.34,0,.62.28.62.62s-.28.62-.62.62-.62-.28-.62-.62.28-.62.62-.62h0ZM103.51,317.72c.34,0,.62.28.62.62s-.28.62-.62.62-.62-.28-.62-.62.28-.62.62-.62h0ZM103.51,340.22c.34,0,.62.28.62.62s-.28.62-.62.62-.62-.28-.62-.62.28-.62.62-.62h0ZM103.51,351.47c.34,0,.62.28.62.62s-.28.62-.62.62-.62-.28-.62-.62.28-.62.62-.62h0ZM98.38,227.74c-.34,0-.62.28-.62.62s.28.62.62.62.62-.28.62-.62-.28-.62-.62-.62h0ZM98.38,238.99c-.34,0-.62.28-.62.62s.28.62.62.62.62-.28.62-.62-.28-.62-.62-.62h0ZM98.38,250.24c-.34,0-.62.28-.62.62s.28.62.62.62.62-.28.62-.62-.28-.62-.62-.62h0ZM98.38,261.48c-.34,0-.62.28-.62.62s.28.62.62.62.62-.28.62-.62-.28-.62-.62-.62h0ZM98.38,272.73c-.34,0-.62.28-.62.62s.28.62.62.62.62-.28.62-.62-.28-.62-.62-.62h0ZM98.38,283.98c-.34,0-.62.28-.62.62s.28.62.62.62.62-.28.62-.62-.28-.62-.62-.62h0ZM98.38,295.23c-.34,0-.62.28-.62.62s.28.62.62.62.62-.28.62-.62-.28-.62-.62-.62h0ZM98.38,306.48c.34,0,.62.28.62.62s-.28.62-.62.62-.62-.28-.62-.62.28-.62.62-.62h0ZM98.38,351.47c.34,0,.62.28.62.62s-.28.62-.62.62-.62-.28-.62-.62.28-.62.62-.62h0ZM93.25,250.24c-.34,0-.62.28-.62.62s.28.62.62.62.62-.28.62-.62-.28-.62-.62-.62h0ZM93.25,261.48c-.34,0-.62.28-.62.62s.28.62.62.62.62-.28.62-.62-.28-.62-.62-.62h0ZM93.25,272.73c-.34,0-.62.28-.62.62s.28.62.62.62.62-.28.62-.62-.28-.62-.62-.62h0ZM93.25,283.98c-.34,0-.62.28-.62.62s.28.62.62.62.62-.28.62-.62-.28-.62-.62-.62h0ZM93.25,295.23c-.34,0-.62.28-.62.62s.28.62.62.62.62-.28.62-.62-.28-.62-.62-.62h0ZM93.25,306.48c.34,0,.62.28.62.62s-.28.62-.62.62-.62-.28-.62-.62.28-.62.62-.62h0ZM93.25,351.47c.34,0,.62.28.62.62s-.28.62-.62.62-.62-.28-.62-.62.28-.62.62-.62h0ZM88.12,216.49c-.34,0-.62.28-.62.62s.28.62.62.62.62-.28.62-.62-.28-.62-.62-.62h0ZM88.12,306.48c.34,0,.62.28.62.62s-.28.62-.62.62-.62-.28-.62-.62.28-.62.62-.62h0ZM88.12,351.47c.34,0,.62.28.62.62s-.28.62-.62.62-.62-.28-.62-.62.28-.62.62-.62h0ZM82.99,216.49c-.34,0-.62.28-.62.62s.28.62.62.62.62-.28.62-.62-.28-.62-.62-.62h0ZM82.99,227.74c-.34,0-.62.28-.62.62s.28.62.62.62.62-.28.62-.62-.28-.62-.62-.62h0ZM82.99,238.99c-.34,0-.62.28-.62.62s.28.62.62.62.62-.28.62-.62-.28-.62-.62-.62h0ZM82.99,250.24c-.34,0-.62.28-.62.62s.28.62.62.62.62-.28.62-.62-.28-.62-.62-.62h0ZM82.99,261.48c-.34,0-.62.28-.62.62s.28.62.62.62.62-.28.62-.62-.28-.62-.62-.62h0ZM82.99,272.73c-.34,0-.62.28-.62.62s.28.62.62.62.62-.28.62-.62-.28-.62-.62-.62h0ZM82.99,283.98c-.34,0-.62.28-.62.62s.28.62.62.62.62-.28.62-.62-.28-.62-.62-.62h0ZM82.99,306.48c.34,0,.62.28.62.62s-.28.62-.62.62-.62-.28-.62-.62.28-.62.62-.62h0ZM82.99,351.47c.34,0,.62.28.62.62s-.28.62-.62.62-.62-.28-.62-.62.28-.62.62-.62h0ZM77.86,216.49c.34,0,.62.28.62.62s-.28.62-.62.62-.62-.28-.62-.62.28-.62.62-.62h0ZM77.86,227.74c.34,0,.62.28.62.62s-.28.62-.62.62-.62-.28-.62-.62.28-.62.62-.62h0ZM77.86,238.99c.34,0,.62.28.62.62s-.28.62-.62.62-.62-.28-.62-.62.28-.62.62-.62h0ZM77.86,250.24c.34,0,.62.28.62.62s-.28.62-.62.62-.62-.28-.62-.62.28-.62.62-.62h0ZM77.86,261.48c.34,0,.62.28.62.62s-.28.62-.62.62-.62-.28-.62-.62.28-.62.62-.62h0ZM77.86,272.73c.34,0,.62.28.62.62s-.28.62-.62.62-.62-.28-.62-.62.28-.62.62-.62h0ZM77.86,283.98c.34,0,.62.28.62.62s-.28.62-.62.62-.62-.28-.62-.62.28-.62.62-.62h0ZM77.86,295.23c.34,0,.62.28.62.62s-.28.62-.62.62-.62-.28-.62-.62.28-.62.62-.62h0ZM77.86,306.48c.34,0,.62.28.62.62s-.28.62-.62.62-.62-.28-.62-.62.28-.62.62-.62h0ZM77.86,351.47c.34,0,.62.28.62.62s-.28.62-.62.62-.62-.28-.62-.62.28-.62.62-.62h0ZM72.73,216.49c.34,0,.62.28.62.62s-.28.62-.62.62-.62-.28-.62-.62.28-.62.62-.62h0ZM72.73,227.74c.34,0,.62.28.62.62s-.28.62-.62.62-.62-.28-.62-.62.28-.62.62-.62h0ZM72.73,238.99c.34,0,.62.28.62.62s-.28.62-.62.62-.62-.28-.62-.62.28-.62.62-.62h0ZM72.73,250.24c.34,0,.62.28.62.62s-.28.62-.62.62-.62-.28-.62-.62.28-.62.62-.62h0ZM72.73,261.48c.34,0,.62.28.62.62s-.28.62-.62.62-.62-.28-.62-.62.28-.62.62-.62h0ZM72.73,272.73c.34,0,.62.28.62.62s-.28.62-.62.62-.62-.28-.62-.62.28-.62.62-.62h0ZM72.73,283.98c.34,0,.62.28.62.62s-.28.62-.62.62-.62-.28-.62-.62.28-.62.62-.62h0ZM72.73,295.23c.34,0,.62.28.62.62s-.28.62-.62.62-.62-.28-.62-.62.28-.62.62-.62h0ZM72.73,306.48c.34,0,.62.28.62.62s-.28.62-.62.62-.62-.28-.62-.62.28-.62.62-.62h0ZM72.73,317.72c.34,0,.62.28.62.62s-.28.62-.62.62-.62-.28-.62-.62.28-.62.62-.62h0ZM72.73,340.22c.34,0,.62.28.62.62s-.28.62-.62.62-.62-.28-.62-.62.28-.62.62-.62h0ZM72.73,351.47c.34,0,.62.28.62.62s-.28.62-.62.62-.62-.28-.62-.62.28-.62.62-.62h0ZM67.59,216.49c.34,0,.62.28.62.62s-.28.62-.62.62-.62-.28-.62-.62.28-.62.62-.62h0ZM67.59,227.74c.34,0,.62.28.62.62s-.28.62-.62.62-.62-.28-.62-.62.28-.62.62-.62h0ZM67.59,238.99c.34,0,.62.28.62.62s-.28.62-.62.62-.62-.28-.62-.62.28-.62.62-.62h0ZM67.59,250.24c.34,0,.62.28.62.62s-.28.62-.62.62-.62-.28-.62-.62.28-.62.62-.62h0ZM67.59,261.48c.34,0,.62.28.62.62s-.28.62-.62.62-.62-.28-.62-.62.28-.62.62-.62h0ZM67.59,272.73c.34,0,.62.28.62.62s-.28.62-.62.62-.62-.28-.62-.62.28-.62.62-.62h0ZM67.59,283.98c.34,0,.62.28.62.62s-.28.62-.62.62-.62-.28-.62-.62.28-.62.62-.62h0ZM67.59,295.23c.34,0,.62.28.62.62s-.28.62-.62.62-.62-.28-.62-.62.28-.62.62-.62h0ZM67.59,306.48c.34,0,.62.28.62.62s-.28.62-.62.62-.62-.28-.62-.62.28-.62.62-.62h0ZM67.59,317.72c.34,0,.62.28.62.62s-.28.62-.62.62-.62-.28-.62-.62.28-.62.62-.62h0ZM67.59,328.97c.34,0,.62.28.62.62s-.28.62-.62.62-.62-.28-.62-.62.28-.62.62-.62h0ZM67.59,340.22c.34,0,.62.28.62.62s-.28.62-.62.62-.62-.28-.62-.62.28-.62.62-.62h0ZM67.59,351.47c.34,0,.62.28.62.62s-.28.62-.62.62-.62-.28-.62-.62.28-.62.62-.62h0ZM62.46,216.49c.34,0,.62.28.62.62s-.28.62-.62.62-.62-.28-.62-.62.28-.62.62-.62h0ZM62.46,227.74c.34,0,.62.28.62.62s-.28.62-.62.62-.62-.28-.62-.62.28-.62.62-.62h0ZM62.46,238.99c.34,0,.62.28.62.62s-.28.62-.62.62-.62-.28-.62-.62.28-.62.62-.62h0ZM62.46,250.24c.34,0,.62.28.62.62s-.28.62-.62.62-.62-.28-.62-.62.28-.62.62-.62h0ZM62.46,261.48c.34,0,.62.28.62.62s-.28.62-.62.62-.62-.28-.62-.62.28-.62.62-.62h0ZM62.46,272.73c.34,0,.62.28.62.62s-.28.62-.62.62-.62-.28-.62-.62.28-.62.62-.62h0ZM62.46,283.98c.34,0,.62.28.62.62s-.28.62-.62.62-.62-.28-.62-.62.28-.62.62-.62h0ZM62.46,295.23c.34,0,.62.28.62.62s-.28.62-.62.62-.62-.28-.62-.62.28-.62.62-.62h0ZM62.46,306.48c.34,0,.62.28.62.62s-.28.62-.62.62-.62-.28-.62-.62.28-.62.62-.62h0ZM62.46,317.72c.34,0,.62.28.62.62s-.28.62-.62.62-.62-.28-.62-.62.28-.62.62-.62h0ZM62.46,328.97c.34,0,.62.28.62.62s-.28.62-.62.62-.62-.28-.62-.62.28-.62.62-.62h0ZM62.46,340.22c.34,0,.62.28.62.62s-.28.62-.62.62-.62-.28-.62-.62.28-.62.62-.62h0ZM62.46,351.47c.34,0,.62.28.62.62s-.28.62-.62.62-.62-.28-.62-.62.28-.62.62-.62h0ZM57.33,250.24c.34,0,.62.28.62.62s-.28.62-.62.62-.62-.28-.62-.62.28-.62.62-.62h0ZM57.33,261.48c.34,0,.62.28.62.62s-.28.62-.62.62-.62-.28-.62-.62.28-.62.62-.62h0ZM57.33,272.73c.34,0,.62.28.62.62s-.28.62-.62.62-.62-.28-.62-.62.28-.62.62-.62h0ZM57.33,283.98c.34,0,.62.28.62.62s-.28.62-.62.62-.62-.28-.62-.62.28-.62.62-.62h0ZM57.33,295.23c.34,0,.62.28.62.62s-.28.62-.62.62-.62-.28-.62-.62.28-.62.62-.62h0ZM57.33,306.48c.34,0,.62.28.62.62s-.28.62-.62.62-.62-.28-.62-.62.28-.62.62-.62h0ZM57.33,317.72c.34,0,.62.28.62.62s-.28.62-.62.62-.62-.28-.62-.62.28-.62.62-.62h0ZM57.33,328.97c.34,0,.62.28.62.62s-.28.62-.62.62-.62-.28-.62-.62.28-.62.62-.62h0ZM57.33,340.22c.34,0,.62.28.62.62s-.28.62-.62.62-.62-.28-.62-.62.28-.62.62-.62h0ZM57.33,351.47c.34,0,.62.28.62.62s-.28.62-.62.62-.62-.28-.62-.62.28-.62.62-.62h0ZM78,322.54c-.06-1.47-.49-2.84-1.24-4.11l-.12-.21.24.03c1.05.15,2.11.21,3.17.09,1.1-.13,2.14-.45,3.11-.98l.06-.03.06.03c1.31.77,2.74,1.24,4.27,1.25,1.57,0,3.05-.5,4.4-1.27l.06-.03.06.04c.8.5,1.63.79,2.57.94,1.18.19,2.45.13,3.64.03l.22-.02-.11.19c-.74,1.27-1.15,2.68-1.21,4.15-.06,1.51.27,3,.88,4.38l.07.16h-21.05s.07-.17.07-.17c.59-1.42.93-2.93.87-4.47h0ZM96.52,326.95h1.25c-.58-1.37-.89-2.83-.83-4.32.06-1.43.44-2.81,1.13-4.07-.52.04-1.04.07-1.56.07v8.32h0ZM94.31,326.95h.97s0-8.36,0-8.36c-.23-.02-.46-.05-.69-.08-.09-.01-.19-.03-.28-.05v8.49h0ZM92.09,326.95h.99s0-8.84,0-8.84c-.34-.13-.67-.3-.99-.48v9.32h0ZM89.87,326.95h.98s0-8.8,0-8.8c-.32.13-.64.25-.98.35v8.45h0ZM87.5,318.84c-1.09,0-2.14-.25-3.14-.67v2.86h3.14v-2.2h0ZM87.73,326.95h.91s0-8.18,0-8.18c-.3.04-.6.07-.91.07v8.11h0ZM84.36,326.95h3.14s0-2.68,0-2.68h-3.14v2.68h0ZM78.15,324.26c-.13.92-.39,1.82-.73,2.68h3.72s0-2.68,0-2.68h-2.99ZM77.08,318.52c.44.79.77,1.64.96,2.52h3.1v-2.65c-.35.08-.7.15-1.06.19-1,.12-2,.07-2.99-.06h0ZM75.91,316.29l-1.25,1.69c3.5,4.71,1.45,8.74-1.27,11.68l1.39,1.41c-.23,7,3.54,10.77,10.7,11.39l2.14,1.74,2.15-1.76c4.01-.22,10.99-2.38,10.68-11.39l1.35-1.37c-3.23-3.52-4.38-7.51-1.26-11.69l-1.2-1.67c-2.67,1.01-5.53.44-7.38-.9-2.78,1.99-5.69,2.22-8.72,0-2.16,1.63-5.39,1.74-7.36.87h0ZM83.25,316.13c-2.03,1.49-5.24,1.64-7.09.9l-.74.95c3.17,4.46,1.35,8.94-1.16,11.69l1.16,1.22c-.47,6.72,3.45,10.61,10.35,11.01l1.87,1.56,1.86-1.59c4.01-.07,11.05-2.32,10.3-10.99l1.16-1.2c-2.95-3.27-3.97-7.75-1.12-11.7l-.69-.94c-2.52.83-5.41.37-7.15-.89-4.64,3.32-8.76-.02-8.75-.02h0ZM76.43,330.87h22.41v.03c.26,2.64-.25,5.26-2.16,7.2-1.87,1.9-4.59,2.65-7.19,2.79h-3.78c-.25.01-.51-.03-.75-.06-2.31-.26-4.7-1.03-6.39-2.69-1.99-1.95-2.45-4.56-2.14-7.24v-.03h0ZM89.23,333.05c-.97-.59-2.21-.59-3.19-.02v-1.93h3.19v1.95h0ZM89.23,338.42v2.24h-3.19s0-2.22,0-2.22c.98.57,2.22.56,3.19-.02h0ZM87.62,335.55c-.19-.17-.39-.36-.4-.63-.01-.3.2-.62.38-.84,1.2-.28,2.36.87,2.91,1.82-.02.32-.09.64-.21.93-.11-.18-.26-.34-.44-.45-.24-.14-.52-.19-.78-.12-.23-.73-.73-1.13-1.46-.71h0ZM90.19,337.07c-.78,1.51-2.72,2.02-4.14,1.11.63-.08,1.28-.22,1.85-.5.54-.27.96-.66,1.2-1.21.23-.07.45-.04.65.09.18.11.34.29.42.49,0,.01,0,.02.01.04h0ZM85.8,338c-.33-.26-.6-.6-.79-.97.54-.04.82-.16,1.14-.61.29.22.68.28,1,.07.26-.17.47-.49.59-.77.65-.37,1,.07,1.17.68-.22.5-.61.85-1.1,1.09-.61.31-1.34.44-2.01.51h0ZM85.99,336.29c-.31.44-.55.51-1.07.54-.46-1.15-.14-2.47.79-3.28-.13.5-.24,1.04-.21,1.55.02.46.16.87.5,1.19h0ZM85.98,333.34c.39-.26.83-.43,1.3-.48-.27.38-.15.78.12,1.14-.2.25-.41.58-.4.91,0,.37.26.6.51.83-.11.22-.27.46-.47.59-.45.3-.96-.15-1.16-.54-.11-.22-.15-.45-.17-.69-.03-.57.12-1.2.27-1.75h0ZM87.56,332.83c.79-.01,1.54.29,2.1.85.49.49.78,1.13.84,1.81-.64-.93-1.76-1.89-2.95-1.62-.26-.36-.34-.7,0-1.04h0ZM95.68,331.1v7.56c-.95.71-2.05,1.2-3.19,1.52v-9.08h3.19ZM82.73,331.1v9.07c-1.14-.32-2.24-.8-3.19-1.5v-7.57h3.19ZM89.96,327.58h1.49c.82.17.87.94.46,1.31.78.64.11,1.47-.39,1.54h-1.55s-.01-2.85-.01-2.85h0ZM90.56,328.14h.77c.34.1.24.42.01.48h-.78v-.48h0ZM90.57,329.18h.81c.4.13.31.59.01.67h-.82s0-.67,0-.67h0ZM82.89,327.58h2.05v.6h-1.46v.46h.85v.6h-.85v1.18h-.59v-2.85h0ZM87.41,327.58c.44,0,.84.24,1.08.6l-.53.28c-.13-.17-.33-.28-.55-.28-.4,0-.73.37-.73.83s.33.83.73.83c.23,0,.44-.13.58-.32l.51.3c-.24.37-.64.61-1.09.61-.73,0-1.32-.64-1.32-1.43s.59-1.43,1.32-1.43h0ZM0,0v35.68h162.71v-4.6l9.21,7.16H0v35.44l8.7-4.09h108.98c-6.98,15.4-38.89,84.49-42.98,94.15-15.83,37.37-23.54,87.12-23.54,138.8v46.93l-4.09,8.7h80.84l-4.09-8.19v-50.65c.89-30.33,2.74-52.89,6.72-73.4,6.24-32.14,17.7-59.23,38.91-103.27,6.73-13.98,13.62-27.89,20.37-41.82V8.19l3.86-8.19H0Z"/>
  </g>
</svg>