<svg width="1080" height="1080" viewBox="0 0 1080 1080" fill="none" xmlns="http://www.w3.org/2000/svg">
<rect width="1080" height="1080" fill="black"/>
<path d="M409.271 402.625C409.271 423.911 412.805 438.807 418.148 449.305C423.365 459.552 430.668 466.386 439.791 471.093C459.194 481.1 486.979 481.842 520.589 480.261C552.399 478.764 589.38 475.142 620.505 480.202C636.452 482.795 652.002 487.783 665.386 497.146C666.082 497.632 666.737 498.175 667.417 498.683V177.436H766.637V836.351H667.417V591.578C667.417 570.636 663.911 555.985 658.627 545.682C653.469 535.627 646.228 528.923 637.158 524.271C617.859 514.375 590.222 513.576 556.708 515.046C524.975 516.437 488.102 519.872 456.908 514.727C439.56 511.864 423.073 506.161 409.271 495.84V836.351H311.82V177.436H409.271V402.625ZM394.381 821.496H394.417V451.731C394.405 451.701 394.392 451.671 394.381 451.641V821.496ZM751.769 821.496H751.783V192.29H751.769V821.496ZM653.724 507.262C666.161 515.001 676.044 526.518 682.252 543.438V543.396C676.039 526.496 666.156 514.993 653.724 507.262ZM644.455 511.331C602.621 489.429 533.692 505.639 477.591 502.089L476.226 501.999C532.563 505.915 602.273 489.262 644.455 511.331ZM462.592 493.439C463.653 493.61 464.722 493.772 465.799 493.921C464.722 493.772 463.653 493.61 462.592 493.439ZM460.854 493.148C461.267 493.22 461.681 493.292 462.096 493.36C461.681 493.292 461.267 493.22 460.854 493.148ZM458.772 492.771C459.274 492.866 459.776 492.96 460.281 493.05C459.776 492.96 459.274 492.866 458.772 492.771ZM394.381 402.622C394.381 463.306 421.125 485.543 458.513 492.722C422.899 485.873 396.951 465.348 394.591 410.923L394.417 402.625V192.29H394.381V402.622Z" fill="#F5F5F5"/>
<path d="M756.972 875.34L758.718 902.424L768.172 902.424L764.536 856.437L750.863 856.437L742.718 879.149C741.7 882.534 740.682 886.484 739.373 890.716C737.918 886.061 737.045 882.534 736.027 879.008L727.882 856.579L713.773 856.579L710.282 902.565L719.3 902.565L721.046 875.481C721.191 871.249 721.337 866.876 721.337 862.644L721.918 862.644C722.936 866.735 724.391 872.095 725.264 875.622L733.845 901.86L743.591 901.86L752.172 876.327C753.627 872.095 754.936 866.735 756.245 862.644L756.827 862.644C756.972 867.581 756.972 871.954 757.118 875.481L756.972 875.34Z" fill="#F5F5F5"/>
<path d="M707.383 864.055L707.383 856.438L667.675 856.437L667.675 864.055L682.801 864.055L682.801 902.424L692.256 902.424L692.256 864.055L707.383 864.055Z" fill="#F5F5F5"/>
</svg>
